<?xml version="1.0" encoding="UTF-8" standalone="no"?>
<svg
   xmlns:dc="http://purl.org/dc/elements/1.1/"
   xmlns:cc="http://creativecommons.org/ns#"
   xmlns:rdf="http://www.w3.org/1999/02/22-rdf-syntax-ns#"
   xmlns:svg="http://www.w3.org/2000/svg"
   xmlns="http://www.w3.org/2000/svg"
   xmlns:xlink="http://www.w3.org/1999/xlink"
   xmlns:sodipodi="http://sodipodi.sourceforge.net/DTD/sodipodi-0.dtd"
   xmlns:inkscape="http://www.inkscape.org/namespaces/inkscape"
   xml:space="preserve"
   height="241.29px"
   width="280.35px"
   version="1.1"
   id="svg106"
   sodipodi:docname="rna-ribose-numbering-std-notation.svg"
   inkscape:version="0.92.4 (5da689c313, 2019-01-14)"
   inkscape:export-filename="/home/pi/gh/writings/english/sciences/rna-ribose-numbering-std-notation.png"
   inkscape:export-xdpi="600"
   inkscape:export-ydpi="600"><metadata
   id="metadata112"><rdf:RDF><cc:Work
       rdf:about=""><dc:format>image/svg+xml</dc:format><dc:type
         rdf:resource="http://purl.org/dc/dcmitype/StillImage" /></cc:Work></rdf:RDF></metadata><defs
   id="defs110" /><sodipodi:namedview
   pagecolor="#ffffff"
   bordercolor="#666666"
   borderopacity="1"
   objecttolerance="10"
   gridtolerance="10"
   guidetolerance="10"
   inkscape:pageopacity="0"
   inkscape:pageshadow="2"
   inkscape:window-width="1458"
   inkscape:window-height="822"
   id="namedview108"
   showgrid="false"
   inkscape:zoom="2.7451224"
   inkscape:cx="111.40614"
   inkscape:cy="77.492215"
   inkscape:window-x="36"
   inkscape:window-y="96"
   inkscape:window-maximized="0"
   inkscape:current-layer="g80" />
	<polygon
   points="201.39 154.39 204.29 156.94 203.44 159.49 153.54 159.49 152.69 156.94 155.59 154.39"
   id="polygon2" />
	<polygon
   points="126.09 112.44 126.94 112.24 128.14 112.59 155.59 154.39 152.69 156.94 151.84 163.74"
   id="polygon4" />
	<polygon
   points="228.84 112.59 230.09 112.24 230.94 112.44 205.14 163.74 204.29 156.94 201.39 154.39"
   id="polygon6" />
	<polygon
   points="167.74 90.739 168.49 92.239 128.14 112.59 126.94 112.24 127.79 110.84"
   id="polygon8" />
	<polygon
   points="187.79 92.189 188.54 90.689 229.24 110.89 230.09 112.24 228.84 112.59"
   id="polygon10" />
	<polygon
   points="126.09 73.04 127.79 72.089 127.79 110.84 126.94 112.24 126.09 112.44"
   id="polygon12" />
	<polygon
   points="205.14 186.29 203.44 186.29 203.44 159.49 204.29 156.94 205.14 163.74"
   id="polygon14" />
	<polygon
   points="153.54 186.29 151.84 186.29 151.84 163.74 152.69 156.94 153.54 159.49"
   id="polygon16" />
	<polygon
   points="229.24 84.239 230.94 84.239 230.94 112.44 230.09 112.24 229.24 110.89"
   id="polygon18" />
	<polygon
   points="101.94 59.14 102.79 57.64 127.79 72.089 126.09 73.04"
   id="polygon20" />
	<rect
   y="51.89"
   x="61.741"
   height="1.7"
   width="20.3"
   id="rect22" />
	<rect
   y="25.089"
   x="52.041"
   height="4.25"
   width="1.7"
   id="rect24" />
	<rect
   y="31.79"
   x="52.041"
   height="4.25"
   width="1.7"
   id="rect26" />
	<rect
   y="38.439"
   x="52.041"
   height="4.3"
   width="1.7"
   id="rect28" />
	<rect
   y="54.839"
   x="23.741"
   height="1.7"
   width="20.9"
   id="rect30" />
	<rect
   y="48.89"
   x="23.741"
   height="1.7"
   width="20.9"
   id="rect32" />
	<rect
   y="64.439"
   x="52.041"
   height="17.65"
   width="1.7"
   id="rect34" />
	<rect
   y="232.04"
   x="151.84"
   height="4.25"
   width="1.699"
   id="rect36" />
	<rect
   y="224.24"
   x="151.84"
   height="4.25"
   width="1.699"
   id="rect38" />
	<rect
   y="216.44"
   x="151.84"
   height="4.25"
   width="1.699"
   id="rect40" />
	<rect
   y="208.64"
   x="151.84"
   height="4.25"
   width="1.699"
   id="rect42" />
	<g
   font-family="Nimbus Sans L"
   id="g104">
		<g
   font-size="25px"
   id="g80"
   inkscape:export-xdpi="36.261299"
   inkscape:export-ydpi="36.261299">
			<text
   y="22.402767"
   x="43.271908"
   id="text46">
				<tspan
   y="22.402767"
   x="43.271908"
   id="tspan44">O</tspan>
			</text>





			<text
   y="95.888878"
   x="168.45387"
   id="text50">
				<tspan
   y="95.888878"
   x="168.45387"
   id="tspan48">O</tspan>
			</text>





			<text
   y="205.95587"
   x="143.00002"
   id="text54">
				<tspan
   y="205.95587"
   x="143.00002"
   id="tspan52">O</tspan>
			</text>





			<text
   y="62.186592"
   x="3.3977129"
   id="text58">
				<tspan
   y="62.186592"
   x="3.3977129"
   id="tspan56">O</tspan>
			</text>





			<text
   y="62.128147"
   x="82.929947"
   id="text62">
				<tspan
   y="62.128147"
   x="82.929947"
   id="tspan60">O</tspan>
			</text>





			<text
   y="62.213062"
   x="44.102619"
   id="text66">
				<tspan
   y="62.213062"
   x="44.102619"
   id="tspan64">P</tspan>
			</text>





			<text
   y="101.89555"
   x="42.760693"
   id="text70">
				<tspan
   y="101.89555"
   x="42.760693"
   id="tspan68">OH</tspan>
			</text>





			<text
   y="206.02954"
   x="194.28725"
   id="text74"><tspan
   style="stroke:#00a600;stroke-opacity:1"
   id="tspan871">		</tspan>		 <tspan
   y="206.02954"
   x="194.28725"
   id="tspan72"><tspan
   style="stroke:#924394;stroke-opacity:1"
   id="tspan875">O</tspan>H</tspan>
			</text>





			<text
   y="81.952087"
   x="220.31369"
   id="text78">
				<tspan
   y="81.952087"
   x="220.31369"
   id="tspan76">Base</tspan>
			</text>





		<text
   xml:space="preserve"
   style="font-style:normal;font-weight:normal;font-size:18.66666603px;line-height:1.25;font-family:sans-serif;letter-spacing:0px;word-spacing:0px;fill:#000000;fill-opacity:1;stroke:none"
   x="16.756994"
   y="163.33354"
   id="text891"><tspan
     sodipodi:role="line"
     id="tspan889"
     x="16.756994"
     y="163.33354">Ribose</tspan><tspan
     sodipodi:role="line"
     x="16.756994"
     y="186.66687"
     id="tspan893">in RNA</tspan></text>

<text
   xml:space="preserve"
   style="font-style:normal;font-weight:normal;font-size:10.38920021px;line-height:1.25;font-family:sans-serif;letter-spacing:0px;word-spacing:0px;fill:#000000;fill-opacity:1;stroke:none;stroke-width:0.59937596"
   x="127.87071"
   y="240.03061"
   id="text897"
   transform="scale(1.0392135,0.96226617)"><tspan
     sodipodi:role="line"
     id="tspan895"
     x="127.87071"
     y="240.03061"
     style="stroke-width:0.59937596">phospho-diester bond 5'-3'</tspan></text>

</g>
		<g
   fill="red"
   font-size="18px"
   id="g102"
   inkscape:export-xdpi="36.261299"
   inkscape:export-ydpi="36.261299">
			<text
   y="72.118103"
   x="129.13815"
   id="text84">
				<tspan
   y="72.118103"
   x="129.13815"
   id="tspan82">5'</tspan>
			</text>





			<text
   y="123.11105"
   x="110.22345"
   id="text88">
				<tspan
   x="110.22345"
   y="123.11105"
   id="tspan86">4'</tspan>
			</text>





			<text
   y="167.71396"
   x="132.20538"
   id="text92">
				<tspan
   y="167.71396"
   x="132.20538"
   id="tspan90">3'</tspan>
			</text>





			<text
   y="123.11106"
   x="232.27429"
   id="text96">
				<tspan
   y="123.11106"
   x="232.27429"
   id="tspan94">1'</tspan>
			</text>





			<text
   y="167.66696"
   x="210.39319"
   id="text100">
				<tspan
   y="167.66696"
   x="210.39319"
   id="tspan98">2'</tspan>
			</text>





		</g>
	<a
   id="a4629"
   xlink:href="https://commons.wikimedia.org/w/index.php?curid=4730116"
   inkscape:export-xdpi="36.261299"
   inkscape:export-ydpi="36.261299"><a
   id="a867"
   xlink:href="https://commons.wikimedia.org/w/index.php?curid=4730116"><text
   xml:space="preserve"
   style="font-style:normal;font-weight:normal;font-size:10.66666698px;line-height:1.25;font-family:sans-serif;letter-spacing:0px;word-spacing:0px;fill:#000000;fill-opacity:1;stroke:none"
   x="13.842734"
   y="208.86885"
   id="text4625"><tspan
     sodipodi:role="line"
     id="tspan4623"
     x="13.842734"
     y="208.86885">Modified</tspan><tspan
     sodipodi:role="line"
     x="13.842734"
     y="222.20218"
     id="tspan4627">from NEUROtiker</tspan></text>



</a>
</a></g>
</svg>