<?xml version="1.0" encoding="UTF-8" standalone="no"?>
<!-- Created with Inkscape (http://www.inkscape.org/) -->

<svg
   xmlns:dc="http://purl.org/dc/elements/1.1/"
   xmlns:cc="http://creativecommons.org/ns#"
   xmlns:rdf="http://www.w3.org/1999/02/22-rdf-syntax-ns#"
   xmlns:svg="http://www.w3.org/2000/svg"
   xmlns="http://www.w3.org/2000/svg"
   xmlns:sodipodi="http://sodipodi.sourceforge.net/DTD/sodipodi-0.dtd"
   xmlns:inkscape="http://www.inkscape.org/namespaces/inkscape"
   width="210mm"
   height="297mm"
   viewBox="0 0 210 297"
   version="1.1"
   id="svg8"
   sodipodi:docname="kra.svg"
   inkscape:version="0.92.4 (5da689c313, 2019-01-14)"
   inkscape:export-filename="/home/pi/gh/writings/sanskrit/wrong-shra.png"
   inkscape:export-xdpi="75"
   inkscape:export-ydpi="75">
  <defs
     id="defs2" />
  <sodipodi:namedview
     id="base"
     pagecolor="#ffffff"
     bordercolor="#666666"
     borderopacity="1.0"
     inkscape:pageopacity="0.0"
     inkscape:pageshadow="2"
     inkscape:zoom="0.35"
     inkscape:cx="-771.42858"
     inkscape:cy="660"
     inkscape:document-units="mm"
     inkscape:current-layer="g4560"
     showgrid="false"
     inkscape:snap-text-baseline="false"
     inkscape:window-width="1920"
     inkscape:window-height="1012"
     inkscape:window-x="0"
     inkscape:window-y="36"
     inkscape:window-maximized="1" />
  <metadata
     id="metadata5">
    <rdf:RDF>
      <cc:Work
         rdf:about="">
        <dc:format>image/svg+xml</dc:format>
        <dc:type
           rdf:resource="http://purl.org/dc/dcmitype/StillImage" />
      </cc:Work>
    </rdf:RDF>
  </metadata>
  <g
     inkscape:label="Layer 1"
     inkscape:groupmode="layer"
     id="layer1">
    <g
       id="g4560"
       transform="matrix(0.80152179,0,0,0.70102422,11.000671,18.986828)"
       inkscape:export-xdpi="75"
       inkscape:export-ydpi="75">
      <g
         id="g833"
         inkscape:export-xdpi="75"
         inkscape:export-ydpi="75">
        <path
           inkscape:connector-curvature="0"
           d="m 42.126494,38.390503 c 5.393501,0.661009 10.824314,0.785778 16.243434,0.907656 7.894859,0.136646 15.790696,0.179031 23.686361,0.187681 6.29992,-0.02125 12.600278,-0.05488 18.899661,-0.157793 2.81769,-0.04594 5.63549,-0.03859 8.45333,-0.04078 2.48543,7.55e-4 4.97085,-0.0045 7.45627,-0.01264 0.95047,7.55e-4 1.90086,-0.01204 2.8513,-0.0171 0,0 -11.32074,9.404107 -11.32074,9.404107 v 0 c -0.93671,-0.0051 -1.87335,-0.01797 -2.81009,-0.01713 -2.47528,-0.0082 -4.95054,-0.01336 -7.425827,-0.01249 -2.786669,-0.0019 -5.573301,0.0071 -8.359834,-0.03616 C 83.622976,48.497294 77.444633,48.472693 71.266779,48.447689 63.309064,48.446934 55.3507,48.511319 47.393523,48.378409 41.84776,48.252466 36.301132,48.0971 30.767602,47.629977 c 0,0 11.358892,-9.239459 11.358892,-9.239459 z"
           id="path817"
           style="fill:#000000;fill-opacity:1;stroke:#000000;stroke-width:7.95767641;stroke-linejoin:bevel;stroke-miterlimit:4;stroke-dasharray:none;stroke-dashoffset:0;stroke-opacity:1" />
        <path
           inkscape:connector-curvature="0"
           d="m 70.598966,46.079331 c -0.125792,5.335427 -0.08338,10.675039 -0.111942,16.012569 -0.03867,8.282536 -0.05557,16.565214 -0.0985,24.847773 -0.173796,10.268571 0.638279,20.390477 1.878585,30.462197 0.438962,4.11097 1.302372,8.22778 0.408207,12.29841 -0.690366,2.23637 -1.553675,4.34234 -2.200444,6.60768 -0.664357,3.11826 -1.173643,6.27219 -1.450664,9.51482 -0.145969,3.40797 -0.599021,6.75945 -0.9059,10.13789 -0.382799,2.967 -0.785985,5.92036 -0.996994,8.92725 -0.02318,0.39354 -0.04635,0.78707 -0.06953,1.1806 0,0 -12.158529,8.96882 -12.158529,8.96882 v 0 c 0.02148,-0.41157 0.04294,-0.82315 0.0644,-1.23473 0.228826,-3.01469 0.507,-6.018 0.996147,-8.96941 0.277812,-3.39753 0.871883,-6.72617 0.968447,-10.15231 0.228593,-3.3589 0.634729,-6.613 1.267361,-9.85442 0.435996,-2.44306 1.311986,-4.58926 2.151715,-6.77649 1.469652,-3.62756 0.43196,-7.4894 0.207831,-11.47314 -0.275632,-2.85224 -0.627586,-5.68798 -0.887663,-8.54342 -0.673045,-7.38948 -0.748496,-14.8513 -0.969239,-22.28871 -0.043,-8.233129 -0.05978,-16.466376 -0.0985,-24.699475 -0.0285,-5.281339 0.01491,-10.564867 -0.111939,-15.844027 0,0 12.11715,-9.121877 12.11715,-9.121877 z"
           id="path823"
           style="fill:#000000;fill-opacity:1;stroke:#000000;stroke-width:8.7852459;stroke-linejoin:bevel;stroke-miterlimit:4;stroke-dasharray:none;stroke-dashoffset:0;stroke-opacity:1" />
        <path
           inkscape:connector-curvature="0"
           d="m 7.754315,100.23001 c 2.0971051,-2.674808 4.118017,-5.417212 6.081834,-8.220305 1.564891,-2.326366 3.290289,-4.478977 5.399421,-6.162858 9.711322,-6.952825 9.910828,-8.718108 17.827924,-8.866881 2.128037,-0.02563 4.256101,0.0088 6.384151,0.0062 2.354451,-0.333213 4.18101,1.086169 6.171197,2.290371 2.399872,1.12022 4.487832,2.834642 6.467406,4.714908 2.077492,2.323074 4.264862,4.488624 6.488641,6.62373 2.032932,1.955112 3.951471,4.057028 5.853762,6.174814 2.012997,2.291681 3.782052,4.846281 5.675308,7.267071 1.343377,1.75711 3.35442,3.50827 3.348894,6.09482 -9.91e-4,0.50326 -0.134903,0.99464 -0.202352,1.49195 -1.038403,3.12532 -3.124095,5.52484 -5.244207,7.73546 -2.308731,2.26681 -4.537291,4.63551 -6.932073,6.7839 -2.700195,2.27071 -5.303185,4.68053 -7.808459,7.22527 -2.010927,2.05527 -3.863165,4.30001 -5.911667,6.30674 -2.170772,1.88302 -4.357366,3.73087 -6.432531,5.75265 -2.121845,2.41272 -4.588101,4.33638 -6.954686,6.40875 -5.825194,5.72637 -12.574262,9.97829 -19.508521,13.76376 -4.408491,2.75727 -5.170996,3.24563 9.661219,-6.37012 0.367828,-0.23846 -0.721107,0.50569 -1.071988,0.77549 -1.047216,0.80521 -2.01573,1.72961 -2.99924,2.63085 -1.358571,1.1877 -2.743356,2.33936 -4.146788,3.45684 0,0 -13.0406172,5.82543 -13.0406172,5.82543 v 0 c 1.468973,-1.04946 2.8501757,-2.22975 4.2556812,-3.38304 1.35645,-1.13973 2.566112,-2.60684 4.021223,-3.58511 4.31867,-2.90341 8.666556,-5.74982 13.016802,-8.59094 0.378732,-0.24735 0.778969,-0.44892 1.168456,-0.67338 4.901627,-2.77417 1.382966,-0.82235 -9.421766,6.42301 -0.433423,0.29064 0.890025,-0.5378 1.308122,-0.85644 0.895353,-0.68237 1.729654,-1.46505 2.569488,-2.23418 0.459372,-0.42071 0.89909,-0.86872 1.348635,-1.30308 2.297716,-2.13246 4.833343,-3.89467 6.917955,-6.30768 2.031001,-2.06949 4.133214,-4.04524 6.398659,-5.77475 2.107584,-1.95363 4.024182,-4.1191 5.977615,-6.27184 2.493641,-2.60148 5.077162,-5.0863 7.807066,-7.36068 2.425918,-2.06962 4.636569,-4.40912 6.931281,-6.6629 2.072683,-2.03074 4.094355,-4.15402 5.493819,-6.87535 0.136573,-0.31608 0.330356,-0.60758 0.409719,-0.94825 0.499813,-2.14542 -1.924345,-3.83219 -2.843456,-5.25888 -1.862395,-2.40251 -3.616995,-4.92451 -5.637664,-7.15829 -1.884099,-2.08731 -3.788529,-4.15285 -5.798192,-6.083141 -2.209948,-2.141503 -4.32361,-4.394634 -6.488034,-6.593864 -1.94289,-1.780449 -4.016593,-3.30526 -6.306337,-4.448194 -2.002506,-1.177616 -3.580819,-1.853201 -5.862,-1.616035 -2.103409,-0.03593 -4.208174,-0.05521 -6.311156,0.01532 -1.05027,0.06433 -2.119706,0.101735 -3.145129,0.40241 -4.217024,1.23652 -12.9533533,10.111882 9.58106,-6.680748 -2.299192,1.306668 -4.080435,3.375359 -5.655206,5.671105 -1.964416,2.758478 -3.904767,5.531397 -5.970706,8.192813 0,0 -12.872563,6.253294 -12.872563,6.253294 z"
           id="path825"
           style="fill:#000000;fill-opacity:1;stroke:#000000;stroke-width:7.95767641;stroke-linejoin:bevel;stroke-miterlimit:4;stroke-dasharray:none;stroke-dashoffset:0;stroke-opacity:1" />
        <path
           inkscape:connector-curvature="0"
           d="m 64.311373,112.15739 c 1.556144,-2.38015 2.750927,-5.31122 4.027966,-8.10373 0.933452,-2.19271 2.035705,-4.08656 3.266568,-5.789689 4.006278,-7.195109 8.211868,-7.606878 12.700532,-11.286664 3.937965,-3.841624 -4.569259,4.458762 -6.305501,6.119307 -0.4618,0.441665 0.87058,-1.030477 1.329108,-1.481861 8.62934,-8.494937 5.496349,-6.701388 9.267938,-8.763252 1.490041,-0.433962 3.017472,-0.623844 4.517516,-0.287087 1.724727,0.256844 3.345316,0.656993 4.896384,2.002004 1.807579,1.683216 3.465576,3.755749 5.060506,5.960932 1.66033,2.359854 3.34016,4.678067 4.99295,7.053861 1.50072,1.836926 2.38551,4.470209 3.3348,7.081219 0.88683,2.80215 1.86387,5.49728 2.87198,8.17576 0.73322,2.27762 1.56868,4.43749 2.12142,6.86559 0.55106,2.06544 0.85382,4.24965 1.06257,6.47698 0.16564,2.0644 0.13553,4.1529 0.13681,6.23084 -0.032,3.11843 -0.0294,6.23705 -0.0215,9.35581 0.16413,3.01179 -0.40901,5.71233 -1.0484,8.44982 -0.50953,2.29037 -1.51556,4.07756 -2.56078,5.70534 -3.63052,4.81471 -7.74345,8.58386 -11.99684,11.58017 -1.48409,1.01739 -3.054253,1.56671 -4.64055,1.85259 -1.2832,0.15166 -2.574794,0.93625 -3.721268,1.91748 0,0 7.386158,-9.9081 7.386158,-9.9081 v 0 c 1.25942,-0.76611 2.53486,-1.45485 3.88184,-1.57277 1.53033,-0.40609 3.02991,-1.05342 4.44712,-2.14001 3.19267,-2.3101 6.64707,-6.29063 -5.90717,6.19489 -1.52744,1.51907 3.42407,-3.14673 1.84809,-1.922 1.03307,-1.45581 2.067,-3.01958 2.74403,-5.00719 0.5924,-2.59692 1.40897,-5.03155 1.21785,-7.93093 0.0126,-3.10928 0.0234,-6.21851 -0.005,-9.32765 -0.003,-2.0072 -6.7e-4,-4.0189 -0.10033,-6.02042 -0.14402,-2.13543 -0.4098,-4.22178 -0.94508,-6.18519 -0.49421,-2.35371 -1.32219,-4.39666 -1.9972,-6.60593 -0.99299,-2.69989 -1.96302,-5.4094 -2.86467,-8.20088 -0.90516,-2.48175 -1.77957,-4.90106 -3.19376,-6.6657 -1.604892,-2.4301 -3.290874,-4.69292 -4.935827,-7.042956 -1.56293,-2.10455 -3.20203,-4.071827 -4.994117,-5.579771 -1.496008,-1.064196 -3.093173,-1.295395 -4.698405,-1.539422 -1.443071,-0.05141 -2.926075,0.01404 -4.288596,0.91035 -3.121086,2.588098 -0.901671,0.775844 6.885737,-6.886934 0.219599,-0.216086 -0.43984,0.431192 -0.652186,0.667244 -0.242992,0.270115 -0.462895,0.599599 -0.712995,0.850329 -8.253272,8.274205 -5.86709,6.223947 -9.733163,9.477481 -0.908466,0.650728 -1.838601,1.190365 -2.749495,1.827642 -3.001909,2.100187 -7.194311,8.203477 6.112773,-6.278421 -1.323405,1.450599 -2.462759,3.311223 -3.423812,5.428417 -1.295277,2.745681 -2.443371,5.705681 -3.900574,8.216231 0,0 -8.713384,6.12627 -8.713384,6.12627 z"
           id="path827"
           style="fill:#000000;fill-opacity:1;stroke:#000000;stroke-width:6.53107882;stroke-linejoin:bevel;stroke-miterlimit:4;stroke-dasharray:none;stroke-dashoffset:0;stroke-opacity:1" />
      </g>
    </g>
  </g>
</svg>
