<?xml version="1.0" encoding="UTF-8" standalone="no"?>
<!-- Created with Inkscape (http://www.inkscape.org/) -->

<svg
   xmlns:dc="http://purl.org/dc/elements/1.1/"
   xmlns:cc="http://creativecommons.org/ns#"
   xmlns:rdf="http://www.w3.org/1999/02/22-rdf-syntax-ns#"
   xmlns:svg="http://www.w3.org/2000/svg"
   xmlns="http://www.w3.org/2000/svg"
   xmlns:sodipodi="http://sodipodi.sourceforge.net/DTD/sodipodi-0.dtd"
   xmlns:inkscape="http://www.inkscape.org/namespaces/inkscape"
   width="210mm"
   height="297mm"
   viewBox="0 0 210 297"
   version="1.1"
   id="svg8"
   sodipodi:docname="wrong-shra.svg"
   inkscape:version="0.92.4 (5da689c313, 2019-01-14)"
   inkscape:export-filename="/home/pi/gh/writings/sanskrit/wrong-shra.png"
   inkscape:export-xdpi="75"
   inkscape:export-ydpi="75">
  <defs
     id="defs2" />
  <sodipodi:namedview
     id="base"
     pagecolor="#ffffff"
     bordercolor="#666666"
     borderopacity="1.0"
     inkscape:pageopacity="0.0"
     inkscape:pageshadow="2"
     inkscape:zoom="0.35"
     inkscape:cx="-185.71429"
     inkscape:cy="667.14286"
     inkscape:document-units="mm"
     inkscape:current-layer="g4560"
     showgrid="false"
     inkscape:snap-text-baseline="false"
     inkscape:window-width="1920"
     inkscape:window-height="1012"
     inkscape:window-x="0"
     inkscape:window-y="36"
     inkscape:window-maximized="1" />
  <metadata
     id="metadata5">
    <rdf:RDF>
      <cc:Work
         rdf:about="">
        <dc:format>image/svg+xml</dc:format>
        <dc:type
           rdf:resource="http://purl.org/dc/dcmitype/StillImage" />
      </cc:Work>
    </rdf:RDF>
  </metadata>
  <g
     inkscape:label="Layer 1"
     inkscape:groupmode="layer"
     id="layer1">
    <g
       id="g4560"
       transform="matrix(0.80152179,0,0,0.70102422,11.000671,18.986828)"
       inkscape:export-xdpi="75"
       inkscape:export-ydpi="75">
      <path
         inkscape:connector-curvature="0"
         d="m 42.221489,47.273581 c 1.428491,-1.889429 3.069899,-3.604663 4.694917,-5.320964 3.510762,-3.7814 8.210263,-6.163737 12.816746,-8.372532 1.37998,-0.411211 2.826367,-0.434509 4.253322,-0.455731 1.383536,-0.148904 2.504289,0.09999 3.701858,0.795783 1.625552,0.740088 2.836035,1.91392 3.923662,3.304238 1.453136,1.542567 2.165745,3.490057 3.015704,5.385963 0.876184,1.507993 1.564226,3.074008 1.900589,4.790015 0.245709,1.566891 0.267041,3.156303 0.281198,4.738929 0.02042,1.208374 0.0041,2.416988 -0.0031,3.62542 -0.02436,1.210704 0.04527,2.422039 -0.05153,3.629744 -0.10356,0.634507 -0.184779,1.300773 -0.564917,1.843185 -0.18099,0.258253 -0.805553,0.824992 -1.061874,0.97895 -3.079815,1.849852 -6.194909,3.639185 -9.292365,5.45878 -1.639941,0.570358 -3.355579,0.932347 -5.061203,1.250305 -1.730955,0.241967 -3.335161,1.01011 -4.989631,1.559387 -1.832015,0.515152 -3.721077,0.731432 -5.615517,0.808913 -1.419551,0.0564 -2.839962,0.04765 -4.260194,0.0525 -1.205595,0.09266 -1.861411,-0.02348 -2.847427,-0.749932 -0.903895,-1.254086 -1.221876,-2.800126 -1.471312,-4.300864 -0.185049,-1.218229 -0.318447,-2.45548 -0.129119,-3.679512 1.010933,-3.772369 5.749831,-4.138221 9.345235,-5.971494 0.207319,-0.105711 1.834943,1.120439 2.028109,1.26264 1.661474,1.189557 3.103987,2.626837 4.534092,4.082816 1.432873,1.585886 3.359169,2.564285 5.085312,3.780516 1.614128,1.167292 3.063099,2.540948 4.491214,3.927406 1.380786,1.243832 2.512682,2.719736 3.704524,4.139293 1.472752,1.639777 2.747136,3.440268 4.061248,5.207395 0.988297,1.595544 2.390896,2.579541 3.940635,3.534754 1.514811,0.814696 2.960553,1.78248 4.60025,2.324529 0.678577,0.336483 1.413966,0.498561 2.144799,0.668266 0,0 -8.264414,5.747173 -8.264414,5.747173 v 0 C 76.380738,91.106523 75.6322,90.884832 74.91455,90.56975 73.282875,89.881565 71.792391,88.906237 70.237552,88.062828 68.592089,87.03887 67.183235,85.848584 66.115853,84.189262 64.826969,82.426746 63.579789,80.628747 62.0646,79.050031 60.895411,77.656916 59.783933,76.209618 58.42525,74.9931 57.030021,73.64683 55.61168,72.316092 54.028756,71.193541 52.250179,69.95461 50.31036,68.89356 48.845658,67.258249 c -1.38952,-1.40931 -2.80583,-2.789682 -4.452735,-3.896304 -0.367065,-0.223647 -0.809089,-0.565659 -1.268538,-0.613156 -0.122748,-0.01269 -0.464352,0.155887 -0.359011,0.09104 14.860682,-9.148216 10.522618,-6.641131 7.804487,-4.631708 -0.387215,1.089825 -0.222409,2.212699 -0.103167,3.3471 0.169476,1.20493 0.346191,2.539946 1.101833,3.531258 0.766047,0.427304 1.650799,0.240214 2.496993,0.281965 1.392018,0.01307 2.785504,0.0068 4.175854,-0.06863 1.843089,-0.146847 3.683522,-0.395664 5.438464,-1.012757 1.667718,-0.588626 3.317604,-1.254128 5.085586,-1.467736 1.660364,-0.359284 3.369066,-0.679925 4.876473,-1.502751 -2.616484,1.550096 -5.232967,3.100192 -7.849451,4.650289 0.379482,-0.270205 1.266661,-0.71624 1.565767,-1.041176 0.244783,-0.265921 0.286796,-0.717495 0.354245,-1.041705 0.247996,-1.14423 0.05612,-2.343149 0.119958,-3.507652 9.88e-4,-1.2093 0.0017,-2.41868 0.02454,-3.62781 9.88e-4,-1.529217 0.0091,-3.064681 -0.185615,-4.584211 -0.280814,-1.648514 -0.913867,-3.150243 -1.757963,-4.590138 -0.815382,-1.816109 -1.452937,-3.704578 -2.875101,-5.163966 -1.054711,-1.251968 -2.236851,-2.258605 -3.752388,-2.913424 -1.105437,-0.472311 -2.229924,-0.440746 -3.416289,-0.381675 -1.362812,0.06363 -2.754697,0.151961 -3.982966,0.814594 -3.029693,1.698594 -3.616374,2.032925 7.27471,-4.298491 0.250393,-0.145565 -0.484063,0.318653 -0.725436,0.478995 -0.852803,0.566513 -1.652032,1.181336 -2.31705,1.975289 -1.601589,1.659982 -3.193192,3.332622 -4.666463,5.111295 0,0 -9.230869,4.076795 -9.230869,4.076795 z"
         id="path4548"
         style="fill:#000000;fill-opacity:1;stroke:none;stroke-width:1.43218338;stroke-linejoin:bevel;stroke-miterlimit:4;stroke-dasharray:none;stroke-dashoffset:0;stroke-opacity:1"
         inkscape:export-xdpi="75"
         inkscape:export-ydpi="75" />
      <path
         inkscape:connector-curvature="0"
         d="m 66.987033,13.871602 c -0.02228,2.304667 -0.03335,4.599278 -0.242946,6.895765 -0.225033,1.992461 -0.380817,3.990258 -0.478816,5.992628 -0.05896,1.848763 -0.07768,3.698785 -0.05568,5.548331 -0.01826,0.270796 -0.03652,0.541589 -0.05479,0.812385 0,0 -10.035943,4.964781 -10.035943,4.964781 v 0 c 0.04171,-0.233314 0.08341,-0.466627 0.125117,-0.699942 0.02336,-1.865066 -2.57e-4,-3.73055 0.05283,-5.59522 0.05949,-2.034926 0.251325,-4.060716 0.504796,-6.080465 0.241784,-2.245278 0.295135,-4.48652 0.187547,-6.74409 0,0 9.997877,-5.094173 9.997877,-5.094173 z"
         id="path4550"
         style="fill:#000000;fill-opacity:1;stroke:none;stroke-width:1.58700001;stroke-linejoin:bevel;stroke-miterlimit:4;stroke-dasharray:none;stroke-dashoffset:0;stroke-opacity:1"
         inkscape:export-xdpi="75"
         inkscape:export-ydpi="75" />
      <path
         inkscape:connector-curvature="0"
         d="m 109.07964,13.796767 c 0.19662,2.553649 0.41277,5.105169 0.55468,7.66292 0.01,1.991106 -0.18293,3.93935 -0.92242,5.783261 -0.68808,1.795975 -1.3167,3.620078 -1.90348,5.454566 -0.57723,1.560697 -1.04877,3.140813 -1.29422,4.793438 -0.10162,1.825538 -0.59267,3.555528 -1.20689,5.255771 -0.48441,1.968058 -1.44635,3.715302 -2.32899,5.50584 -0.72169,1.687735 -1.76557,3.175973 -2.887177,4.59682 -3.661949,3.908011 -8.621012,6.438636 -13.56384,8.236831 -1.526597,0.550388 -3.052274,1.010333 -4.645829,1.305847 -1.976493,0.362 -2.505468,0.04379 -4.263601,-0.827721 -1.666283,-0.762779 -3.071178,-1.971278 -4.307756,-3.335805 -1.167381,-1.472331 -2.193478,-3.05965 -2.809787,-4.860955 -0.418845,-1.061653 -0.66812,-2.121333 -0.329184,-3.230212 7.237726,-5.338825 7.057958,-5.809318 12.437897,-5.738855 1.305599,0.01809 2.611282,0.03378 3.917012,0.03028 2.238306,0.713208 4.137203,2.184006 5.894044,3.741196 1.779932,1.61931 3.307057,3.502128 5.067601,5.140873 1.695727,1.53156 3.58152,2.808343 5.22222,4.406862 1.5164,1.779142 2.72426,3.800944 4.11283,5.683947 1.45227,2.347316 2.73777,4.795597 4.24309,7.109523 1.62152,2.009479 2.85995,4.279357 4.19302,6.492205 0.94778,1.561214 2.10904,2.958398 3.30021,4.3217 0,0 -9.28659,5.826158 -9.28659,5.826158 v 0 c -1.22413,-1.420729 -2.41182,-2.880418 -3.37839,-4.506904 -1.30848,-2.214277 -2.55636,-4.455283 -4.14493,-6.475674 -1.473566,-2.306935 -2.776823,-4.721947 -4.243601,-7.030213 -1.340898,-1.840298 -2.527693,-3.806845 -4.035384,-5.509925 -1.644442,-1.583675 -3.542961,-2.840281 -5.195199,-4.415136 -1.706312,-1.672372 -3.293236,-3.472605 -5.038343,-5.103366 -1.60073,-1.387972 -3.405466,-2.847055 -5.559954,-3.025811 -1.30767,-0.01565 -2.615547,-0.01916 -3.923292,-0.0163 -4.595462,0.08146 -8.353698,3.283495 6.623276,-5.178389 -1.137645,-0.159825 -0.532142,1.434635 -0.308737,2.019576 0.49469,1.67019 1.420978,3.126365 2.513024,4.448823 1.204176,1.223631 2.53883,2.28405 4.106061,2.965311 1.388992,0.596688 2.449345,0.598146 3.90781,0.238499 1.540457,-0.342238 3.020157,-0.894062 4.504185,-1.435599 3.687078,-1.573497 7.167974,-4.227152 -6.970802,4.473282 -0.872163,0.536694 2.846022,-1.545151 1.924464,-1.34644 1.148717,-1.331138 2.268374,-2.714314 3.012532,-4.339596 0.806005,-1.803668 1.977968,-3.429354 2.394182,-5.406094 0.553251,-1.64206 1.240512,-3.242443 1.267567,-5.018259 0.191057,-1.718486 0.553927,-3.397055 1.238719,-4.984626 0.551083,-1.872568 1.27791,-3.681731 1.828051,-5.555763 0.216169,-0.471537 0.478762,-0.921769 0.660418,-1.408692 0.462797,-1.240538 0.373809,-2.631599 0.535167,-3.929163 -0.08876,-2.523829 -0.217408,-5.052175 -0.576924,-7.552525 0,0 9.66726,-5.261491 9.66726,-5.261491 z"
         id="path4552"
         style="fill:#000000;fill-opacity:1;stroke:none;stroke-width:1.57458413;stroke-linejoin:bevel;stroke-miterlimit:4;stroke-dasharray:none;stroke-dashoffset:0;stroke-opacity:1"
         inkscape:export-xdpi="75"
         inkscape:export-ydpi="75" />
      <path
         style="fill:#bc0000;fill-opacity:1;stroke:#000000;stroke-width:9.32548523;stroke-linecap:butt;stroke-linejoin:miter;stroke-miterlimit:4;stroke-dasharray:none;stroke-opacity:1"
         d="M 46.131472,18.923831 C 121.16241,13.83873 121.16241,13.83873 121.16241,13.83873"
         id="path4562"
         inkscape:connector-curvature="0"
         inkscape:export-xdpi="75"
         inkscape:export-ydpi="75" />
    </g>
  </g>
</svg>
