<?xml version="1.0" encoding="UTF-8" standalone="no"?>
<!-- Created with Inkscape (http://www.inkscape.org/) -->

<svg
   xmlns:dc="http://purl.org/dc/elements/1.1/"
   xmlns:cc="http://creativecommons.org/ns#"
   xmlns:rdf="http://www.w3.org/1999/02/22-rdf-syntax-ns#"
   xmlns:svg="http://www.w3.org/2000/svg"
   xmlns="http://www.w3.org/2000/svg"
   xmlns:sodipodi="http://sodipodi.sourceforge.net/DTD/sodipodi-0.dtd"
   xmlns:inkscape="http://www.inkscape.org/namespaces/inkscape"
   width="210mm"
   height="297mm"
   viewBox="0 0 210 297"
   version="1.1"
   id="svg950"
   inkscape:version="0.92.4 (5da689c313, 2019-01-14)"
   sodipodi:docname="deepa-sign.svg">
  <defs
     id="defs944" />
  <sodipodi:namedview
     id="base"
     pagecolor="#ffffff"
     bordercolor="#666666"
     borderopacity="1.0"
     inkscape:pageopacity="0.0"
     inkscape:pageshadow="2"
     inkscape:zoom="0.74920735"
     inkscape:cx="396.85039"
     inkscape:cy="561.25984"
     inkscape:document-units="mm"
     inkscape:current-layer="layer1"
     showgrid="false"
     inkscape:window-width="1920"
     inkscape:window-height="1028"
     inkscape:window-x="0"
     inkscape:window-y="26"
     inkscape:window-maximized="1" />
  <metadata
     id="metadata947">
    <rdf:RDF>
      <cc:Work
         rdf:about="">
        <dc:format>image/svg+xml</dc:format>
        <dc:type
           rdf:resource="http://purl.org/dc/dcmitype/StillImage" />
        <dc:title />
      </cc:Work>
    </rdf:RDF>
  </metadata>
  <g
     inkscape:label="Layer 1"
     inkscape:groupmode="layer"
     id="layer1">
    <path
       style="opacity:0.41000001;fill:#2e8e7e;fill-opacity:1;stroke:#d201ec;stroke-width:1;stroke-linejoin:round;stroke-miterlimit:4;stroke-dasharray:none;stroke-dashoffset:0;stroke-opacity:1"
       id="path1495"
       d="m 13.508475,73.930758 c 0.08086,1.839867 -0.600733,3.53296 -1.189728,5.230923 -0.174464,0.502952 -0.322355,1.13546 -0.450699,1.633839 -0.314654,0.832983 -0.770148,1.607021 -1.090149,2.437599 -0.16451,0.42699 -0.263369,0.877194 -0.424482,1.305478 -0.18691,0.496861 -0.4353437,0.96929 -0.6186578,1.467487 -0.3356288,0.912151 -0.5948905,1.850832 -0.9156481,2.76832 C 8.6312485,89.62337 8.3031244,90.245365 7.4918529,90.61362 7.4513099,90.63201 7.1871141,90.70068 7.1185169,90.59531 6.993552,90.403372 6.9024877,90.19138 6.7944735,89.989415 6.5774627,89.358194 6.3023302,88.288512 6.3605777,87.602048 c 0.015198,-0.17912 0.1151747,-0.341296 0.1542484,-0.516763 0.084764,-0.380642 0.066307,-0.501636 0.066271,-0.872545 0.034149,-0.658495 -0.1224251,-1.457365 0.9934413,-1.148178 0.5323359,0.1475 1.3754561,1.56663 1.6847691,1.994953 1.1288275,0.835827 1.9732595,1.971286 3.2638645,2.598404 0.511315,0.248454 1.080882,0.352846 1.618342,0.538078 2.355081,0.811654 0.917687,0.469095 3.433477,0.873106 1.334458,0.513771 2.530552,0.562642 3.916617,0.408311 0.167719,-0.01868 0.339192,-0.01619 0.503143,-0.05617 0.675916,-0.164848 0.08305,-0.197752 0.660586,-0.116501 0.513339,-0.118481 1.45637,-0.241205 1.778424,-0.739979 0.129555,-0.200644 0.148092,-0.800039 0.20514,-0.969399 0.08515,-0.252775 0.230896,-0.480904 0.346344,-0.721357 0.980664,-1.034246 1.895292,-2.173158 2.127371,-3.629419 0.06389,-0.400937 -0.01463,-0.811898 -0.01524,-1.217893 -0.0033,-2.288043 0.0414,-0.305433 -0.02397,-2.462094 -0.07899,-1.028046 0.09526,-2.06847 -0.01498,-3.095236 -0.04853,-0.451995 -0.162473,-0.894778 -0.226502,-1.34484 -0.376431,-2.645968 0.06031,-0.04238 -0.212203,-1.626211 -0.625255,-0.912344 -0.742741,-2.050775 -1.231886,-3.021692 -0.923231,-1.483456 -0.521194,-0.734373 -1.220203,-2.239635 -0.152323,-0.206002 -0.304646,-0.412006 -0.456969,-0.618011 -0.08436,-0.170206 -0.144228,-0.354938 -0.253089,-0.510617 -0.156609,-0.223961 -0.37046,-0.402828 -0.537109,-0.619424 -0.467799,-0.608001 -0.824223,-1.302721 -1.257499,-1.93576 -0.34455,-0.790138 -0.321816,-1.069729 -1.293546,-1.030962 -0.250561,0.01 -0.491811,0.117578 -0.742553,0.120592 -0.218027,0.0026 -0.429456,-0.07692 -0.645823,-0.103905 -0.192577,-0.02402 -0.386762,-0.03265 -0.580143,-0.04898 -1.266002,-0.268269 -2.375827,0.133953 -3.570626,0.485069 -1.382006,0.406127 -0.501289,-0.01871 -1.745278,0.734401 -0.583905,0.78526 -0.78554,1.742273 -1.059549,2.657163 -0.244271,0.815604 -0.380627,0.997011 -0.346788,1.866392 0.05151,0.142078 0.103024,0.284154 0.154536,0.426233 -0.03484,0.154765 -0.147229,0.311518 -0.104512,0.464293 0.01949,0.06969 1.216672,0.995866 1.452355,1.214792 1.017766,0.659564 2.084573,1.475457 3.376451,1.408883 0.666596,-0.03435 1.070895,-0.248248 1.661616,-0.487357 0.946821,-1.034439 0.968674,-1.703973 2.553838,-1.312328 0.182691,-0.03517 0.365382,-0.07033 0.548074,-0.105495 0,0 -0.220723,0.194051 -0.220723,0.194051 v 0 c -0.184756,0.03251 -0.369513,0.06503 -0.554269,0.09754 -0.199225,-0.02061 -0.400838,-0.02482 -0.597676,-0.06183 -0.224101,-0.04214 -0.323155,-0.20974 -0.552982,-0.04456 -0.551247,0.3962 -0.611215,1.249608 -1.382148,1.423027 -0.815307,0.321762 -1.699173,0.595749 -2.595612,0.449013 -0.957289,-0.156696 -1.687497,-0.898657 -2.482767,-1.378471 -0.92127,-0.691015 -1.384145,-0.867949 -1.628508,-2.057963 0.108287,-0.988997 0.391773,-1.879444 0.701686,-2.824311 0.123638,-0.376946 0.178702,-0.787985 0.387615,-1.125225 0.254947,-0.411554 0.650542,-0.717143 0.975813,-1.075711 1.22397,-0.695034 0.294699,-0.251389 1.711943,-0.69346 0.743116,-0.231796 1.359235,-0.538573 2.142373,-0.614037 0.492419,-0.04745 0.987453,0.155784 1.480222,0.107246 0.194217,0.02873 1.052938,0.160891 1.2028,0.159046 0.514474,-0.0063 0.919929,-0.253116 1.428713,0.01815 0.330741,0.176345 0.280032,0.78259 0.617771,0.939546 0.03262,0.05704 0.724078,1.269918 0.763534,1.323813 0.154692,0.211302 0.372491,0.371333 0.526282,0.58329 0.160166,0.220745 0.253408,0.484812 0.410479,0.707771 1.243735,1.765454 -0.644186,-1.312412 0.779672,1.086514 0.802058,1.303751 0.549656,0.77351 1.153679,2.286852 0.26707,0.669124 0.434031,1.380435 0.756855,2.024513 0.103474,0.206449 0.274371,0.371527 0.411555,0.557289 0.05335,0.128389 0.106693,0.256781 0.160039,0.38517 0.290988,1.454753 -0.140375,-0.807226 0.197225,1.637331 0.06203,0.449144 0.204891,0.886209 0.24642,1.337707 0.0312,0.339249 -0.03157,0.680945 -0.02941,1.021617 0.0232,3.6576 0.08518,-1.883899 0.0258,2.083575 -5.29e-4,0.398807 -0.0097,0.797693 -0.0016,1.196417 0.0094,0.463704 0.116107,2.034805 0.03335,2.500508 -0.257328,1.448126 -1.144549,2.602365 -2.130508,3.636537 -0.114666,0.23617 -0.270643,0.45643 -0.343998,0.708509 -0.107812,0.37048 0.113106,0.66779 -0.192187,0.990851 -0.617749,0.653706 -1.459723,0.952514 -2.316854,1.099138 -1.099145,0.06541 0.469378,-0.06547 -0.718731,0.172132 -0.151756,0.03035 -0.309382,0.0094 -0.464023,0.0155 -0.297012,0.0117 -0.5942,0.05531 -0.890925,0.03779 -0.276165,-0.0163 -3.063913,-0.411467 -3.080636,-0.413795 -2.39225,-0.552993 -0.981202,-0.169186 -3.345228,-0.950879 C 13.36106,90.201958 12.783439,90.10379 12.26774,89.851689 11.01973,89.241602 10.036726,88.128352 8.9878962,87.251621 8.7781809,87.015882 8.5684653,86.780147 8.3587499,86.544411 8.2123898,86.302513 8.0991648,86.03716 7.9196696,85.818717 7.7477942,85.609548 7.5104703,85.463723 7.3159892,85.275387 7.2234847,85.185805 7.1743609,84.927103 7.0599204,84.986137 6.6764405,85.18396 6.8550665,85.751431 6.8972038,86.021946 c -0.1591636,1.273617 -0.371188,2.529202 0.2380985,3.734633 0.090822,0.204804 0.1734473,0.413441 0.2724653,0.614411 0.013068,0.02652 0.032112,0.06452 0.061668,0.06375 0.099804,-0.0026 0.1907445,-0.07701 0.2904988,-0.07293 0.029639,0.0013 -0.050497,0.105579 -0.030628,0.08355 0.6871935,-0.76177 0.4849537,-0.53434 0.9046593,-1.564937 0.090361,-0.404855 0.1545347,-0.816459 0.2710842,-1.214564 0.6711907,-2.292633 1.6938571,-4.475472 2.6169441,-6.670511 0.159334,-0.551119 0.285722,-1.112885 0.478499,-1.653217 0.09486,-0.265877 0.227152,-0.517372 0.322373,-0.783119 0.51806,-1.445834 0.859577,-2.949345 0.95243,-4.485384 0,0 0.233195,-0.142901 0.233195,-0.142901 z"
       inkscape:connector-curvature="0" />
    <path
       style="opacity:0.41000001;fill:#2e8e7e;fill-opacity:1;stroke:#d201ec;stroke-width:1;stroke-linejoin:round;stroke-miterlimit:4;stroke-dasharray:none;stroke-dashoffset:0;stroke-opacity:1"
       id="path1497"
       d="m 39.710608,66.119178 c 0.07473,6.53264 -2.64e-4,-2.972842 -0.05978,3.479856 -0.0029,0.312957 0.120057,0.631084 0.0553,0.937281 -0.01797,0.0849 -1.099656,1.354989 -1.183061,1.465199 -0.928539,1.853218 -0.416171,0.509916 -0.788257,2.53207 -0.07487,0.406916 -0.217464,0.80013 -0.281628,1.208871 -0.221255,0.515805 0.10741,1.042273 0.03187,1.555274 -0.05609,0.380923 -0.226288,0.73606 -0.339431,1.104093 -0.147262,0.455506 -0.323091,0.902748 -0.44178,1.36652 -0.11185,0.437052 -0.129546,0.895223 -0.24842,1.330417 -0.411912,1.50799 -1.067935,2.632829 -1.901611,3.916522 -0.03505,0.09494 -0.113657,0.183972 -0.105148,0.284816 0.0099,0.117189 0.139663,0.20003 0.155887,0.316513 0.09132,0.655664 -0.282763,1.469715 -0.68844,1.964703 -0.150678,0.183848 -0.353134,0.318296 -0.529701,0.477446 -0.302671,0.722326 -1.366214,0.51658 -1.762176,1.055494 -0.388794,0.324324 -0.537519,0.763913 -0.718587,1.214729 0,0 -0.37556,0.209534 -0.37556,0.209534 v 0 c 0.0946,-0.152347 0.210984,-0.293164 0.283816,-0.457041 0.361794,-0.814052 -0.35641,0.08858 0.500406,-0.812409 0.353653,-0.280524 0.624192,-0.558099 1.04334,-0.717198 0.09694,-0.03679 0.206592,-0.02606 0.306144,-0.05505 0.08673,-0.02524 0.159393,-0.09651 0.249166,-0.106591 0.02622,-0.0029 -0.02267,0.09742 -0.0038,0.07903 0.08049,-0.07835 0.133789,-0.180461 0.200684,-0.270692 0.55834,-0.538308 1.012857,-1.014535 1.15203,-1.811465 0.0751,-0.43004 -0.103761,-0.778097 -0.04286,-1.192744 0.205398,-0.29578 0.851553,-1.215464 0.958154,-1.43065 0.156374,-0.315658 0.228706,-0.666506 0.35347,-0.995942 0.18647,-0.492365 0.418804,-0.96792 0.580091,-1.469099 0.145693,-0.45272 0.225811,-0.923978 0.338714,-1.385967 0.15208,-0.457461 0.30416,-0.914923 0.45624,-1.372388 0.122523,-0.370374 0.308732,-0.725472 0.36757,-1.111126 0.03763,-0.24662 -0.07751,-0.494252 -0.0846,-0.743624 -0.02816,-0.990428 0.150884,-2.38206 0.424823,-3.31021 0.118504,-0.401521 0.327607,-0.770533 0.49141,-1.155798 0.12341,-0.144764 1.216811,-1.273329 1.264706,-1.477026 0.07664,-0.325932 0.04347,-0.668401 0.05213,-1.003112 0.04225,-1.633337 0.01487,-1.776352 -0.03393,-3.42243 0,0 0.322792,-0.197806 0.322792,-0.197806 z"
       inkscape:connector-curvature="0" />
    <path
       style="opacity:0.41000001;fill:#2e8e7e;fill-opacity:1;stroke:#d201ec;stroke-width:1;stroke-linejoin:round;stroke-miterlimit:4;stroke-dasharray:none;stroke-dashoffset:0;stroke-opacity:1"
       id="path1499"
       d="m 38.69542,65.238537 c 0.587336,-0.891503 1.395527,-2.618015 2.642479,-2.830441 0.291576,-0.04967 0.635537,0.602702 0.836192,0.809032 1.609016,0.126606 2.838733,0.348673 4.116546,1.404382 0.06759,0.197948 0.738915,0.786955 0.825958,0.938112 0.06454,0.112067 0.02704,0.262257 0.08248,0.379097 0.498451,1.050605 0.04358,-0.437404 0.349244,0.694622 -0.07828,1.175398 -0.05609,2.353791 -0.131731,3.530943 -0.145301,0.686263 -0.186237,1.383435 -0.570621,1.991215 -0.07491,0.118438 -0.193395,0.204113 -0.274725,0.318235 -0.141711,0.198856 -0.408641,0.69242 -0.528608,0.908122 -0.09224,0.188336 -0.14959,0.398227 -0.276725,0.565007 -0.593889,0.779092 -2.007008,2.003237 -3.085084,1.675151 -0.144963,-0.04412 -0.267433,-0.142555 -0.401151,-0.213831 -0.967502,-0.192064 -1.994725,-0.146984 -2.97243,-0.01998 -0.207266,0.09147 -0.37647,-0.08242 -0.567973,-0.08797 -0.456885,-0.01323 -0.954193,0.218091 0.01381,-0.222078 0.926219,-0.525428 1.847046,-1.075417 2.866343,-1.405083 0.463161,-0.149799 0.942327,-0.246306 1.40643,-0.393158 1.273172,0.04926 2.512107,-0.455509 3.787359,-0.378891 0.292021,0.01754 0.573093,0.117906 0.859637,0.176861 0.582715,0.187084 0.934582,0.176808 1.292635,0.705035 0.153299,0.226163 0.198278,0.510373 0.324442,0.752724 0.387692,0.74472 0.874205,1.431179 1.405491,2.076857 0.939506,0.940652 0.879713,1.529758 0.822574,2.82534 -0.05441,1.233757 0.06276,0.736568 -0.351187,1.720027 -0.470969,0.600213 -0.472379,0.722874 -1.309293,1.085099 -0.184121,0.07969 -0.397415,0.05534 -0.596123,0.08301 -0.260059,0.08115 -0.531934,0.131241 -0.780176,0.243456 -0.329976,0.149159 -1.027388,0.642117 -1.34202,0.856806 -1.094544,0.204869 -2.115214,0.701931 -3.214407,0.888206 -0.958191,0.16238 -1.905741,-0.06584 -2.819739,-0.313695 -0.312039,-0.08302 -0.624078,-0.166045 -0.936119,-0.249069 -0.308459,-0.07004 -0.619673,-0.128907 -0.925378,-0.210124 -0.612841,-0.162814 -0.547166,-0.255767 -1.108511,-0.238977 -0.456118,0.01365 -0.909752,0.07516 -1.3656,0.09591 -0.533638,-0.05724 -1.066104,0.238842 -1.599099,0.126365 -0.566007,-0.119446 -1.182616,-0.46274 -1.703991,-0.70276 -0.220564,-0.06146 -0.442521,-0.118136 -0.661696,-0.184393 -0.709464,-0.214463 -0.629325,-0.256133 -1.318414,-0.330848 -0.547721,-0.05939 -0.502409,0.222358 -0.901022,-0.111763 -0.11416,-0.03688 -0.228317,-0.07376 -0.342474,-0.110638 0,0 0.307054,-0.239289 0.307054,-0.239289 v 0 c 0.106812,0.04251 0.213625,0.08502 0.320437,0.127532 0.403524,0.274293 0.418978,0.02901 0.90478,0.09854 0.687702,0.09843 1.233474,0.566857 1.949294,0.548453 0.385299,0.146727 1.341948,0.610756 1.710197,0.68104 0.393293,0.07507 1.260031,-0.0868 1.61775,-0.148318 0.445434,-0.02151 0.891016,-0.08871 1.336307,-0.06443 0.135893,0.0074 0.264158,0.06936 0.399365,0.08487 0.280345,0.03215 0.571236,-0.0123 0.844571,0.0578 0.266295,0.0683 0.486259,0.262134 0.746649,0.350306 0.312478,0.10581 0.641975,0.152395 0.962962,0.228592 0.307946,0.09132 0.606353,0.225221 0.923835,0.27396 1.745324,0.267931 3.47223,-0.392192 5.107077,-0.882803 0.389641,-0.266774 0.916525,-0.650288 1.344928,-0.847053 0.277637,-0.127519 0.568817,-0.226169 0.862843,-0.309184 0.10229,-0.02888 0.746313,-0.08102 0.910037,-0.225669 0.15808,-0.139657 0.259313,-0.332763 0.388969,-0.499147 0.09634,-0.228298 0.236921,-0.44264 0.289018,-0.684895 0.157472,-0.732239 0.185248,-2.176089 -0.08144,-2.894504 -0.133242,-0.358931 -0.525619,-0.581726 -0.63762,-0.955355 -1.350491,-2.05118 0.664512,0.968396 -0.910534,-1.243682 -0.188024,-0.264067 -0.370277,-0.533723 -0.525344,-0.818393 -0.583297,-1.070827 -0.262281,-1.124712 -1.645896,-1.395148 -0.282395,-0.05789 -0.559411,-0.156806 -0.847185,-0.173657 -0.98929,-0.05793 -1.960724,0.245946 -2.932409,0.353102 -0.155951,0.0172 -0.314182,-0.01341 -0.470683,-0.0024 -0.139126,0.0099 -0.275545,0.04347 -0.413319,0.06521 -0.43122,0.116176 -0.880462,0.165235 -1.304568,0.305168 -1.039405,0.342942 -1.965864,0.945631 -2.930601,1.444842 -0.01069,-0.06569 -0.0084,-0.134898 -0.0321,-0.197072 -0.0053,-0.014 -0.04558,0.03244 -0.03061,0.03287 0.390191,0.01138 0.794094,-0.04549 1.187434,-0.01442 0.954516,-0.140978 1.971641,-0.193987 2.901847,0.09593 0.281924,0.101944 0.593521,0.257654 0.910386,0.204914 1.061479,-0.17667 1.95775,-0.962631 2.383671,-1.921502 0.06886,-0.142322 0.144103,-0.281725 0.206573,-0.426966 0.05683,-0.132133 0.06661,-0.287734 0.150945,-0.404254 0.109588,-0.151413 0.300273,-0.229603 0.414764,-0.377341 0.453741,-0.585515 0.405341,-1.283499 0.566541,-1.971045 -0.05277,-1.845889 -0.01341,0.442915 0.0379,-1.390592 0.0055,-0.194799 -0.03591,-0.389813 -0.02217,-0.5842 0.0368,-0.52057 0.198713,-1.002141 0.09832,-1.532411 -0.194394,-0.840991 -0.649038,-1.3897 -1.174652,-2.046454 -0.310324,-0.218694 -1.045077,-0.754885 -1.349946,-0.875692 -0.874427,-0.34649 -1.945503,-0.190698 -2.835273,-0.485214 -0.08276,-0.07584 -0.182668,-0.13644 -0.24829,-0.227515 -0.244824,-0.339799 -0.05752,-0.465047 -0.554815,-0.55178 -0.937617,-0.163529 -1.703179,2.032553 -2.097037,2.435066 0,0 -0.287267,0.156136 -0.287267,0.156136 z"
       inkscape:connector-curvature="0" />
    <path
       style="opacity:0.41000001;fill:#2e8e7e;fill-opacity:1;stroke:#d201ec;stroke-width:1;stroke-linejoin:round;stroke-miterlimit:4;stroke-dasharray:none;stroke-dashoffset:0;stroke-opacity:1"
       id="path1501"
       d="m 57.24413,65.407391 c 1.238261,-1.522603 2.557857,-2.954552 4.128611,-4.132667 1.996842,-1.177991 3.749993,-2.717938 5.634503,-4.062653 0.231699,-0.193636 0.487889,-0.361257 0.69509,-0.580906 0.21218,-0.224925 0.680492,-1.184111 1.15834,-1.117878 0.203523,0.02821 0.128641,0.391041 0.172578,0.591756 0.214235,0.978665 0.172974,1.229027 0.234624,2.346074 0.09761,0.541528 0.174903,1.087117 0.292838,1.624584 0.333156,1.518266 0.402267,1.231217 0.631532,2.636795 0.201419,1.234887 -0.03342,0.421875 -0.04596,1.911953 -0.0044,0.522679 0.06416,1.043427 0.09625,1.565138 0.217619,2.867456 0.25093,5.734531 0.110879,8.605173 0.03871,0.41012 0.09644,0.818885 0.116138,1.230357 0.02516,0.525566 -0.02339,1.507287 -0.03779,2.04737 -0.01574,0.590508 0.04298,1.183582 -0.0075,1.772132 -0.03054,0.355716 -0.115049,0.704717 -0.172574,1.057076 -0.220427,1.565534 -0.98428,2.963826 -1.516722,4.430903 -0.58456,1.61068 -0.01183,0.487823 -0.763077,1.796754 -0.5725,0.623369 -1.418941,1.089623 -2.299406,1.055708 -0.646581,-0.0249 -1.342231,-0.423592 -1.901772,-0.687379 -0.948526,-0.490577 -1.001263,-0.452721 -1.891017,-1.244629 -0.471458,-0.419611 -0.977963,-1.322113 -1.710669,-1.378699 -0.100867,-0.0078 -0.196545,0.04805 -0.294817,0.07207 -0.07427,0.02193 -0.225586,0.143217 -0.222803,0.06583 0.0045,-0.125801 0.155141,-0.198297 0.231177,-0.298622 0.139589,-0.184182 0.606491,-0.669224 0.533461,-0.975688 -0.03995,-0.167653 -0.152426,-0.309166 -0.22864,-0.463748 -0.09329,-0.164793 -0.186586,-0.329589 -0.279881,-0.494385 -0.01916,-0.169704 0.02442,-0.359222 -0.05743,-0.509108 -0.04966,-0.09094 -0.195273,-0.07146 -0.286475,-0.120619 -0.265102,-0.142906 -0.260512,-0.178763 -0.45456,-0.403095 0,0 0.298672,-0.214778 0.298672,-0.214778 v 0 c 0.287896,0.533728 -0.0627,0.02931 0.494406,0.373507 0.30598,0.189045 0.12246,0.405244 0.242533,0.713801 0.06846,0.175916 0.207891,0.315134 0.311835,0.472702 0.0027,0.0076 0.255763,0.644011 0.218279,0.746717 -0.04668,0.127926 -0.16346,0.217885 -0.242456,0.328808 -0.09597,0.134755 -0.177432,0.280255 -0.282371,0.408144 -0.05507,0.06711 -0.163995,0.09185 -0.194564,0.173101 -0.01482,0.03941 0.08399,0.0061 0.125981,0.0092 0.130241,-0.04198 0.254193,-0.135112 0.390723,-0.125923 0.330513,0.02225 0.725721,0.50092 0.894199,0.662768 0.800077,0.768585 1.597147,1.559568 2.620455,2.032484 0.304408,0.14604 0.589547,0.342077 0.913228,0.438121 0.857112,0.254323 1.49887,0.125608 2.312564,-0.117385 0.03338,-0.01 0.07707,0.01984 0.104513,-0.0016 0.125277,-0.09797 0.22244,-0.227353 0.333661,-0.341029 0.725707,-1.35536 0.0731,-0.05061 0.770294,-1.797801 0.578411,-1.449525 1.387354,-2.849983 1.536298,-4.432364 0.305348,-1.838661 0.131128,-0.305125 0.126474,-1.844315 -0.0043,-1.423477 0.193952,-2.849957 0.003,-4.273513 0.07926,-2.871221 0.303753,-5.764474 -0.07618,-8.624178 -0.02875,-0.524936 -0.07485,-1.049208 -0.08625,-1.574808 -0.0092,-0.422344 0.07699,-1.40281 -0.0016,-1.873364 -0.06474,-0.387913 -0.209214,-0.758552 -0.295055,-1.142349 -0.231474,-1.03491 -0.376661,-2.088039 -0.639816,-3.116442 -0.0089,-0.144561 -0.09833,-1.993794 -0.191288,-2.359721 -0.04473,-0.176101 -0.164023,-0.600184 -0.285015,-0.464632 -1.070943,1.199824 -0.120525,0.288986 -1.186005,1.254183 -1.67631,1.198928 -3.269512,2.527033 -4.97413,3.684098 -0.20326,0.137972 -0.42592,0.244946 -0.638881,0.367416 -1.605767,1.174668 -2.965487,2.609543 -4.208121,4.163968 0,0 -0.260353,0.135644 -0.260353,0.135644 z"
       inkscape:connector-curvature="0" />
    <path
       style="opacity:0.41000001;fill:#2e8e7e;fill-opacity:1;stroke:#d201ec;stroke-width:1;stroke-linejoin:round;stroke-miterlimit:4;stroke-dasharray:none;stroke-dashoffset:0;stroke-opacity:1"
       id="path1503"
       d="m 81.337406,72.981846 c -1.722591,0.179149 -3.841965,0.631441 -5.253324,1.721807 -0.104698,0.08089 -0.132992,0.231426 -0.22321,0.3282 -0.185669,0.199165 -0.399833,0.369721 -0.599752,0.55458 -1.124781,0.653201 -1.757254,1.775817 -2.142747,2.983158 -0.0081,0.633236 0.08139,1.261634 0.103119,1.893293 0.01254,0.364421 -0.08663,0.740037 0.0013,1.093909 0.05021,0.202044 0.860142,1.797899 1.052242,2.081128 0.112237,0.165481 0.274466,0.290848 0.4117,0.436274 0.892294,0.06984 1.129297,1.086937 2.041705,1.142344 0.165277,0.01003 0.327536,-0.0489 0.491305,-0.07334 0.532857,-0.134752 0.23749,-0.02866 0.854035,-0.372398 0.803174,-0.447786 1.115565,-0.751412 1.743485,-1.407353 0.270243,-0.755436 1.085329,0.01534 1.490763,-0.28765 0.0389,-0.02908 -0.06662,-0.079 -0.07071,-0.127392 -0.01238,-0.146463 0.01513,-0.293576 0.0227,-0.440364 -0.19472,-0.935284 -0.146847,-0.334926 0.0073,-1.421974 0.03695,-0.260631 0.02191,-0.530461 0.09115,-0.784429 0.07843,-0.287697 0.245247,-0.544221 0.347398,-0.82437 0.259162,-0.710743 0.214264,-0.593138 0.244832,-1.220819 -0.01926,-0.102942 -0.03972,-0.205661 -0.05775,-0.30882 -0.124004,-0.709379 -0.111984,-0.566419 -0.139025,-1.377952 -0.0024,-0.07485 0.0098,-1.045046 -0.06134,-1.189458 -0.106886,-0.217072 -0.314859,-0.367483 -0.472289,-0.551225 -0.328655,-0.742421 -0.845484,-1.693476 -1.589579,-2.1135 -0.33605,-0.18969 -0.697394,-0.331504 -1.036233,-0.516168 -0.06439,-0.05754 -0.841478,-0.754835 -0.876168,-0.772956 -0.714475,-0.167195 -0.403944,-0.03583 -0.948565,-0.35129 0,0 0.272626,-0.21246 0.272626,-0.21246 v 0 c 0.664403,0.288676 1.32465,0.584427 1.837807,1.116856 0.332597,0.185894 0.684733,0.338677 1.003308,0.547696 0.76962,0.504952 1.210331,1.307105 1.656572,2.084014 0.100671,0.181322 0.484124,0.806365 0.530291,1.085988 0.126468,0.765974 -0.09188,1.626864 0.156752,2.394775 -0.08836,0.552887 -0.08788,0.652402 -0.266221,1.240274 -0.07911,0.260781 -0.202131,0.507865 -0.268777,0.772107 -0.06646,0.263488 -0.08299,0.537131 -0.128987,0.80495 -0.04634,0.269825 -0.160724,0.534405 -0.147984,0.807884 0.0094,0.201745 0.141367,0.378381 0.21205,0.567571 -0.01484,0.15929 0.03552,0.339357 -0.04453,0.477869 -0.394835,0.683186 -0.645512,0.603803 -1.25634,0.540224 -0.08782,-0.0091 -0.181771,0.0049 -0.263281,-0.02904 -0.02355,-0.0098 0.03021,-0.04114 0.04532,-0.0617 -0.86355,0.948532 -1.908509,1.785282 -3.153455,2.16081 -0.423725,0.06397 -0.639911,0.164518 -1.054362,-0.05896 -0.775512,-0.418168 -0.15453,-0.302471 -0.722321,-0.810831 -0.187208,-0.167614 -0.52696,-0.08375 -0.701299,-0.276503 -0.585123,-0.713325 -1.291315,-1.59271 -1.543095,-2.490766 -0.09671,-0.34493 -0.0227,-0.716098 -0.03306,-1.074177 -0.04019,-1.389258 -0.0556,-0.773178 0.02875,-1.981774 -0.01151,-0.127209 -0.06054,-0.256569 -0.03455,-0.381624 0.02513,-0.120928 0.121182,-0.215263 0.181046,-0.323297 0.479227,-0.864833 0.981718,-1.697654 1.864934,-2.225405 0.467657,-0.474343 0.893025,-0.930498 1.443048,-1.330601 0.240139,-0.174685 0.512879,-0.30091 0.780934,-0.428699 1.372256,-0.654182 2.794016,-1.156314 4.335285,-1.15153 0,0 -0.162835,0.143119 -0.162835,0.143119 z"
       inkscape:connector-curvature="0" />
    <path
       style="opacity:0.41000001;fill:#2e8e7e;fill-opacity:1;stroke:#d201ec;stroke-width:1;stroke-linejoin:round;stroke-miterlimit:4;stroke-dasharray:none;stroke-dashoffset:0;stroke-opacity:1"
       id="path1505"
       d="m 93.205473,69.6739 c -0.48438,0.321805 -2.527837,1.709857 -3.201712,2.058898 -0.481153,0.249216 -1.057029,0.235879 -1.540383,0.473747 0.07132,-0.0083 0.167672,-0.07962 0.213945,-0.02474 0.01191,0.01413 0.06628,0.704583 0.06902,0.748814 0.0127,0.204776 0.0293,0.409614 0.02993,0.614783 5.29e-4,0.19985 -0.06204,0.402367 -0.02619,0.598979 0.02786,0.152845 0.140751,0.277019 0.211125,0.415526 0.743857,0.631372 1.616643,1.077259 2.274165,1.809144 0.168637,0.0026 0.33869,0.02987 0.505912,0.0079 0.202679,-0.02661 0.392742,-0.116702 0.594035,-0.15231 0.722553,-0.12782 1.475396,-0.129104 2.205484,-0.102545 1.273734,0.605806 2.410172,1.442271 3.340037,2.499408 0.02908,0.163245 0.09296,0.324017 0.08725,0.489733 -0.01312,0.380106 -0.194061,0.657196 -0.274447,1.01654 -0.132977,0.594455 -0.212428,1.218321 -0.307067,1.821413 -0.428699,0.93046 -0.616297,1.457909 -1.238827,2.298551 -0.225253,0.304173 -0.517395,0.552837 -0.76522,0.838923 -0.321236,0.370824 -0.37968,0.696957 -0.881227,0.330295 -0.157281,-0.05526 -0.305731,-0.151723 -0.471847,-0.165796 -0.469612,-0.03978 -1.111017,0.194054 -1.543746,0.263954 -1.000654,0.161642 -1.996961,0.141853 -3.00224,0.06897 -2.087695,0.117002 -0.194474,0.184351 -1.729097,-0.268459 -0.554128,-0.163502 -0.847638,0.03263 -1.300276,-0.338384 -0.11837,-0.09702 -0.161965,-0.259932 -0.250135,-0.385035 -0.135125,-0.191733 -0.279625,-0.376684 -0.419438,-0.565028 -0.566796,-0.718815 -0.62365,-1.020445 -1.523789,-0.723958 0,0 0.284581,-0.263279 0.284581,-0.263279 v 0 c 0.898191,-0.29351 0.959765,0.123232 1.580499,0.747003 0.09545,0.155909 0.437248,0.781569 0.653933,0.93974 0.146884,0.107217 0.326584,0.160681 0.494732,0.229938 0.771853,0.317921 1.540473,0.553567 2.389409,0.474009 0.771763,0.0056 1.331214,0.02803 2.111431,-0.04857 1.029742,-0.101099 2.030187,-0.51849 3.06325,-0.203808 0.05237,0.06279 0.16573,0.107064 0.157094,0.188362 -0.01135,0.106757 -0.282686,0.322159 -0.203615,0.249542 1.035081,-0.950555 1.826024,-2.202434 2.318382,-3.506793 0.10881,-0.603435 0.08442,-1.214797 0.267806,-1.80381 0.09426,-0.302749 0.345869,-0.727154 0.364487,-1.051073 0.009,-0.157112 -0.07038,-0.306777 -0.105568,-0.460166 -0.670944,-0.629499 -1.334617,-1.203074 -2.085279,-1.739942 -0.43106,-0.30829 -0.777407,-0.630349 -1.308585,-0.680337 -0.525629,-0.05347 -1.062585,-0.03102 -1.588902,0.02381 -0.386609,0.04028 -0.763233,0.172871 -1.151832,0.181914 -0.157099,0.0037 -0.312015,-0.0377 -0.468024,-0.05655 -0.140922,-0.04397 -0.304935,-0.04298 -0.422764,-0.131908 -0.266954,-0.20147 -0.288423,-0.649481 -0.67495,-0.742387 -0.15639,-0.102838 -0.351724,-0.13884 -0.503811,-0.247938 -0.134406,-0.09641 -0.228304,-0.239414 -0.342458,-0.359119 -0.14096,-0.09555 -0.281919,-0.191109 -0.422881,-0.286663 -0.1596,-0.554249 -0.147069,-1.073785 -0.202867,-1.646944 -0.0093,-0.09508 -0.09314,-0.662876 -0.03764,-0.787191 0.06632,-0.148574 0.211619,-0.2472 0.317426,-0.3708 0.280038,-0.106659 0.526595,-0.110617 0.812091,-0.195305 1.250244,-0.370864 2.256584,-1.275006 3.351803,-1.935874 0,0 0.297005,-0.145204 0.297005,-0.145204 z"
       inkscape:connector-curvature="0" />
    <path
       style="opacity:0.41000001;fill:#2e8e7e;fill-opacity:1;stroke:#d201ec;stroke-width:1;stroke-linejoin:round;stroke-miterlimit:4;stroke-dasharray:none;stroke-dashoffset:0;stroke-opacity:1"
       id="path1507"
       d="m 102.54922,51.998784 c 0.31878,1.030407 0.94183,2.838302 1.06976,3.970811 0.0276,0.244383 -0.0547,1.820863 -0.13519,2.234589 -0.0426,0.218972 -0.13699,0.424598 -0.20549,0.636897 -0.0452,0.295153 -0.0905,0.590307 -0.13571,0.88546 0.008,1.375944 0.069,2.743544 0.11779,4.118358 0.0225,0.632611 -0.0107,1.267119 0.0305,1.898788 0.0454,0.69578 0.15264,1.386139 0.22896,2.079207 0.0357,0.752523 0.0715,1.505045 0.10723,2.257568 0.004,0.696216 -0.0241,1.393325 0.0113,2.08865 0.0279,0.548391 0.0835,1.096777 0.17851,1.637604 0.0777,0.442709 0.21309,0.873633 0.3383,1.305322 0.13681,0.47168 0.3108,0.719695 0.33589,1.202724 0.0128,0.245356 -0.0233,0.490821 -0.0349,0.73623 -0.0311,1.517205 0.748,2.748266 1.42103,4.03996 0.13341,0.256053 0.30132,0.500319 0.38123,0.777763 0.0703,0.243962 0.041,0.506103 0.0615,0.759156 -0.12399,0.373322 -0.074,0.771096 -0.14608,1.151088 -0.0422,0.222494 -0.152,0.42944 -0.18676,0.653222 -0.0493,0.317125 0.0887,0.660286 0.0917,0.980231 0.0626,0.397304 -0.0438,0.805336 -0.0283,1.198253 0.006,0.164706 0.0929,0.319794 0.0988,0.484521 0.004,0.10894 -0.0596,0.210955 -0.0699,0.319471 -0.0112,0.117377 0.004,0.235797 0.006,0.353695 0.0493,0.550675 -0.13737,1.220293 -0.86837,0.976585 -0.54367,-0.181255 -1.15923,-1.034068 -1.44546,-1.356362 -0.98335,-1.386123 -0.76807,-0.974633 -1.54069,-2.49903 -0.19458,-0.383926 -0.42187,-0.756152 -0.55797,-1.164492 -0.48414,-1.452613 0.10072,-0.384357 0.003,-1.785723 -0.0206,-0.296542 -0.17301,-0.56878 -0.25952,-0.85317 -0.28553,-1.149509 -0.32453,-2.294194 -0.30864,-3.470013 0.004,-0.301395 -0.033,-0.606803 0.0166,-0.904113 0.0354,-0.212368 0.38557,-0.958802 0.48357,-1.176121 0.0745,-0.120597 0.13181,-0.253769 0.22363,-0.361791 0.17146,-0.201681 0.53987,-0.44578 0.74358,-0.600334 0.27345,-0.207473 0.50807,-0.463661 0.78506,-0.666396 0.19428,-0.1422 0.41016,-0.252248 0.61524,-0.37837 0.10659,-0.05655 0.21967,-0.10228 0.31977,-0.169658 0.0305,-0.02051 0.034,-0.06898 0.0647,-0.08916 0.93801,-0.616765 1.99695,-0.852278 3.07145,-1.127051 0.52816,-0.18093 0.94307,0.104204 1.43812,0.150149 0.23012,0.02135 0.70904,0.0235 0.95563,-0.01262 0.6259,-0.09748 1.05923,0.168214 1.52705,0.547047 0.23872,0.193313 0.5043,0.363088 0.69852,0.60107 0.15896,0.194776 0.48272,1.046221 0.57875,1.284642 0.12416,0.770273 0.72056,1.155435 1.1734,1.714516 0.15082,0.186219 0.25225,0.407606 0.38457,0.607404 0.31932,0.482168 0.24916,0.194887 0.28157,0.654203 0.0138,0.152062 -2.6e-4,0.309306 0.0414,0.456187 0.10584,0.372835 0.3727,0.684903 0.49073,1.054058 0.3311,1.035595 -0.0545,0.08076 -0.006,1.02199 0.006,0.110344 0.0922,0.20084 0.13828,0.30126 0.37212,0.65106 0.5509,1.389909 0.78624,2.096608 0.14628,0.439243 0.23575,0.651642 0.12758,1.088335 0.25557,0.899104 0.41778,1.467252 1.47003,1.025466 -0.0654,-0.262956 0.56645,-0.563171 0.68973,-0.607782 0.15621,-0.05653 0.31252,0.155848 0.47798,0.141081 0.13552,-0.01209 0.25504,-0.09488 0.38256,-0.142322 -0.28191,-0.262633 -0.1037,-0.12578 -0.56648,-0.365347 0,0 0.27025,-0.19947 0.27025,-0.19947 v 0 c 0.51185,0.396053 0.42169,0.142624 0.0311,0.806371 -0.11066,0.02537 -0.21849,0.07296 -0.33198,0.07611 -0.10579,0.0029 -0.20657,-0.05032 -0.31211,-0.05823 -0.0821,-0.0062 -0.19289,0.07888 -0.2465,0.01638 -0.043,-0.05014 0.20041,-0.169013 0.14194,-0.138284 -0.24236,0.127381 -0.5047,0.430154 -0.68016,0.606737 -0.10483,0.06395 -0.19663,0.157392 -0.3145,0.191852 -0.37456,0.109511 -0.93929,-0.01564 -1.1004,-0.412232 -0.64592,-1.589955 0.34143,0.107432 -0.19663,-0.77539 0.20423,-0.63332 -0.19963,-1.252702 -0.38359,-1.853176 -0.0846,-0.276302 -0.11206,-0.572371 -0.23186,-0.835351 -0.0775,-0.170087 -0.23246,-0.292735 -0.34869,-0.439102 -0.01,-0.128635 -0.0191,-0.257273 -0.0287,-0.385908 -0.026,-0.118486 -0.0647,-0.234887 -0.0779,-0.35546 -0.0212,-0.193447 0.014,-0.392631 -0.025,-0.583282 -0.16567,-0.809114 -0.22173,-0.375819 -0.45108,-1.090155 -0.0461,-0.143729 -0.0448,-0.298566 -0.0672,-0.447849 0.0195,-0.104646 0.0803,-0.209693 0.0587,-0.313939 -0.1955,-0.943515 -1.84208,-1.578448 -1.83097,-2.689471 -0.0973,-0.255524 -0.38194,-1.069435 -0.56502,-1.274905 -0.20613,-0.231336 -0.492,-0.376949 -0.74393,-0.557332 -0.46834,-0.33533 -0.90966,-0.614074 -1.51142,-0.532151 -0.78922,0.225192 -1.61116,-0.343236 -2.41959,-0.108971 -0.31394,0.05682 -0.63312,0.08989 -0.94183,0.17045 -1.28685,0.335811 -0.46412,0.203694 -1.45453,0.563094 -0.0194,0.007 -0.0366,-0.04192 -0.0539,-0.03062 -1.13505,0.740953 -0.2229,0.283044 -0.91351,0.61191 -0.0653,0.02593 -0.1402,0.03504 -0.19603,0.07776 -0.24697,0.188941 -0.4092,0.476456 -0.69327,0.624194 -0.21488,0.164007 -0.6062,0.402984 -0.79306,0.614405 -0.0924,0.104513 -0.14885,0.235945 -0.22327,0.353917 -0.0594,0.166984 -0.1102,0.337254 -0.17809,0.500954 -0.0932,0.224592 -0.25776,0.424204 -0.3046,0.662795 -0.0573,0.291687 -2.4e-4,0.594511 -5.3e-4,0.891767 -10e-4,1.159378 -0.0267,2.29421 0.42343,3.390543 0.0431,0.315989 0.12798,0.629052 0.1294,0.94797 0.005,1.126797 -0.34188,0.589982 -0.0117,1.77223 0.38532,1.379691 1.32329,2.481432 2.05221,3.681563 0.32055,0.288819 0.63939,0.579559 0.96166,0.86646 0.17251,0.153586 0.39281,0.263927 0.52265,0.454954 0.0634,0.09325 -0.0481,0.245282 0.0162,0.337881 0.0362,0.05211 0.0805,-0.09899 0.11114,-0.154549 0.2482,-0.449939 0.19161,-0.300008 0.18411,-0.783764 -0.002,-0.117917 -0.004,-0.235831 -0.006,-0.353748 0.014,-0.100735 0.0406,-0.200512 0.0421,-0.302207 0.008,-0.57512 -0.0828,-1.159899 0.0142,-1.730476 -0.19858,-0.921067 0.1491,-1.854798 0.22866,-2.77532 -0.11317,-0.694896 -0.10334,-0.866537 -0.39304,-1.557729 -1.25235,-2.9879 0.53885,1.705922 -1.127,-2.016316 -0.23543,-0.526052 -0.33687,-1.39674 -0.4261,-1.960345 0.0546,-0.72485 0.0613,-1.320403 -0.1393,-2.029166 -0.12059,-0.426033 -0.33405,-0.82713 -0.41079,-1.263201 -0.21253,-1.207669 0.0159,-2.467808 -0.28572,-3.667572 -0.0382,-0.750869 -0.0609,-1.502677 -0.11447,-2.252607 -0.0501,-0.702191 -0.17719,-1.399063 -0.19649,-2.102778 -0.018,-0.656768 0.087,-1.312207 0.0848,-1.969217 -0.002,-0.556517 -0.0789,-1.110507 -0.0972,-1.666724 -0.0152,-0.460767 -0.002,-0.922028 -0.003,-1.383044 -0.0151,-0.351898 -0.0301,-0.703797 -0.0452,-1.055692 0.0569,-0.408536 0.12862,-1.03386 0.2342,-1.462382 0.0813,-0.329956 0.24923,-0.643162 0.27341,-0.982125 0.0298,-0.417184 -0.0584,-0.835028 -0.11423,-1.249521 -0.30241,-2.243463 -0.25072,-1.712063 -1.02188,-3.992182 0,0 0.28077,-0.188645 0.28077,-0.188645 z"
       inkscape:connector-curvature="0" />
    <path
       style="opacity:0.41000001;fill:#2e8e7e;fill-opacity:1;stroke:#d201ec;stroke-width:1;stroke-linejoin:round;stroke-miterlimit:4;stroke-dasharray:none;stroke-dashoffset:0;stroke-opacity:1"
       id="path1509"
       d="m 118.44418,66.612319 c 0.51039,-0.255029 2.25209,-1.565756 2.90744,-0.856625 0.21595,0.233669 -0.0161,1.26233 -0.0151,1.386954 0.002,0.290597 0.0772,0.576061 0.11576,0.864094 0.49801,1.211461 0.0912,2.497201 0.12581,3.750363 0.01,0.357079 0.0646,0.711504 0.0969,1.067255 -0.16346,2.304164 -0.0441,-0.03891 -0.0256,1.799101 0.002,0.221078 -0.0392,0.441362 -0.0341,0.662392 0.006,0.24661 0.0636,0.490366 0.0666,0.737023 0.0318,2.591822 -0.14745,-0.777681 -10e-4,1.585474 0.0365,0.379915 -0.13412,0.751332 -0.117,1.12944 0.006,0.122129 0.099,0.229552 0.10403,0.351702 0.003,0.07462 -0.0775,0.134377 -0.0807,0.208987 -0.004,0.09153 0.0512,0.177019 0.06,0.268213 0.018,0.187966 0.0133,0.377413 0.02,0.566119 -0.17652,1.32348 -0.1449,0.374499 0.009,1.439928 0.0333,0.230614 -0.0149,0.476793 0.0639,0.6961 0.0826,0.230236 0.28361,0.399558 0.40553,0.611627 0.32555,0.566248 0.32144,0.652709 0.51019,1.241856 0.51134,0.592593 0.99163,0.667227 1.74081,0.697537 0.18814,0.0076 0.38793,-0.06941 0.56485,-0.005 0.178,0.06485 0.28851,0.245602 0.43276,0.368403 0.21595,0.0736 1.2434,0.494663 1.4953,0.28447 0.0393,-0.03281 -0.14266,-0.0021 -0.14411,-0.05329 -0.004,-0.134236 0.0935,-0.251983 0.13188,-0.380674 0.0452,-0.151606 0.0791,-0.306356 0.11871,-0.459536 0.24886,-0.361792 -0.0757,-0.697947 -0.004,-1.085477 0.0964,-0.521155 0.49666,-0.501907 0.21715,-0.763384 0,0 0.28966,-0.195527 0.28966,-0.195527 v 0 c 0.23321,0.370948 -0.12235,0.206171 -0.20595,0.769945 -0.12311,0.83021 0.0586,0.107045 0.12714,0.782283 0.01,0.09502 -0.0386,0.187069 -0.0579,0.280601 -0.0567,0.165421 -0.12127,0.328322 -0.16994,0.496263 -0.0335,0.115531 -0.008,0.253297 -0.0761,0.352732 -0.58744,0.863098 -1.14168,0.520756 -1.91185,0.118404 -0.34092,-0.121954 -0.67576,-0.273465 -1.04182,-0.306729 -0.73691,-0.06697 -1.37626,0.05781 -1.76141,-0.728416 -0.30484,-0.558215 -0.98643,-1.920962 -1.0678,-2.511989 -0.0652,-0.473427 0.14988,-0.961662 -0.0194,-1.433544 0.0119,-0.294949 -0.0306,-0.59237 0.004,-0.88556 0.009,-0.0736 0.0746,-0.133893 0.0788,-0.207881 0.0267,-0.474392 -0.16151,-0.976087 -0.0309,-1.454319 -0.0127,-1.584579 0.004,-3.164631 -0.0649,-4.748517 0.004,-0.05941 0.14032,-2.017204 0.13822,-2.176531 -0.012,-0.912445 -0.27436,-1.829626 -0.1762,-2.75091 -0.0449,-0.285565 -0.10552,-0.569095 -0.13471,-0.856692 -0.014,-0.137898 -0.0269,-1.219147 -0.0756,-1.271555 -0.6078,-0.654246 -2.36677,0.585501 -2.82624,0.824756 0,0 0.21836,-0.209899 0.21836,-0.209899 z"
       inkscape:connector-curvature="0" />
    <path
       style="opacity:0.41000001;fill:#2e8e7e;fill-opacity:1;stroke:#d201ec;stroke-width:1;stroke-linejoin:round;stroke-miterlimit:4;stroke-dasharray:none;stroke-dashoffset:0;stroke-opacity:1"
       id="path1511"
       d="m 14.432584,103.54197 c 2.213445,0.2218 4.442264,0.37016 6.668267,0.29724 0.547531,-0.0179 1.091394,-0.10147 1.638711,-0.12505 0.835659,-0.036 1.672892,0.003 2.509303,-0.003 3.105835,-0.0354 6.213829,-0.0269 9.320151,-0.0108 1.83039,0.009 3.66077,0.0939 5.490898,0.0616 4.512426,-0.0797 6.765094,-0.32716 11.152222,-0.6841 1.234305,-0.082 2.466803,-0.19854 3.702915,-0.24609 0.704863,-0.0271 1.41098,0.0436 2.116039,0.0222 0.993706,-0.0302 2.334218,-0.22293 3.309472,-0.36679 8.906296,-1.31377 -4.818909,0.65743 5.614442,-0.83165 1.970445,-0.31737 3.964588,-0.46372 5.937512,-0.76254 0.68793,-0.10419 1.3642,-0.27876 2.053029,-0.37683 1.446644,-0.20595 1.024843,-0.0233 2.37466,-0.11727 0.445605,-0.031 0.887782,-0.0997 1.331677,-0.14961 1.939993,-0.0642 3.897833,-0.249764 5.816615,-0.550161 0.796957,-0.124767 1.581613,-0.319302 2.376311,-0.457737 0.859067,-0.149648 1.722837,-0.270923 2.584256,-0.406387 0.860013,-0.154691 1.720027,-0.309382 2.58004,-0.464074 0.617971,-0.104777 1.245015,-0.165642 1.853914,-0.314327 0.776827,-0.189693 2.235181,-0.806689 3.008418,-1.032309 1.960385,-0.572016 0.991452,-0.213522 2.825435,-0.462936 0.478375,-0.06506 0.949492,-0.175401 1.424239,-0.263099 0.85282,0.09572 1.61916,-0.312553 2.43351,-0.441908 0.39942,-0.06344 1.06952,0.05356 1.45915,0.06764 2.25306,0.133723 4.44328,-0.545536 6.5764,-1.187815 0.73341,-0.211876 0.80427,0.337111 1.50879,7.94e-4 0.37597,-0.179462 0.40403,-0.08006 0.25118,-0.269145 0.0414,-0.05775 0.0606,-0.141748 0.12425,-0.17326 0.65932,-0.326159 1.59208,-0.455287 2.31474,-0.510688 0.19723,-0.01513 0.39977,0.06448 0.593,0.0222 0.19236,-0.04208 0.35123,-0.178107 0.52684,-0.267158 0.072,-0.03426 0.14021,-0.07818 0.21608,-0.102764 0.0744,-0.0241 0.54243,-0.07405 0.55009,-0.07532 0.58032,-0.09651 1.12014,-0.267605 1.70655,-0.347466 0.32313,-0.27436 0.58236,0.130185 0.87432,0.101258 0.67977,-0.06735 0.1545,-0.09667 0.33671,-0.317434 0.0952,-0.115289 0.21614,-0.210407 0.3443,-0.287366 0.18166,-0.109093 0.3849,-0.177395 0.57734,-0.266092 0.89741,-0.206684 2.05972,-0.772506 2.97249,-0.587327 0.95453,0.184264 1.25533,0.0331 2.11677,-0.353544 1.13412,-0.853692 2.05145,-1.105281 3.3924,-0.618189 0.0158,0.0078 0.0316,0.01548 0.0474,0.02323 0,0 -0.25316,0.210187 -0.25316,0.210187 v 0 c -0.0379,0.0043 -0.0759,0.0087 -0.11384,0.01299 -0.22142,-0.304569 -0.76918,-0.228978 -1.0652,-0.244221 -0.74993,-0.03862 -1.11354,-0.05655 -1.71078,0.470239 -0.46118,0.339939 -1.02286,0.718804 -1.61063,0.814824 -0.31472,0.05142 -0.70092,-0.117184 -1.01871,-0.134038 -0.44195,0.0131 -0.92245,0.0584 -1.34927,0.175948 -0.27698,0.07628 -0.53467,0.216742 -0.8145,0.281779 -1.17554,0.273214 0.26225,-0.309539 -0.8748,0.202665 -0.0429,-0.383222 -0.40882,0.30362 -0.91833,0.694696 -0.37947,0.291261 -0.25663,0.07974 -0.65326,0.05183 -0.19217,-0.01352 -0.3848,0.01926 -0.57721,0.0289 -0.70921,0.05534 -0.51216,0.0028 -1.17733,0.195932 -0.19238,0.05585 -0.37453,0.154172 -0.57303,0.181078 -0.0682,0.0092 -0.12331,-0.0876 -0.19139,-0.07748 -0.18361,0.0273 -0.32284,0.198311 -0.51094,0.221494 -0.79775,0.330668 -1.0787,0.174027 -1.87388,0.262728 -0.25156,0.02806 -0.49006,0.139018 -0.74231,0.160065 -0.0837,0.007 -0.15892,-0.101393 -0.23966,-0.07813 -0.0897,0.02585 -0.12885,0.135239 -0.19328,0.202861 -0.23288,0.265356 -0.63929,0.804259 -1.08292,0.757669 -0.10139,-0.01064 -0.16899,-0.124164 -0.26846,-0.146505 -0.20645,-0.04637 -0.69037,2.62e-4 -0.89725,0.01386 -2.48376,0.558699 1.44485,-0.359495 -1.98742,0.607888 -0.76999,0.217022 -1.76369,0.325348 -2.54644,0.439201 -0.41184,0.0599 -0.81966,0.156022 -1.23489,0.184083 -0.27432,0.01855 -0.54909,-0.02998 -0.82363,-0.04497 -0.22956,-0.0094 -0.4604,-0.0021 -0.68867,-0.02816 -0.10129,-0.01154 -0.19223,-0.08099 -0.29413,-0.08374 -0.99792,-0.02694 -1.90818,0.603543 -2.91748,0.504158 -0.479808,0.09157 -0.956384,0.202094 -1.439423,0.274725 -1.400125,0.210526 -1.356003,0.03995 -2.769449,0.422878 -2.726354,0.738627 -0.181637,0.280908 -2.947485,0.97168 -0.638839,0.159549 -1.291442,0.257804 -1.937163,0.386707 -2.469295,0.358827 -4.921183,0.798478 -7.384965,1.191101 -0.726442,0.115766 -3.615288,0.559312 -4.406349,0.634712 -0.527254,0.0503 -1.058339,0.0448 -1.587511,0.0672 -1.22356,0.0573 -2.472079,0.10207 -3.688114,0.25591 -2.642005,0.33426 -5.255821,0.90626 -7.919956,1.0761 -1.88659,0.2903 -3.773008,0.58171 -5.659636,0.87177 -0.578088,0.0889 -1.153332,0.19921 -1.734449,0.26545 -1.636781,0.18658 -1.959412,0.0864 -3.734528,0.11233 -1.17195,0.0171 -2.343472,0.0563 -3.515209,0.0845 -1.691859,0.11595 -3.383894,0.22937 -5.075579,0.34783 -2.067414,0.14478 -4.13023,0.37758 -6.201709,0.4419 -1.822643,0.0566 -3.646468,-0.0823 -5.469987,-0.0795 -3.109056,0.005 -6.22059,0.19199 -9.330084,0.0199 -4.231713,-0.0228 1.230333,-0.0447 -2.649458,0.12404 -0.492638,0.0214 -0.986158,-0.0103 -1.479256,-0.0129 -2.246231,-0.0115 -4.50143,0.0411 -6.735451,-0.24611 0,0 0.257765,-0.2139 0.257765,-0.2139 z"
       inkscape:connector-curvature="0" />
    <path
       style="opacity:0.41000001;fill:#2e8e7e;fill-opacity:1;stroke:#d201ec;stroke-width:1;stroke-linejoin:round;stroke-miterlimit:4;stroke-dasharray:none;stroke-dashoffset:0;stroke-opacity:1"
       id="path1513"
       d="m 54.930587,106.60909 c -1.020845,-0.0569 -2.045118,-0.27723 -3.071879,-0.27698 -0.177339,4e-5 -0.29814,0.19337 -0.456422,0.27335 -0.192661,0.0973 -0.39688,0.16988 -0.59532,0.25482 -0.628981,0.22908 -0.866349,0.58955 -0.725956,1.28015 0.03673,0.18067 0.148026,0.34489 0.162467,0.52869 0.0123,0.15672 -0.05631,0.30932 -0.08447,0.46398 -0.09803,0.17385 -0.170945,0.3645 -0.2941,0.52157 -0.07914,0.10092 -1.205757,1.06123 -0.823818,1.36056 0.08588,0.0673 0.200912,0.0852 0.301369,0.12782 0.174519,0.061 0.371342,0.0781 0.523555,0.18305 0.155514,0.10722 0.237042,0.29475 0.367559,0.4313 0.135906,0.14218 0.297402,0.25874 0.430461,0.4036 0.123034,0.13395 0.214389,0.29461 0.335502,0.4303 0.244888,0.27436 0.464754,0.43643 0.746861,0.66746 0.632423,0.40736 0.188481,0.19815 1.157695,0.35628 0.195209,0.0319 0.384783,0.10491 0.582379,0.11368 0.230529,0.0102 0.459248,-0.0503 0.689904,-0.0572 0.13766,-0.004 0.27958,0.0607 0.412443,0.0244 0.141174,-0.0385 0.246076,-0.15843 0.369112,-0.23765 0.235966,-0.67776 1.029513,-0.97512 1.4781,-1.49221 0.07643,-0.0881 0.09341,-0.21393 0.147151,-0.31743 0.06358,-0.12245 0.136335,-0.23991 0.204502,-0.35986 0.364228,-0.72492 1.117841,-1.14718 1.656871,-1.72325 0.471067,-0.50343 0.460079,-0.59811 0.712989,-1.17728 -0.126403,-0.11806 -0.05351,-0.38959 -0.180288,-0.52388 -0.04056,-0.043 -0.135482,-0.0254 -0.158183,-0.0799 -0.03455,-0.083 0.02413,-0.18025 0.01275,-0.26945 -0.116399,-0.91362 -0.0888,0.47235 -0.08076,-0.67534 -0.0011,-0.35746 0.169437,-0.6981 0.169974,-1.05396 5.29e-4,-0.37245 -0.178933,-0.98196 -0.609246,-1.06183 -0.135207,-0.0251 -0.274018,0.0236 -0.411027,0.0354 -0.37592,0.22826 -0.206063,0.15809 -0.489842,0.25303 0,0 0.225425,-0.211 0.225425,-0.211 v 0 c 0.319781,-0.16858 0.156258,-0.0884 0.490797,-0.24003 0.218077,-0.0194 0.665461,-0.11872 0.856438,0.10008 0.305416,0.34992 0.08256,1.51453 0.122467,1.96503 -0.02619,0.14444 -0.0688,0.28686 -0.07858,0.43334 -0.03786,0.56721 0.05007,0.0867 0.08303,0.51117 0.0055,0.0708 -0.08211,0.17379 -0.02217,0.21188 0.100092,0.0636 0.284226,-0.0944 0.355798,1.8e-4 0.09071,0.11985 -0.0097,0.30045 -0.01458,0.45068 -0.230182,0.54002 -0.25494,0.71141 -0.674119,1.17506 -0.463674,0.51286 -1.089506,0.90338 -1.535311,1.43555 -0.0693,0.0827 -0.09964,0.19146 -0.14946,0.28718 -0.06317,0.12872 -0.285832,0.60024 -0.373936,0.70392 -0.573844,0.67534 -1.431719,1.10687 -1.959774,1.83375 -1.018992,0.5623 -2.292009,0.15724 -3.325667,-0.16879 -0.44056,-0.47569 -0.872762,-1.21428 -1.376029,-1.59515 -0.164883,-0.12478 -0.375457,-0.17632 -0.549185,-0.28847 -0.132641,-0.0856 -0.243398,-0.20114 -0.365096,-0.30171 -0.105764,-0.0455 -0.229052,-0.0626 -0.317291,-0.13652 -0.04428,-0.0371 -0.04168,-0.10968 -0.04521,-0.16735 -0.03301,-0.53928 0.448866,-0.78002 0.74639,-1.16165 0.12687,-0.16273 0.219424,-0.34952 0.329136,-0.52428 0.02434,-0.14645 0.08684,-0.29153 0.073,-0.43934 -0.06606,-0.70572 -0.332142,-0.37091 -0.168966,-1.13771 0.132615,-0.62317 0.85134,-0.88795 1.345833,-1.14211 0.171963,-0.063 0.350594,-0.1101 0.515889,-0.18893 0.189805,-0.0905 0.330589,-0.31194 0.540444,-0.32544 0.132641,-0.009 0.264422,0.0274 0.396785,0.0395 1.927598,0.17636 0.187071,0.002 2.652784,0.26207 0,0 -0.259189,0.21585 -0.259189,0.21585 z"
       inkscape:connector-curvature="0" />
    <path
       style="opacity:0.41000001;fill:#2e8e7e;fill-opacity:1;stroke:#d201ec;stroke-width:1;stroke-linejoin:round;stroke-miterlimit:4;stroke-dasharray:none;stroke-dashoffset:0;stroke-opacity:1"
       id="path1515"
       d="m 68.197478,103.04323 c -0.890379,-0.50847 -1.898973,-0.88269 -2.902696,-0.42769 -0.686396,0.31115 -0.393161,0.34075 -0.875245,0.69652 -0.221461,0.16344 -0.464507,0.29539 -0.696761,0.44309 -0.97745,0.58955 -0.854776,1.2294 -0.987311,2.30038 0.02728,0.36198 -0.108305,0.70261 -0.141553,1.0563 -0.03082,0.32785 0.05103,-0.0635 0.0682,0.1703 0.02611,0.35545 0.01135,0.71298 0.03314,1.06872 -0.07008,1.00239 -0.05698,0.378 -0.02019,1.19365 0.03081,0.68285 0.287324,0.82126 0.919321,1.03276 0.514483,0.18289 1.028354,0.29076 1.575195,0.27829 0.199503,-0.005 0.398774,-0.0573 0.597434,-0.0384 0.431136,0.041 0.844939,0.19179 1.270997,0.26947 0.573734,0.28178 1.134732,0.0132 1.711836,0.002 0.07554,-0.001 0.147844,0.0313 0.221763,0.0469 0.130686,-0.0197 0.261369,-0.0394 0.392052,-0.0591 0.133397,-0.054 0.576768,-0.22676 0.659662,-0.29431 0.02603,-0.0212 -0.06623,-0.0502 -0.05761,-0.0827 0.01185,-0.0447 0.346913,-0.68302 0.364524,-0.70597 0.12415,-0.16179 0.282358,-0.29432 0.423534,-0.44148 0.552112,-0.71436 -0.006,-0.45442 0.07956,-0.93366 0.02519,-0.14113 0.124867,-0.25857 0.174844,-0.39294 0.04423,-0.11891 0.07143,-0.24348 0.107154,-0.36523 0.24638,-0.64801 0.26603,-1.6588 -0.09788,-2.27129 -0.0828,-0.13936 -0.199128,-0.25583 -0.298694,-0.38375 -0.705675,-0.49294 -0.122777,0.0494 -0.373229,-0.60127 -0.04166,-0.10824 -0.181274,-0.16115 -0.218024,-0.27114 -0.02843,-0.0851 -0.07219,-0.97316 -0.07032,-1.10674 0,0 0.293325,-0.1776 0.293325,-0.1776 v 0 c 0.195188,0.62933 0.01632,-0.0819 0.05087,0.69303 0.01987,0.44596 0.09887,0.27801 0.218848,0.68471 0.0308,0.10441 -0.0013,0.22533 0.04606,0.32333 0.05809,0.12007 0.172169,0.20376 0.258254,0.30565 0.147844,0.16444 0.526505,0.53941 0.581152,0.77885 0.04167,0.1826 -0.03966,0.37445 -0.0263,0.56127 0.01191,0.16629 0.09401,0.32318 0.101494,0.48972 0.0056,0.12522 -0.117425,0.67133 -0.143516,0.79501 -0.04922,0.10757 -0.281313,0.57481 -0.293542,0.73361 -0.0071,0.092 0.04073,0.17989 0.0611,0.26983 0.03616,0.0501 0.108516,0.0884 0.108471,0.15021 -1.53e-4,0.20414 -0.323739,0.33146 -0.251073,0.5586 -0.340662,0.37911 -0.37029,0.36702 -0.607359,0.78972 -0.06271,0.11182 -0.08573,0.2471 -0.166384,0.34676 -0.34713,0.42893 -0.772549,0.62907 -1.262697,0.83664 -0.762172,0.0128 -1.535216,0.11604 -2.287207,-0.0363 -0.433369,-0.0656 -0.858498,-0.18427 -1.29404,-0.23342 -0.706199,-0.0797 -1.457457,0.0883 -2.101635,-0.3165 -0.385332,-0.11047 -0.857801,-0.24376 -0.970518,-0.70564 -0.02761,-0.11315 0.01371,-0.23295 0.0084,-0.34929 -0.04618,-1.01536 -0.09113,0.13113 0.0065,-1.18397 -0.0088,-0.22531 -0.02328,-0.45047 -0.0263,-0.67593 -0.0019,-0.13101 0.03544,-0.26398 0.01196,-0.39289 -0.0061,-0.0337 -0.08804,-0.012 -0.09191,-0.046 -0.0068,-0.0598 0.06623,-0.10718 0.06768,-0.16734 0.028,-1.16179 -0.275621,0.73136 0.0734,-1.01657 0.06029,-0.25862 0.12057,-0.51724 0.180856,-0.77586 -0.03344,-0.17071 -0.127553,-0.34032 -0.100325,-0.51213 0.08992,-0.56741 1.006009,-1.10757 1.423239,-1.39247 0.597056,-0.3073 1.017375,-0.93077 1.642522,-1.19121 0.202078,-0.0842 0.427469,-0.10738 0.64615,-0.11746 1.248992,-0.0576 1.011798,0.0261 2.202817,0.63095 0,0 -0.220027,0.15986 -0.220027,0.15986 z"
       inkscape:connector-curvature="0" />
    <path
       style="opacity:0.41000001;fill:#2e8e7e;fill-opacity:1;stroke:#d201ec;stroke-width:1;stroke-linejoin:round;stroke-miterlimit:4;stroke-dasharray:none;stroke-dashoffset:0;stroke-opacity:1"
       id="path1517"
       d="m 53.270348,116.78954 c 1.718013,0.0589 3.434365,-0.0261 5.146572,-0.041 1.957768,0.0587 0.02627,0.0133 2.082162,0.022 0.295312,0.001 0.592592,0.0516 0.885793,0.0164 0.657148,-0.079 1.139481,-0.44799 1.708007,-0.73342 0.665316,-0.0744 1.308449,-0.29718 1.973929,-0.36967 0.268574,-0.0293 0.543616,0.0365 0.810469,-0.006 0.56891,-0.0899 1.029118,-0.49455 1.495433,-0.79555 0.09706,-0.0151 0.192995,-0.0486 0.291177,-0.0454 0.256278,0.008 0.49643,0.1327 0.749922,0.17129 0.638707,0.0972 1.293233,0.0434 1.933556,0.009 0.4962,0.16587 1.033865,-0.13698 1.529223,-0.0377 0.565753,0.11344 -0.380119,0.20311 0.639358,0.007 0.478094,0.0595 0.962776,0.0275 1.442979,0.0194 0,0 -0.24824,0.21212 -0.24824,0.21212 v 0 c -0.516588,0.0446 -1.010341,0.0163 -1.524934,0.0499 -1.162158,-0.1742 0.694193,0.0777 -0.644488,-0.003 -0.06416,-0.004 -0.114826,-0.064 -0.178464,-0.0731 -0.417952,-0.0596 -0.836091,0.19647 -1.254107,0.0296 -0.27124,0.0301 -0.540898,0.0836 -0.813718,0.0902 -0.739502,0.0178 -1.449623,-0.41243 -2.194128,-0.17047 -0.303578,0.18041 -0.572966,0.41969 -0.891091,0.57301 -0.495249,0.23869 -0.915468,0.18212 -1.462288,0.2491 -0.33183,0.0406 -0.660797,0.10199 -0.991195,0.15299 -0.276723,0.0317 -0.553445,0.0635 -0.830168,0.0952 -0.591216,0.35714 -1.142293,0.75493 -1.852559,0.84044 -0.969489,0.11671 -1.963468,-0.19391 -2.935182,-0.0663 -1.701345,0.005 -3.401936,0.002 -5.104693,0.005 0,0 0.236675,-0.20214 0.236675,-0.20214 z"
       inkscape:connector-curvature="0" />
  </g>
</svg>
