<?xml version="1.0" encoding="UTF-8" standalone="no"?>
<!-- Created with Inkscape (http://www.inkscape.org/) -->

<svg
   xmlns:dc="http://purl.org/dc/elements/1.1/"
   xmlns:cc="http://creativecommons.org/ns#"
   xmlns:rdf="http://www.w3.org/1999/02/22-rdf-syntax-ns#"
   xmlns:svg="http://www.w3.org/2000/svg"
   xmlns="http://www.w3.org/2000/svg"
   xmlns:xlink="http://www.w3.org/1999/xlink"
   xmlns:sodipodi="http://sodipodi.sourceforge.net/DTD/sodipodi-0.dtd"
   xmlns:inkscape="http://www.inkscape.org/namespaces/inkscape"
   width="210mm"
   height="297mm"
   viewBox="0 0 210 297"
   version="1.1"
   id="svg8"
   inkscape:version="0.92.4 (5da689c313, 2019-01-14)"
   sodipodi:docname="kedar-sign.svg">
  <defs
     id="defs2">
    <linearGradient
       inkscape:collect="always"
       id="linearGradient1418">
      <stop
         style="stop-color:#ffffff;stop-opacity:1;"
         offset="0"
         id="stop1414" />
      <stop
         style="stop-color:#ffffff;stop-opacity:0;"
         offset="1"
         id="stop1416" />
    </linearGradient>
    <linearGradient
       inkscape:collect="always"
       xlink:href="#linearGradient1418"
       id="linearGradient1420"
       x1="15.119706"
       y1="79.648964"
       x2="19.107984"
       y2="79.648964"
       gradientUnits="userSpaceOnUse" />
    <linearGradient
       inkscape:collect="always"
       xlink:href="#linearGradient1418"
       id="linearGradient1422"
       x1="18.994699"
       y1="76.077213"
       x2="42.751871"
       y2="76.077213"
       gradientUnits="userSpaceOnUse" />
    <linearGradient
       inkscape:collect="always"
       xlink:href="#linearGradient1418"
       id="linearGradient1424"
       x1="41.29253"
       y1="73.772709"
       x2="54.098869"
       y2="73.772709"
       gradientUnits="userSpaceOnUse" />
    <linearGradient
       inkscape:collect="always"
       xlink:href="#linearGradient1418"
       id="linearGradient1426"
       x1="54.242442"
       y1="75.47376"
       x2="88.191253"
       y2="75.47376"
       gradientUnits="userSpaceOnUse" />
    <linearGradient
       inkscape:collect="always"
       xlink:href="#linearGradient1418"
       id="linearGradient1428"
       x1="83.690411"
       y1="76.91564"
       x2="100.63944"
       y2="76.91564"
       gradientUnits="userSpaceOnUse" />
    <linearGradient
       inkscape:collect="always"
       xlink:href="#linearGradient1418"
       id="linearGradient1430"
       x1="98.82771"
       y1="75.386092"
       x2="116.47224"
       y2="75.386092"
       gradientUnits="userSpaceOnUse" />
    <linearGradient
       inkscape:collect="always"
       xlink:href="#linearGradient1418"
       id="linearGradient1432"
       x1="116.06433"
       y1="75.284878"
       x2="129.63562"
       y2="75.284878"
       gradientUnits="userSpaceOnUse" />
    <linearGradient
       inkscape:collect="always"
       xlink:href="#linearGradient1418"
       id="linearGradient1434"
       x1="128.20066"
       y1="71.710005"
       x2="139.23703"
       y2="71.710005"
       gradientUnits="userSpaceOnUse" />
    <linearGradient
       inkscape:collect="always"
       xlink:href="#linearGradient1418"
       id="linearGradient1436"
       x1="141.27075"
       y1="72.700607"
       x2="158.32416"
       y2="72.700607"
       gradientUnits="userSpaceOnUse" />
    <linearGradient
       inkscape:collect="always"
       xlink:href="#linearGradient1418"
       id="linearGradient1438"
       x1="160.5063"
       y1="66.091393"
       x2="175.72016"
       y2="66.091393"
       gradientUnits="userSpaceOnUse" />
    <linearGradient
       inkscape:collect="always"
       xlink:href="#linearGradient1418"
       id="linearGradient1440"
       x1="171.50072"
       y1="70.08582"
       x2="188.44599"
       y2="70.08582"
       gradientUnits="userSpaceOnUse" />
    <linearGradient
       inkscape:collect="always"
       xlink:href="#linearGradient1418"
       id="linearGradient1442"
       x1="38.264665"
       y1="101.26114"
       x2="181.18705"
       y2="101.26114"
       gradientUnits="userSpaceOnUse" />
    <linearGradient
       inkscape:collect="always"
       xlink:href="#linearGradient1418"
       id="linearGradient1444"
       x1="83.990369"
       y1="110.14909"
       x2="95.705876"
       y2="110.14909"
       gradientUnits="userSpaceOnUse" />
    <linearGradient
       inkscape:collect="always"
       xlink:href="#linearGradient1418"
       id="linearGradient1446"
       x1="103.79539"
       y1="102.87647"
       x2="114.04423"
       y2="102.87647"
       gradientUnits="userSpaceOnUse" />
    <linearGradient
       inkscape:collect="always"
       xlink:href="#linearGradient1418"
       id="linearGradient1448"
       x1="84.65818"
       y1="119.37283"
       x2="122.90859"
       y2="119.37283"
       gradientUnits="userSpaceOnUse" />
  </defs>
  <sodipodi:namedview
     id="base"
     pagecolor="#ffffff"
     bordercolor="#666666"
     borderopacity="1.0"
     inkscape:pageopacity="0.0"
     inkscape:pageshadow="2"
     inkscape:zoom="0.74920735"
     inkscape:cx="124.56262"
     inkscape:cy="561.25984"
     inkscape:document-units="mm"
     inkscape:current-layer="layer1"
     showgrid="false"
     inkscape:window-width="1920"
     inkscape:window-height="1028"
     inkscape:window-x="0"
     inkscape:window-y="26"
     inkscape:window-maximized="1" />
  <metadata
     id="metadata5">
    <rdf:RDF>
      <cc:Work
         rdf:about="">
        <dc:format>image/svg+xml</dc:format>
        <dc:type
           rdf:resource="http://purl.org/dc/dcmitype/StillImage" />
        <dc:title />
      </cc:Work>
    </rdf:RDF>
  </metadata>
  <g
     inkscape:label="Layer 1"
     inkscape:groupmode="layer"
     id="layer1">
    <path
       style="opacity:0.41000001;fill:url(#linearGradient1420);fill-opacity:1;stroke:#ee0cd9;stroke-width:1;stroke-linejoin:round;stroke-miterlimit:4;stroke-dasharray:none;stroke-dashoffset:0;stroke-opacity:1"
       id="path895"
       d="m 16.863025,64.747327 c 0.366231,1.525027 0.432197,3.118445 0.26977,4.677984 -0.03567,0.342503 -0.147596,0.672851 -0.209666,1.011568 -0.200157,1.092256 -0.206941,1.387465 -0.338068,2.584659 0.02258,0.647994 0.07971,1.295705 0.06773,1.943979 -0.06221,3.365108 -0.216817,2.493166 -0.500183,5.965915 -0.248807,3.049217 -0.310548,6.106186 -0.242923,9.162335 0.04306,0.501195 -0.07978,1.32561 0.375321,1.763898 0.148851,0.143351 0.364083,0.198535 0.529706,0.322125 0.625744,0.466936 1.069495,1.042942 1.476677,1.697199 0.105538,0.146481 0.211077,0.292962 0.316615,0.439443 0,0 -0.335597,0.234165 -0.335597,0.234165 v 0 c -0.07825,-0.165759 -0.156501,-0.331515 -0.234752,-0.497272 -0.14878,-0.180818 -0.305679,-0.35525 -0.446338,-0.542454 -0.161985,-0.215587 -0.269207,-0.475167 -0.460827,-0.6649 -0.180609,-0.178829 -0.423861,-0.280612 -0.635791,-0.420918 -0.198814,-0.101595 -0.436343,-0.149164 -0.596441,-0.304781 -0.392097,-0.381125 -0.253529,-1.65353 -0.25952,-1.860008 0.0089,-1.828551 0.0078,-3.983678 0.07429,-5.780421 0.139959,-3.780935 0.669987,-7.533812 0.64721,-11.322825 0.06753,-1.163785 0.04577,-1.461643 0.232055,-2.527019 0.05898,-0.337318 0.177666,-0.664247 0.214201,-1.004729 0.168144,-1.566992 0.08196,-3.168761 -0.201096,-4.714994 0,0 0.257628,-0.162949 0.257628,-0.162949 z"
       inkscape:connector-curvature="0" />
    <path
       style="opacity:0.41000001;fill:url(#linearGradient1422);fill-opacity:1;stroke:#ee0cd9;stroke-width:1;stroke-linejoin:round;stroke-miterlimit:4;stroke-dasharray:none;stroke-dashoffset:0;stroke-opacity:1"
       id="path897"
       d="m 36.653753,63.340434 c -1.480762,1.39218 -3.117721,2.708347 -4.291375,4.392901 -0.906063,1.300477 -0.458351,1.373463 -1.445104,2.707026 -0.450461,0.608785 -1.017418,1.122051 -1.526127,1.683076 -2.155727,2.06724 -4.591673,3.832495 -7.061255,5.504135 -0.338338,0.100846 -0.319736,-0.03536 -0.574277,-0.144061 -0.07385,-0.03154 -0.166915,-0.0209 -0.230558,-0.06986 -0.62063,-0.477554 -0.681841,-0.730734 -1.122239,-1.4269 -0.499966,-0.521536 -0.332006,-1.26365 -0.560752,-1.863238 -0.04513,-0.118303 -0.374196,-0.06408 -0.349074,-0.179504 0.03284,-0.150874 0.2405,-0.193704 0.36075,-0.290555 0.377033,-0.227007 0.640133,0.07343 1.001761,0.08888 0.172198,0.0074 0.341467,-0.08568 0.512761,-0.06658 0.698181,0.07784 1.496687,0.486265 2.104494,0.742127 0.359971,0.276681 0.719942,0.553361 1.079914,0.830041 0.414716,0.287044 0.839611,0.559911 1.24415,0.861126 0.519149,0.386553 1.007459,0.81335 1.525624,1.201221 1.562815,1.169848 3.186869,2.225323 4.852845,3.239093 2.290532,1.175861 4.184679,2.954438 6.069203,4.675772 0.575754,0.525894 1.113351,1.093592 1.703176,1.603653 1.592622,1.224333 0.929658,0.671817 2.020681,1.618647 0.09452,0.04259 0.189044,0.08518 0.283567,0.127772 0,0 -0.3125,0.238723 -0.3125,0.238723 v 0 c -0.07089,-0.06211 -0.141784,-0.124227 -0.212677,-0.18634 -1.740699,-1.364925 0.664369,0.552203 -1.927413,-1.68922 -0.598485,-0.51758 -1.232577,-0.992867 -1.833766,-1.507304 -0.720616,-0.61663 -1.395434,-1.286627 -2.131002,-1.885344 -1.267446,-1.031643 -2.561436,-1.891276 -3.898926,-2.812175 -1.399453,-0.80982 -1.874076,-1.040455 -3.194307,-1.981078 -3.76447,-2.682065 0.337455,0.141057 -3.128951,-2.50476 -0.768175,-0.58633 -1.64576,-1.019114 -2.401782,-1.623674 -1.034875,-0.417518 -1.149705,-0.550653 -2.148514,-0.689771 -0.143317,-0.01995 -0.289903,0.01172 -0.434101,-2.65e-4 -0.373443,-0.03118 -0.697327,-0.194027 -1.062235,-0.0037 0.245537,-0.262358 0.05399,-0.164203 0.401332,-0.02787 0.05502,0.02159 0.132865,-0.01236 0.174912,0.02918 0.129615,0.128068 0.236974,1.976257 0.463641,1.913572 1.192566,1.406461 0.160001,0.267449 1.249701,1.302004 0.05113,0.04854 0.0737,0.125494 0.131825,0.165396 0.05414,0.03717 0.129212,0.02824 0.189187,0.05499 0.03619,0.01614 0.05521,0.07296 0.09482,0.07171 0.118374,-0.0037 0.229903,-0.057 0.344855,-0.08549 0.483942,-0.233656 0.01784,0.0046 0.947242,-0.652068 1.960516,-1.385086 3.889228,-2.841651 5.644579,-4.483528 0.488572,-0.548114 1.028483,-1.054458 1.465715,-1.644336 3.417319,-4.610372 -1.251714,1.235488 1.363213,-2.67059 1.104125,-1.649296 2.921225,-3.06497 4.341876,-4.428281 0,0 0.275106,-0.134498 0.275106,-0.134498 z"
       inkscape:connector-curvature="0" />
    <path
       style="opacity:0.41000001;fill:url(#linearGradient1424);fill-opacity:1;stroke:#ee0cd9;stroke-width:1;stroke-linejoin:round;stroke-miterlimit:4;stroke-dasharray:none;stroke-dashoffset:0;stroke-opacity:1"
       id="path899"
       d="m 44.161702,64.89742 c 0.08877,-0.370972 0.177535,-0.741947 0.266303,-1.11292 0.0052,-0.01894 0.01,-0.07566 0.01561,-0.05683 0.427887,1.434867 0.252585,0.85907 0.210397,2.728402 -0.01386,0.614108 -0.01696,1.228412 -0.02545,1.842621 -0.01643,0.630849 -0.03288,1.261698 -0.04932,1.892547 -0.06942,1.193575 0.07985,2.385456 0.06041,3.578203 -0.01085,0.66543 -0.103172,1.328108 -0.108487,1.993607 -0.0055,0.683109 0.05966,1.365046 0.07622,2.047978 0.02133,0.879925 0.04753,4.313653 0.05411,5.066591 -0.02498,1.002461 -0.07424,2.00461 -0.07495,3.007383 -5.29e-4,0.753005 0.06908,1.504887 0.07123,2.257886 0.0011,0.404355 -0.09349,0.808442 -0.06133,1.211519 0.01082,0.135699 0.06074,0.414075 0.186957,0.363085 0.128207,-0.05179 -0.06208,-0.270185 -0.07651,-0.407702 -0.03263,-0.31092 -0.04299,-0.623774 -0.06449,-0.935659 -0.373854,-0.939795 -0.359574,-0.998532 -0.853572,-1.871379 -0.150506,-0.265931 -0.585576,-0.873311 -0.70503,-1.232517 -0.128508,-0.386427 -0.171897,-0.796123 -0.259813,-1.193755 0.05269,-0.461036 -0.04867,-0.982022 0.06269,-1.439264 0.01643,-0.06746 0.09292,-0.110255 0.108183,-0.177986 0.07729,-0.342998 -0.0053,-0.703175 -0.0076,-1.054766 0.165425,-1.807123 0.406892,-3.615119 0.418351,-5.433351 0.01783,-2.830822 -0.23033,0.09625 0.08898,-2.789558 0.09641,-0.579652 0.189743,-1.15982 0.289221,-1.738953 0.278358,-1.620554 0.415602,-2.157918 0.587891,-3.744722 0.0605,-0.557186 0.0776,-1.118473 0.136329,-1.675852 0.118594,-1.125593 0.254812,-1.928873 0.424416,-3.021811 0.06124,-0.29155 0.108979,-0.58627 0.183737,-0.874649 0.08201,-0.316365 0.210315,-0.619882 0.286112,-0.937792 0.147053,-0.616784 0.09861,-1.281094 0.354526,-1.861746 0.519406,-0.542817 1.366007,-1.449247 2.067116,-1.693291 0.09832,-0.03422 0.206875,0.02365 0.310311,0.03548 0.476369,-0.09852 1.019252,0.207621 1.474068,0.219517 0.568735,0.01487 0.526912,-0.293637 1.003437,0.120465 0.872115,0.86845 0.743506,0.675415 1.568503,1.849456 0.335185,0.476993 0.722188,0.928621 0.965018,1.458629 0.3757,0.820021 0.499485,2.009352 0.436427,2.90431 -0.02913,0.413353 -0.15163,0.814763 -0.227446,1.222145 -0.322792,1.873197 -0.954709,1.887691 -2.388738,2.934028 -1.72988,1.2622 0.638482,-0.08917 -1.921759,1.238721 -0.481393,0.141219 -0.947271,0.344731 -1.461727,0.30044 -0.154713,-0.01331 -0.294876,-0.0998 -0.446847,-0.131694 -0.147466,-0.03095 -0.306258,-0.0066 -0.448522,-0.0562 -0.427154,-0.149061 -0.567383,-0.365109 -0.877395,-0.677087 -0.757918,-0.412414 -1.515626,-0.154056 -2.327143,-0.09893 -1.335878,0.09075 0.0092,-0.08712 -1.150228,0.08647 -0.30175,0.190211 -0.303305,0.07006 -0.214265,0.289906 0,0 -0.325316,0.173234 -0.325316,0.173234 v 0 c 0.602792,-0.613257 0.307663,-0.407223 0.81915,-0.703535 1.269701,-0.193419 -0.312915,0.01955 1.130009,-0.07236 0.422103,-0.02689 1.474795,-0.27341 1.908807,-0.105426 0.142997,0.05535 0.247156,0.181541 0.370732,0.272312 0.146754,0.128606 0.274039,0.283607 0.440261,0.385815 0.160634,0.09877 0.349549,0.141703 0.525965,0.208309 0.806398,0.304462 1.482636,0.254993 2.294142,-0.09307 1.32353,-0.51576 0.245335,-0.01371 1.886368,-1.210373 0.207213,-0.151104 0.457353,-0.239353 0.657079,-0.400225 0.753629,-0.607015 1.089152,-1.218814 1.231945,-2.165313 0.199046,-0.982562 0.412099,-1.602922 0.23931,-2.63584 -0.230555,-1.378262 -1.333066,-3.04904 -2.216726,-4.115181 -0.207243,-0.250039 -0.466453,-0.451993 -0.69968,-0.677989 -0.09345,-0.05703 -0.172305,-0.153464 -0.280355,-0.171082 -0.122301,-0.01995 -0.242377,0.05582 -0.365901,0.0657 -0.452564,0.0362 -0.844568,-0.08776 -1.279638,-0.165079 -0.18047,-0.03207 -0.3648,-0.03621 -0.547201,-0.05432 -0.108373,-0.0013 -0.216956,0.0032 -0.325125,-0.0036 -0.02143,-0.0013 -0.0435,-0.03308 -0.06104,-0.02066 -0.518758,0.36672 -0.992679,0.855361 -1.434795,1.301414 -0.02848,0.08895 -0.201724,0.626544 -0.21059,0.671507 -0.252624,1.280993 0.143303,-0.160623 -0.204883,1.220036 -0.07809,0.309639 -0.1885,0.610785 -0.260609,0.921872 -0.06538,0.282027 -0.100883,0.570153 -0.151326,0.855228 -0.116356,0.467514 -0.27323,0.926772 -0.349073,1.402538 -0.175493,1.100878 -0.15612,2.224694 -0.279029,3.332676 -0.128651,1.159716 -0.373198,2.595052 -0.564986,3.732353 -0.0981,0.581694 -0.20184,1.16242 -0.302763,1.74363 -0.07077,0.48146 -0.19554,0.958035 -0.212296,1.444379 -0.0155,0.450128 0.09505,0.896281 0.116162,1.346184 0.0855,1.822053 -0.185399,3.622638 -0.406884,5.425477 0.01497,0.346517 0.08149,0.695235 0.04105,1.039709 -0.02167,0.184539 -0.268811,0.314154 -0.13667,0.540407 -0.01093,0.150624 0.0098,0.301887 0.01476,0.452829 -0.02125,0.208169 -0.04249,0.416335 -0.06374,0.624504 0.03321,0.254151 0.120811,1.005038 0.197411,1.220531 0.0589,0.165695 0.179999,0.302162 0.271891,0.452093 0.517417,0.844217 1.075603,1.666931 1.31863,2.644169 0.106508,0.670602 0.411674,1.24387 -0.412617,1.704306 -0.127199,0.07105 -0.11035,-0.273566 -0.126601,-0.418357 -0.04258,-0.379325 -0.03989,-0.762479 -0.04876,-1.144082 -0.05708,-2.453116 -0.02606,-2.603465 0.01463,-5.271968 0.0021,-0.912101 0.0158,-1.824249 0.0063,-2.736305 -0.0081,-0.777177 -0.06406,-1.553705 -0.05911,-2.330911 0.0046,-0.716703 0.08059,-1.431684 0.08762,-2.148369 0.0062,-0.632716 -0.04388,-1.264901 -0.04789,-1.897636 -0.03305,-5.218189 0.104473,1.63063 -0.01767,-3.605128 0.02431,-0.635799 0.06365,-1.271199 0.07291,-1.907394 0.02246,-1.542556 -0.10994,-2.061277 0.113233,-3.590531 0.06543,-0.448339 0.280419,-0.869731 0.319847,-1.321099 0.0076,-0.08705 -0.144841,0.09781 -0.217262,0.146709 -0.04085,0.342368 -0.0817,0.684736 -0.122542,1.027104 0,0 -0.303078,0.179861 -0.303078,0.179861 z"
       inkscape:connector-curvature="0" />
    <path
       style="opacity:0.41000001;fill:url(#linearGradient1426);fill-opacity:1;stroke:#ee0cd9;stroke-width:1;stroke-linejoin:round;stroke-miterlimit:4;stroke-dasharray:none;stroke-dashoffset:0;stroke-opacity:1"
       id="path901"
       d="m 55.842073,65.223803 c -0.74,0.118501 1.37019,-1.122095 1.566124,-0.598683 0.125728,0.335859 0.03901,0.71833 0.0104,1.075809 -0.116062,1.450493 -0.623424,2.781546 -1.097629,4.141824 -0.08208,0.525341 -0.206954,1.04576 -0.24625,1.57602 -0.05233,0.706228 0.01643,1.417539 -0.02796,2.12431 -0.151585,2.413601 -0.340424,2.514682 -0.667277,4.962938 -0.343513,2.573052 -0.274952,2.459466 -0.332171,4.962152 0.0042,0.546095 -0.02516,1.093483 0.01262,1.638281 0.01352,0.194863 0.158768,0.374415 0.140525,0.568891 -0.0061,0.06502 -0.18488,0.01389 -0.189079,-0.05127 -0.01431,-0.222232 0.09428,-0.435306 0.143754,-0.652434 0.271227,-1.19022 0.202795,-0.616309 0.262376,-1.541544 -0.09301,-1.296964 -0.08011,-2.597798 -0.05978,-3.896897 0.0141,-0.902036 -0.03869,-1.809044 0.06004,-2.705772 0.07067,-0.641895 1.120957,-5.744718 1.228886,-6.277004 0.666639,-3.108328 1.269812,-5.66071 3.725788,-7.851643 0.263086,-0.234693 0.569826,-0.415308 0.854737,-0.622964 0.259641,-0.142745 1.02063,-0.790464 1.405776,-0.666924 0.521036,0.167126 1.012418,3.020282 1.093846,3.370405 0.177056,1.221801 0.364797,2.749261 0.673428,3.948178 0.162367,0.630727 0.434882,1.229506 0.599117,1.859749 0.175305,0.672724 0.235363,1.372483 0.417968,2.043263 0.201273,0.739352 0.547719,1.435386 0.731522,2.179272 0.207936,0.841555 0.293492,1.708709 0.440238,2.563061 0.351488,2.729024 0.35674,1.649106 0.235926,3.765781 -0.0066,0.116215 0.06517,0.418562 -0.02751,0.34813 -0.514874,-0.391292 -0.166148,-2.928329 -0.132067,-3.454617 0.688726,-1.164457 0.583279,-2.526551 0.974794,-3.77177 0.321625,-1.02294 0.885976,-1.973363 1.475878,-2.858804 1.12646,-1.46462 1.693026,-3.244895 2.9099,-4.645057 0.726882,-0.836364 1.14562,-1.141891 1.935107,-1.796846 0.08727,-0.153705 0.200385,-0.295384 0.261819,-0.461116 0.07896,-0.213021 -0.04643,-0.329589 0.06322,-0.531016 0.277418,-0.50963 0.786368,-0.635455 1.31418,-0.608505 0.159546,0.0061 0.319093,0.01228 0.478639,0.01841 0.112898,0.03485 0.220943,0.09479 0.338693,0.104542 0.146177,0.01212 0.291682,-0.04712 0.438195,-0.04019 0.03433,0.0016 0.05236,0.04465 0.08027,0.06472 0.982218,0.706268 0.513768,0.255034 1.288079,1.226629 0.274375,0.314383 0.614426,0.581814 0.823124,0.943147 0.256857,0.444717 0.603059,1.798897 0.608679,2.338234 0.0059,0.566425 -0.109035,1.127654 -0.16315,1.691521 -0.261236,2.722094 -0.156813,1.605748 -0.404828,4.378243 0.304998,2.325986 0.417573,4.669647 0.560638,7.009061 0.06214,1.016056 0.141767,1.976538 0.353066,2.970207 0.261646,0.697434 0.3678,1.595589 0.919117,2.148451 0.397767,0.398881 0.856134,0.732354 1.282944,1.099995 0.601411,0.08864 0.667498,0.765196 1.084442,1.044609 0.955945,0.64062 2.588429,0.906524 3.730649,1.044118 0.25715,7.93e-4 0.43356,-0.145489 0.67251,-0.205494 0,0 -0.33603,0.302379 -0.33603,0.302379 v 0 c -0.17913,0.0098 -0.33898,0.06686 -0.52232,0.05837 -1.26222,-0.125793 -2.73376,-0.25523 -3.80174,-1.012595 -0.405747,-0.287734 -0.450361,-0.957265 -1.021035,-1.088242 -0.252056,-0.210118 -0.488411,-0.44065 -0.756169,-0.630356 -0.0091,-0.0064 -0.972143,-0.512876 -1.056304,-0.667443 -0.09359,-0.171876 -0.03719,-0.390843 -0.08193,-0.581364 -0.03028,-0.128963 -0.402598,-1.219343 -0.433263,-1.310021 -0.07807,-0.573135 -0.206854,-1.141156 -0.239681,-1.718651 -0.02514,-0.441971 0.03588,-0.886579 0.0031,-1.328052 -0.05278,-0.711669 -0.19591,-1.414307 -0.259215,-2.125112 -0.143949,-1.616327 -0.137813,-3.24425 -0.354306,-4.855261 0.319516,-3.335959 0.120798,-1.126572 0.381519,-4.365447 0.177543,-2.205593 0.481372,-3.30049 -1.293254,-4.922634 -0.47811,-0.615752 -0.556091,-0.832345 -1.21724,-1.246399 -0.100848,-0.06316 -1.211006,0.0362 -1.301718,-0.174953 -0.142608,0.0043 -0.285216,0.01712 -0.427821,0.01281 -0.04094,-0.0013 -0.08523,-0.05202 -0.119337,-0.02933 -0.484318,0.322229 -0.218253,0.893229 -0.58677,1.293996 -1.102039,0.886639 -2.09742,1.835576 -2.881632,3.029132 -0.71546,1.088919 -1.139807,2.358091 -1.946548,3.392882 -0.164528,0.232346 -0.354647,0.448548 -0.49359,0.697045 -1.011084,1.808339 -1.384671,3.862226 -1.857502,5.853654 -0.06608,0.526997 -0.163762,1.050989 -0.198239,1.580994 -0.06956,1.069293 0.219601,1.383483 -0.328145,2.272475 -0.05699,0.09249 -0.01061,-0.217035 -0.0149,-0.325597 -0.09068,-2.304751 -0.004,-0.532937 -0.194868,-3.782811 -0.167942,-0.839904 -0.308689,-1.685708 -0.503825,-2.519712 -0.96488,-4.123869 -0.2217,-0.465264 -1.235048,-4.166772 -0.177359,-0.647837 -0.289706,-1.311759 -0.439963,-1.966412 -0.629483,-2.742605 -0.34095,-1.106329 -0.726471,-3.913055 -0.0016,-0.0062 -0.610788,-2.63956 -0.697826,-2.853404 -0.07626,-0.187365 -0.264795,-0.307195 -0.37738,-0.475256 -0.04098,-0.06117 -0.01021,-0.232066 -0.07914,-0.206208 -1.822011,0.683485 -0.296497,0.433507 -0.775002,0.507775 -0.161237,0.123362 -0.317677,0.253262 -0.483711,0.370089 -0.148159,0.104248 -0.326588,0.167867 -0.45802,0.292542 -2.189872,2.077339 -3.16933,4.881104 -3.658727,7.797368 -0.441518,2.086425 -0.925682,4.115091 -1.170342,6.236637 -0.192231,1.666925 -0.224989,3.103967 -0.143309,4.752112 0.0199,0.401273 0.100954,0.798103 0.117948,1.19951 0.0098,0.230431 -0.02527,0.460584 -0.03792,0.690877 -0.07372,0.701604 -0.06563,1.54005 -0.379457,2.186821 -0.301985,0.622369 -0.434351,0.343583 -0.496443,-0.195305 -0.06143,-0.533159 -0.04358,-1.072488 -0.06537,-1.608735 0.113999,-2.244064 0.09177,-2.735019 0.408451,-5.01247 0.119999,-0.862968 0.322495,-1.713405 0.434456,-2.577452 0.96919,-7.479631 -0.412996,2.344936 0.19435,-4.470739 0.04954,-0.555982 0.230177,-1.09238 0.345263,-1.63857 0.434477,-1.329081 0.482653,-1.383506 0.803478,-2.723118 0.128514,-0.536601 0.524754,-1.741432 0.214167,-2.388222 -0.182451,-0.379954 -0.936752,0.194244 -0.965451,0.210051 0,0 -0.335142,0.170764 -0.335142,0.170764 z"
       inkscape:connector-curvature="0" />
    <path
       style="opacity:0.41000001;fill:url(#linearGradient1428);fill-opacity:1;stroke:#ee0cd9;stroke-width:1;stroke-linejoin:round;stroke-miterlimit:4;stroke-dasharray:none;stroke-dashoffset:0;stroke-opacity:1"
       id="path903"
       d="m 84.734724,63.474795 c -0.534024,2.0291 -0.278582,4.107053 -0.202091,6.165239 0.03833,1.031436 0.02506,2.064271 0.0576,3.095903 -0.165036,1.914694 0.278665,3.785166 0.550839,5.663766 0.166502,1.149228 0.223282,2.314551 0.433255,3.456638 0.07004,0.380963 0.196498,0.749361 0.294746,1.124042 -0.715979,0.699392 0.321119,0.36752 0.337449,0.594921 0.0069,0.09665 -0.07634,0.178716 -0.102608,0.271984 -0.05026,0.178403 -0.101616,0.357788 -0.126521,0.541454 -0.07536,0.555712 -0.04548,0.857824 -0.02891,1.403289 0.0386,0.831765 -0.04827,1.712585 0.530493,2.390439 0.781817,0.915667 0.344035,-0.03439 0.683908,0.871175 0.0078,0.01884 0.21263,0.510818 0.211418,0.525687 -0.03038,0.373277 -0.487143,0.713264 -0.796078,0.771208 -0.252188,0.0473 -0.777995,-0.582255 -0.856568,-0.662255 -0.16388,-0.156017 -0.370594,-0.276881 -0.491643,-0.46805 -0.443061,-0.699704 -0.311997,-0.899285 -0.439971,-1.650553 -0.03922,-0.230254 -0.121517,-0.451988 -0.157628,-0.682747 -0.105817,-0.676201 -0.159459,-1.359802 -0.262048,-2.036498 -0.136925,-1.796073 -0.436738,-3.722838 0.393141,-5.401614 0.07583,-0.153395 0.163788,-0.308816 0.291841,-0.422317 0.153882,-0.136396 0.355793,-0.206264 0.533688,-0.309393 -0.220228,-0.319244 -0.128463,-0.123217 0.105297,-0.864262 0.296553,-0.940094 0.867007,-1.20618 1.661977,-1.713569 0.04569,-0.04006 0.0933,-0.07804 0.137068,-0.120197 0.339256,-0.326811 0.412956,-0.480319 0.90348,-0.684977 0.176017,-0.07344 0.643485,0.05073 0.735455,-0.198612 0.462885,-0.538782 1.458685,-1.268423 2.220145,-0.874107 0.432398,0.223914 0.766887,0.667591 1.078902,1.017013 0.424963,0.672574 0.684583,1.530451 1.296948,2.075638 0.262186,0.233423 0.583562,0.390919 0.8646,0.601266 0.06984,0.181747 0.126833,0.368972 0.209531,0.545245 0.08329,0.177541 0.211577,0.332523 0.287171,0.513477 0.367355,0.879353 0.191085,1.768229 0.03785,2.670294 -0.115554,0.48137 0.05486,0.969952 0.05031,1.458936 -0.0026,0.278064 -0.06047,0.552855 -0.0907,0.829284 -0.07854,0.671107 0.294087,1.22882 0.536078,1.817587 0.04551,0.110728 0.0293,0.246427 0.09539,0.346249 0.08028,0.121259 0.217262,0.193368 0.325895,0.290052 0.538268,0.484913 0.318445,0.308039 1.038103,0.834004 0.179327,0.131062 0.337357,0.30216 0.542886,0.386377 0.444518,0.182149 1.040156,-0.0172 1.457679,-0.151922 0.215112,-0.400999 0.231786,-0.881512 0.391496,-1.296519 0.01381,-0.03592 0.396894,-0.693221 0.434986,-0.758851 0,0 0.229947,-0.126415 0.229947,-0.126415 v 0 c -0.0336,0.05558 -0.445995,0.734827 -0.458002,0.765738 -0.266875,0.687038 -0.09274,1.210072 -0.867601,1.65917 -1.615834,0.461034 -1.796256,-0.142435 -3.073704,-1.090215 -0.02627,-0.03494 -0.425048,-0.555165 -0.45969,-0.635418 -0.04637,-0.107429 -0.03912,-0.231431 -0.07379,-0.343183 -0.164711,-0.530903 -0.510175,-0.952408 -0.368112,-1.544413 0.01,-0.521428 0.05901,-1.041736 0.06476,-1.563227 7.93e-4,-0.06516 -0.126831,-0.448821 -0.113441,-0.50161 0.02008,-0.07918 0.06,-0.151961 0.09,-0.227942 0.0096,-0.667826 0.201938,-1.385403 0.130874,-2.04707 -0.06398,-0.595736 -0.485759,-1.080257 -0.707374,-1.614713 -0.34711,-0.251854 -0.899155,-0.679058 -1.159378,-1.011404 -0.400804,-0.511889 -0.511291,-1.223407 -1.056881,-1.635643 -0.33365,-0.417537 -0.780171,-1.127662 -1.411007,-1.130163 -0.19377,-7.93e-4 -0.382222,0.06477 -0.571629,0.105662 -0.09758,0.02106 -0.207889,0.0213 -0.288584,0.08006 -0.150548,0.109644 -0.254431,0.272045 -0.381646,0.408067 -0.185327,0.137499 -0.354671,0.299683 -0.555979,0.412496 -0.231746,0.129868 -0.596204,-0.01265 -0.787778,0.155737 -0.104474,0.09183 -0.174871,0.21872 -0.28153,0.307998 -0.223126,0.18677 -0.469088,0.344422 -0.703631,0.516634 -0.332702,0.21591 -0.721582,0.401092 -0.933539,0.759608 -0.360416,0.609624 -0.127768,1.416262 -0.849776,1.827043 0.123973,-0.281157 0.07094,-0.136694 -0.309002,0.343022 -0.167663,0.301334 -0.340907,0.609748 -0.420142,0.945359 -0.324432,1.374163 -0.04266,3.036715 0.05307,4.421293 0.0522,0.80274 0.04977,1.318358 0.204367,2.070899 0.04644,0.226039 0.137258,0.441613 0.181078,0.668171 0.05012,0.259098 0.01598,0.535204 0.100066,0.785349 0.197405,0.587264 0.483645,0.850815 0.859835,1.290108 0.142671,0.147371 0.263213,0.319993 0.428016,0.442117 0.177827,0.13177 0.735317,0.375901 0.654767,-0.156755 -0.01455,-0.09622 -0.124126,-0.149905 -0.186192,-0.224857 0.008,-0.107071 0.01593,-0.21414 0.02389,-0.321212 -0.229172,-0.292661 -0.523531,-0.534503 -0.72697,-0.845603 -0.133458,-0.204089 -0.197485,-0.4461 -0.305858,-0.664546 -0.09187,-0.185182 -0.258064,-0.342262 -0.294571,-0.545729 -0.06954,-0.38757 0.181599,-0.789774 0.03515,-1.180751 0.02318,-0.476583 0.01918,-0.95494 0.06337,-1.430033 0.05554,-0.597154 0.192511,-0.850276 -0.01373,-1.452682 -0.108226,-0.369276 -0.243309,-0.731721 -0.324676,-1.107829 -0.05544,-0.256254 -0.520777,-3.318705 -0.532477,-3.394022 -0.121232,-0.780489 -0.516916,-3.125388 -0.559133,-3.988228 -0.02784,-0.569053 0.03393,-1.13896 0.0509,-1.708441 -0.08773,-3.087955 -0.258554,-6.187401 0.138297,-9.262838 0,0 0.292558,-0.17431 0.292558,-0.17431 z"
       inkscape:connector-curvature="0" />
    <path
       style="opacity:0.41000001;fill:url(#linearGradient1430);fill-opacity:1;stroke:#ee0cd9;stroke-width:1;stroke-linejoin:round;stroke-miterlimit:4;stroke-dasharray:none;stroke-dashoffset:0;stroke-opacity:1"
       id="path905"
       d="m 108.27575,73.376064 c -0.61682,-1.080431 -1.28617,-2.144061 -2.19834,-3.002566 -0.12779,-0.120274 -0.24817,-0.265332 -0.41234,-0.327342 -0.10838,-0.04094 -0.22935,0.03641 -0.3451,0.04124 -0.0918,0.0038 -0.18351,-0.01021 -0.27526,-0.01532 -0.54602,-0.138393 -1.08451,-0.02143 -1.63223,-0.0036 -0.61736,0.02006 -0.44222,-0.138157 -1.06229,0.124778 -0.23599,0.100065 -0.45047,0.244724 -0.6757,0.367083 -0.54433,0.429821 -0.96444,0.966422 -1.37547,1.51511 -0.0933,0.124529 -0.23721,0.217699 -0.29402,0.36255 -0.144152,0.367464 -0.09059,0.919533 -0.08074,1.295461 -0.03314,0.482799 -0.366419,1.528604 -0.254484,2.023557 0.04781,0.211408 0.526164,0.889781 0.597364,0.997421 0.0654,0.44786 0.55817,0.577647 0.74824,0.926015 0.0686,0.125704 -0.006,0.308621 0.0823,0.42163 0.091,0.11693 0.28892,0.097 0.39871,0.196485 0.10924,0.09898 0.15531,0.250595 0.23296,0.375891 0.13899,0.102002 0.27797,0.204004 0.41696,0.306006 0.4195,0.510328 0.72785,0.776356 1.32656,1.067684 0.15591,0.07586 0.30361,0.182642 0.47417,0.213815 0.11309,0.02066 0.59466,-0.0598 0.75864,-0.085 0.18653,-0.05231 0.38358,-0.076 0.5596,-0.156933 0.27696,-0.127341 0.2697,-0.447595 0.38421,-0.680659 0.12127,-0.246819 0.27428,-0.476729 0.41095,-0.715364 0.10398,-0.181555 0.18154,-0.380828 0.31096,-0.545206 0.14236,-0.180795 0.33082,-0.319955 0.49622,-0.479933 0.1021,-0.120319 0.2655,-0.208524 0.30629,-0.360961 0.0339,-0.126682 -0.0723,-0.252113 -0.10849,-0.378169 0.0305,-0.219424 0.034,-0.444328 0.0915,-0.658272 0.0746,-0.277736 0.21181,-0.535086 0.30251,-0.807998 0.11169,-0.336084 0.1836,-0.678574 0.26236,-1.022548 0.0557,-0.09652 0.13178,-0.183857 0.16705,-0.289558 0.14999,-0.449506 0.16288,-0.935302 0.29127,-1.391449 0.0816,-0.289994 0.21443,-0.563607 0.30143,-0.852035 0.0803,-0.266274 0.25705,-1.069776 0.32896,-1.389327 0.30082,-0.137766 -0.27031,-0.411221 -0.1374,-0.541769 0.23126,-0.227131 0.45809,-0.02703 0.5694,0.145542 0.41381,0.641535 0.30848,0.781434 0.43824,1.672564 0.0644,0.950547 0.11649,0.977913 0.003,1.869747 -0.022,0.172312 -0.0964,0.336798 -0.10595,0.510246 -0.007,0.122364 0.05,0.240752 0.058,0.36304 0.0227,0.346615 -0.0145,0.694571 -0.0181,1.041905 -0.0998,1.114296 0.004,2.215309 0.18459,3.313631 0.0897,0.54595 0.13436,1.007306 0.43546,1.464549 0.11246,0.0486 0.23154,0.0841 0.33738,0.145814 0.1304,0.07603 0.23358,0.194821 0.36723,0.264996 0.54899,0.28824 1.24814,0.140348 1.8371,0.09995 0.61178,-0.112265 1.2465,-0.06445 1.86626,-0.0514 0.10297,0.0021 0.20626,0.05368 0.30718,0.03317 0.10287,-0.0209 0.18398,-0.101145 0.27596,-0.151714 0.24911,-0.368721 0.11156,-0.158525 0.40712,-0.63417 0,0 0.33639,-0.176995 0.33639,-0.176995 v 0 c -0.49325,0.666123 -0.1899,0.315788 -0.95448,1.010838 -0.48241,0.250359 -0.50933,0.121356 -1.00419,0.100623 -0.47985,-0.02011 -0.97558,0.04056 -1.45469,0.06239 -1.09648,0.08291 -1.66268,0.225218 -2.59805,-0.507805 -0.40477,-0.420182 -0.0697,0.02921 -0.19239,-0.725537 -0.18019,-1.109044 -0.34258,-0.510755 -0.46228,-1.795309 -0.0692,-0.742667 0.14244,-1.496833 -0.0394,-2.237306 0.0435,-1.28501 0.26422,-2.5556 0.16847,-3.844129 -0.0766,-0.362627 -0.1027,-0.739751 -0.22989,-1.087877 -0.0514,-0.140631 -0.81715,-0.866044 -0.24088,-1.079653 0.19316,-0.0716 -0.0372,0.820221 0.0438,0.616468 0.0232,0.16106 0.0985,0.323075 0.0695,0.48318 -0.10858,0.598606 -0.44398,1.134192 -0.62074,1.71632 -0.0801,0.263771 -0.14401,0.532723 -0.19573,0.803489 -0.0367,0.192223 -0.0101,0.396423 -0.0691,0.58301 -0.0371,0.117403 -0.14076,0.202078 -0.21113,0.303117 -0.12165,0.470257 -0.13177,0.534522 -0.29871,1.046906 -0.0853,0.261792 -0.21071,0.512032 -0.26785,0.781373 -0.0751,0.353832 0.0576,0.736764 -0.0427,1.084278 -0.0353,0.122391 -0.14185,0.211635 -0.21278,0.317453 -0.4832,0.521713 -0.93029,1.083749 -1.23161,1.735788 -0.0702,0.151815 -0.029,0.356158 -0.13902,0.482081 -0.56712,0.648859 -0.66271,0.591458 -1.294,0.699818 -1.22142,0.321884 -1.83096,-0.366358 -2.59607,-1.204484 -0.24085,-0.207761 -0.45198,-0.448485 -0.69371,-0.655225 -0.10667,-0.09124 -0.24853,-0.138369 -0.3474,-0.238021 -0.36888,-0.371819 -0.40738,-1.020223 -0.904402,-1.296025 -0.07949,-0.123269 -0.547206,-0.803751 -0.598369,-1.024353 -0.163033,-0.702982 0.527836,-1.347845 0.322451,-2.061067 -0.02064,-0.190823 -0.133178,-1.031727 -0.07283,-1.239353 0.04244,-0.146026 0.184928,-0.241631 0.283548,-0.357383 0.614752,-0.721554 1.211772,-1.435487 2.024042,-1.954343 0.3485,-0.181035 0.89915,-0.506655 1.30566,-0.567703 0.15879,-0.02384 0.31778,0.05197 0.47826,0.05759 0.54563,0.01913 1.09579,-0.06812 1.64129,5.3e-5 0.4214,0.125129 0.63949,-0.0065 1.04425,0.326117 0.96027,0.789014 1.50006,2.032633 2.17803,3.028633 0,0 -0.28328,0.194506 -0.28328,0.194506 z"
       inkscape:connector-curvature="0" />
    <path
       style="opacity:0.41000001;fill:url(#linearGradient1432);fill-opacity:1;stroke:#ee0cd9;stroke-width:1;stroke-linejoin:round;stroke-miterlimit:4;stroke-dasharray:none;stroke-dashoffset:0;stroke-opacity:1"
       id="path907"
       d="m 122.79244,66.128158 c -1.46253,0.135242 -4.18911,0.158208 -4.72254,1.960817 -0.38372,0.769051 -0.90225,1.552641 -0.84934,2.452439 0.0166,0.282823 0.11934,0.555479 0.1432,0.837784 0.46711,1.114973 1.61065,1.997316 2.64966,2.560444 0.78574,0.07316 1.53709,-0.162819 2.30313,-0.257185 0.75955,-0.09357 1.56346,-0.06456 2.32406,-0.0062 0.41638,0.169225 0.46381,0.779544 0.87579,0.942263 0.16219,0.06406 0.3499,0.04577 0.51082,0.112956 0.28324,0.11825 0.96439,0.679841 1.1342,0.811374 0.5615,0.686093 1.24291,1.268957 1.54772,2.128358 0.13981,0.394171 0.21539,0.808339 0.33275,1.209768 0.17774,0.620522 0.0381,1.235056 0.0109,1.858698 -0.0293,0.670981 0.12117,0.769257 -0.19096,1.42962 -0.10698,0.226343 -0.29239,0.406464 -0.43859,0.609696 -0.49549,0.953441 -1.44726,1.085585 -2.36717,1.367411 -1.45936,0.447093 -0.45808,0.250397 -2.02353,0.452297 -0.85107,0.102466 -1.65941,0.07359 -2.4824,-0.131778 -0.20446,-0.05102 -0.44452,-0.02405 -0.61445,-0.148675 -0.21237,-0.155741 -0.28267,-0.448074 -0.46213,-0.640823 -0.18467,-0.19835 -0.41466,-0.349062 -0.62198,-0.523592 -0.71771,-0.621652 -1.42383,-1.290148 -2.20294,-1.837632 -0.78714,-0.553127 -0.90579,-0.340391 -1.08431,-1.274434 0.0119,-0.103203 0.0239,-0.206404 0.0358,-0.309608 0,0 0.30442,-0.182448 0.30442,-0.182448 v 0 c -0.0165,0.10187 -0.0329,0.203737 -0.0494,0.305604 0.0282,0.160017 0.0169,0.332298 0.0845,0.480055 0.11639,0.254442 0.80319,0.746368 0.91189,0.827727 0.77534,0.580298 1.62376,1.066822 2.28794,1.785329 0.34761,0.463217 0.56228,0.839407 1.0717,1.153629 0.16576,0.102237 0.36816,0.127248 0.5537,0.186417 0.81546,0.260057 1.64385,0.179065 2.49051,0.113009 0.37343,-0.065 0.75135,-0.108074 1.12029,-0.195008 0.68162,-0.160616 1.06168,-0.356349 1.71073,-0.56772 0.17798,-0.05796 0.36167,-0.09681 0.54096,-0.150577 0.0547,-0.0164 0.11965,-0.01987 0.16047,-0.05977 0.17663,-0.172688 0.31935,-0.376962 0.47903,-0.565443 0.10244,-0.175916 0.23774,-0.336439 0.30731,-0.527754 0.0812,-0.223406 0.10084,-0.464847 0.13897,-0.69949 0.13628,-0.838723 0.27552,-1.719447 -5.3e-4,-2.542209 -0.002,-0.01138 -0.18754,-1.187392 -0.22211,-1.272072 -0.0705,-0.172788 -0.21969,-0.302498 -0.3141,-0.463491 -0.37546,-0.64026 -0.63322,-1.172853 -1.27907,-1.619147 -0.0376,-0.02596 -0.98442,-0.692216 -1.15955,-0.777568 -0.11115,-0.05417 -0.60183,-0.151008 -0.72054,-0.317931 -0.0878,-0.123503 -0.0713,-0.304205 -0.16413,-0.423993 -0.11477,-0.148089 -0.29182,-0.235063 -0.43772,-0.352597 -1.03447,-0.04196 -2.11597,-0.02537 -3.14309,0.129173 -0.29556,0.04447 -0.581,0.151246 -0.87858,0.179128 -0.21181,0.01984 -0.42476,-0.02474 -0.63715,-0.03711 -0.87774,-0.333835 -0.18765,0.01506 -1.00512,-0.738057 -0.31861,-0.293529 -1.26119,-0.958139 -1.50234,-1.328449 -0.0982,-0.150771 -0.10714,-0.34352 -0.16071,-0.515279 -0.0153,-0.306869 -0.23508,-1.219666 -0.20114,-1.413246 0.11302,-0.644511 0.7132,-1.175062 0.79508,-1.840412 0.10616,-0.210587 0.28748,-0.606851 0.45395,-0.766239 1.31239,-1.25654 3.16636,-1.524762 4.90703,-1.6223 0,0 -0.25091,0.214291 -0.25091,0.214291 z"
       inkscape:connector-curvature="0" />
    <path
       style="opacity:0.41000001;fill:url(#linearGradient1434);fill-opacity:1;stroke:#ee0cd9;stroke-width:1;stroke-linejoin:round;stroke-miterlimit:4;stroke-dasharray:none;stroke-dashoffset:0;stroke-opacity:1"
       id="path909"
       d="m 129.08613,67.16128 c -0.22119,1.449937 0.0381,2.882907 -0.0165,4.336216 -0.0133,0.353925 -0.0945,0.706498 -0.0729,1.060013 0.0172,0.281258 0.33665,1.688312 0.40848,2.014895 0.0834,0.831384 0.13575,1.058659 0.098,1.907186 -0.0134,0.301169 -0.10201,0.598852 -0.0888,0.900033 0.0301,0.686789 0.31104,1.622787 0.57303,2.2646 0.10376,0.114086 0.18243,0.25754 0.31129,0.342262 1.06985,0.703385 0.74328,-1.340789 0.68903,-1.793472 -0.1845,-0.714023 0.0506,-1.427917 0.33452,-2.086145 0.25344,-0.587679 0.39649,-0.623247 0.57969,-1.198017 0.0618,-0.193762 0.0869,-0.397351 0.13028,-0.596027 -0.0521,-0.430572 -0.0359,-1.401389 0.72305,-0.935993 0.17011,0.104312 0.24577,0.316013 0.38856,0.455399 0.13117,0.128037 0.28641,0.228832 0.42961,0.343246 0.75233,0.390255 0.97839,0.832139 1.47145,1.468657 0.20406,0.263427 0.44231,0.499155 0.64615,0.762754 0.82417,1.065803 0.0846,0.31518 0.8778,1.060979 0.44547,0.366697 0.34097,0.445173 0.88901,0.268788 0.11466,-0.0369 0.24465,-0.03997 0.34554,-0.105775 0.0332,-0.02164 -0.11914,-0.01101 -0.10819,-0.04904 0.0418,-0.145312 0.1561,-0.259025 0.23415,-0.388536 0.7222,-1.357476 0.52469,-2.93766 0.35758,-4.408786 -0.0244,-0.139629 -0.0741,-0.277143 -0.0732,-0.418886 0.002,-0.244155 0.0827,-0.483904 0.0804,-0.728054 -0.002,-0.191423 -0.065,-0.377359 -0.0926,-0.56679 -0.14521,-0.996331 -0.31072,-1.41587 -0.83974,-2.277036 -0.52416,-0.894749 -0.7724,-1.980247 -1.64647,-2.619602 -0.31657,-0.231564 -0.70277,-0.348539 -1.05323,-0.524653 -0.50388,-0.389139 -1.00892,-0.783402 -1.40496,-1.287587 -0.10455,-0.133088 -0.17658,-0.290081 -0.28396,-0.420886 -0.21776,-0.265253 -0.43611,-0.409591 -0.70476,-0.617239 0,0 0.32224,-0.234016 0.32224,-0.234016 v 0 c 0.88149,0.767057 -0.12906,-0.191513 0.55989,0.725004 0.10346,0.137628 0.25299,0.233759 0.37441,0.35584 0.4451,0.447546 0.84031,0.950429 1.39275,1.277263 0.147,0.07029 1.0159,0.482103 1.0718,0.52781 0.84021,0.687022 1.00996,1.798185 1.68521,2.601396 0.33908,0.724906 0.70828,1.497007 0.86045,2.290498 0.11158,0.581808 0.002,1.182121 -0.007,1.766493 0.27141,1.918923 -0.10416,-0.92366 0.0856,1.264354 0.0218,0.251494 0.11292,0.495337 0.12056,0.74766 0.0243,0.800579 -0.11734,1.61119 -0.43558,2.344398 -0.30899,0.525513 -0.69674,1.047732 -1.37144,1.001387 -0.10856,-0.0075 -0.22756,0.0013 -0.3222,-0.05248 -0.11829,-0.06714 -0.18994,-0.194741 -0.28492,-0.292111 -0.31623,-0.339463 -0.63292,-0.668332 -0.91988,-1.035298 -0.63198,-0.808178 -1.16727,-1.732373 -2.10661,-2.230253 -0.21373,-0.161911 -0.74476,-0.506065 -0.81772,-0.803243 -0.039,-0.158731 0.11755,-0.307993 0.14024,-0.469857 0.0373,-0.266124 -0.56786,1.400098 -0.27584,1.024974 -0.0137,0.185529 0.0232,0.381979 -0.041,0.556583 -0.0852,0.231693 -0.27582,0.410321 -0.39418,0.626951 -0.33181,0.607288 -0.73103,1.436577 -0.72484,2.144872 0.002,0.178472 0.0994,0.342823 0.14917,0.514233 0.005,0.325475 0.1046,1.625447 -0.11458,1.898317 -0.59446,0.740082 -1.01301,0.465262 -1.55738,-0.0074 -0.26476,-0.747233 -0.47808,-1.524349 -0.51498,-2.323023 -0.0422,-0.913241 0.17615,-1.846516 -0.0823,-2.751695 -0.0998,-4.305912 0.15045,2.240052 -0.34841,-2.060533 -0.0411,-0.354058 0.0817,-0.709652 0.0828,-1.066083 0.001,-0.397346 -0.0642,-0.792456 -0.0757,-1.189638 -0.0361,-1.245251 0.013,-1.868739 0.0651,-3.129963 0,0 0.30181,-0.184949 0.30181,-0.184949 z"
       inkscape:connector-curvature="0" />
    <path
       style="opacity:0.41000001;fill:url(#linearGradient1436);fill-opacity:1;stroke:#ee0cd9;stroke-width:1;stroke-linejoin:round;stroke-miterlimit:4;stroke-dasharray:none;stroke-dashoffset:0;stroke-opacity:1"
       id="path911"
       d="m 153.17955,67.160779 c -0.86579,-0.907303 -1.25865,-1.413401 -2.27627,-2.128427 -1.61774,-1.136695 -0.38511,-0.05423 -1.57294,-0.91472 -1.05695,-0.765678 0.003,-0.151659 -0.89547,-0.642038 -0.0462,-0.0036 -0.0932,-0.02066 -0.13845,-0.01093 -0.99203,0.213526 0.94022,0.03107 -1.06153,0.214744 -0.746,0.06845 -1.4878,0.02365 -2.23324,0.07959 -0.79016,-0.292428 -1.45683,0.400548 -2.00378,0.891863 -0.65177,1.005615 -0.60813,0.708076 -0.80782,1.738067 -0.038,0.196212 -0.11816,0.398997 -0.0771,0.594608 0.0234,0.111718 0.18549,0.139584 0.2507,0.233273 0.21579,0.310036 0.17701,0.444357 0.207,0.808238 0.24067,0.508649 0.53888,1.169454 0.8297,1.639055 0.14966,0.241654 0.35917,0.443327 0.50356,0.68816 0.12732,0.215873 0.15731,0.485341 0.30707,0.686302 1.18368,1.588495 -0.27645,-1.200562 0.78457,1.016786 0.0174,0.156237 0.1231,1.287079 0.215,1.500349 0.17387,0.40349 1.09302,0.960969 1.46414,1.189929 0.49875,0.228068 0.69301,0.729274 1.0748,1.086993 0.12646,0.118483 0.29278,0.19318 0.40684,0.323641 0.16229,0.18564 0.23253,0.445598 0.41277,0.613868 0.15967,0.149066 0.38479,0.206885 0.57718,0.310327 0.52537,0.07741 1.50356,0.06968 1.8321,-0.451377 0.14103,-0.223655 0.40064,-1.108551 0.48033,-1.363284 0.24123,-0.801571 -0.0751,-1.593612 -0.10254,-2.39101 -0.008,-0.234143 0.0741,-0.465569 0.0662,-0.699717 -0.004,-0.108045 -0.0774,-0.20279 -0.10004,-0.308504 -0.0259,-0.120984 -0.0299,-0.245637 -0.0449,-0.368454 0.18407,-1.209598 -0.46967,-2.242979 -0.78581,-3.358324 0.0259,-0.163367 0.0811,-0.324726 0.0777,-0.490101 -0.009,-0.440764 -0.25327,-0.814443 -0.26367,-1.260727 -0.003,-0.114802 -0.0946,-0.313623 0.0161,-0.344125 0.12103,-0.03334 0.1775,0.17756 0.26624,0.266341 0.0236,0.292102 0.065,0.583311 0.0708,0.876307 0.006,0.300342 -0.0775,0.602981 -0.0359,0.900489 0.1443,1.03238 0.37772,1.09311 0.67134,2.002152 0.158,0.489167 0.23905,1.098238 0.32188,1.604592 0.0317,0.229087 0.0547,0.459547 0.0951,0.687261 0.15873,0.894384 0.30213,1.245303 0.37664,2.183341 0.0669,0.842209 -0.006,1.677514 0.0785,2.520813 0.52128,0.965041 -0.26931,2.952384 0.66745,3.663267 0.12534,0.09511 0.29035,0.121325 0.43552,0.181988 0.65793,0.09445 1.13208,0.634021 1.74015,0.841145 0.7353,0.25046 1.4736,0.224779 2.22805,0.145584 -0.0178,-0.01794 -0.0612,-0.02986 -0.0533,-0.05382 0.047,-0.142047 0.15281,-0.259326 0.20359,-0.400082 0.1959,-0.543017 0.10658,-1.047856 -0.0234,-1.58905 0,0 0.41979,-0.264137 0.41979,-0.264137 v 0 c -0.002,1.203857 0.29573,1.713029 -0.78095,2.51319 -1.04987,0.10994 -2.00835,-0.05513 -2.97113,-0.50419 -0.18922,-0.08826 -0.3548,-0.221837 -0.54303,-0.312182 -0.15247,-0.07318 -0.31707,-0.117816 -0.4756,-0.176725 -0.14277,-0.06748 -0.30478,-0.104069 -0.42833,-0.20243 -0.93266,-0.742556 -0.23512,-2.683238 -0.62742,-3.708773 -0.18433,-0.828702 -0.15338,-1.59683 -0.20448,-2.444462 -0.0774,-1.283494 -0.10098,-1.057661 -0.26298,-2.254086 -0.0313,-0.230841 -0.053,-0.46287 -0.0795,-0.694304 -0.31987,-0.98525 -0.18264,-0.470252 -0.40119,-1.547754 -0.0949,-0.294793 -0.27379,-0.557548 -0.3731,-0.850895 -0.33355,-0.98534 -0.42852,-1.918798 -0.31387,-2.949096 0.0673,-0.186573 0.0669,-0.414451 0.20193,-0.559718 0.0703,-0.07566 0.0217,0.205465 0.0318,0.308266 0.0582,0.589426 0.36654,1.123461 0.24241,1.717847 -0.0288,0.668425 -0.0785,0.126609 0.24561,0.805813 0.21923,0.459459 0.57673,1.452689 0.61816,1.949786 0.0171,0.205194 -0.0545,0.408188 -0.0818,0.61228 0.19511,0.806971 0.007,-0.162928 0.0183,0.750969 0.003,0.204888 0.0596,0.405699 0.0771,0.609852 0.0694,0.807426 0.16593,1.633709 0.0485,2.439503 -0.0834,0.28366 -0.31793,1.177419 -0.50677,1.396968 -0.61015,0.709367 -1.50275,0.913686 -2.37985,0.803151 -1.47288,-1.48186 0.82045,0.799504 -1.01201,-0.920057 -0.49188,-0.461568 -0.92564,-0.990071 -1.44068,-1.430385 -0.11397,-0.108109 -0.21047,-0.238321 -0.34192,-0.324329 -0.44037,-0.288126 -0.48231,-0.06568 -0.79698,-0.50722 -0.34673,-0.486531 -0.54089,-1.29527 -0.55345,-1.871982 -0.86216,-1.728243 0.20155,0.229129 -0.72782,-1.049454 -0.14553,-0.200221 -0.223,-0.443222 -0.35912,-0.649954 -0.49956,-0.758696 -1.11911,-1.438648 -1.293,-2.371979 -0.0708,-0.236265 -0.14697,-0.533562 -0.26559,-0.7522 -0.0557,-0.102563 -0.16598,-0.17371 -0.20521,-0.283607 -0.30754,-0.861549 0.42262,-1.670203 0.82871,-2.339176 0.42559,-0.330755 1.38694,-1.216162 1.98174,-1.398251 0.27404,-0.08389 0.42544,0.297029 0.69714,0.04895 1.13155,0.04831 2.2822,0.037 3.38462,-0.219577 0.27835,0.22793 0.52513,0.496469 0.82294,0.698317 0.19943,0.135173 0.43566,0.208772 0.63831,0.339087 0.30058,0.193297 0.57025,0.431607 0.86784,0.629481 1.9268,1.281181 0.8286,0.258461 2.38978,2.058199 0,0 -0.27392,0.190868 -0.27392,0.190868 z"
       inkscape:connector-curvature="0" />
    <path
       style="opacity:0.41000001;fill:url(#linearGradient1438);fill-opacity:1;stroke:#ee0cd9;stroke-width:1;stroke-linejoin:round;stroke-miterlimit:4;stroke-dasharray:none;stroke-dashoffset:0;stroke-opacity:1"
       id="path913"
       d="m 166.55052,69.831126 c -0.0929,-0.475361 0.28388,-2.687354 -0.18265,-3.119945 -0.0835,-0.07744 -0.76539,-0.180798 -0.78913,-0.1851 -0.66387,-0.202475 -1.34338,-0.0026 -2.00945,0.01868 -0.14893,0.0047 -0.29861,-0.06374 -0.44537,-0.03805 -0.17452,0.03055 -0.32775,0.134726 -0.49162,0.202086 -0.42227,0.668737 -1.18156,1.200608 -1.37855,2.001885 -0.0571,0.232085 0.0419,0.476216 0.0559,0.714801 0.019,0.323892 0.0286,0.648264 0.0429,0.972397 -0.10054,0.417285 0.22876,0.730348 0.28305,1.107487 0.0318,0.221205 -0.0569,0.444006 -0.0642,0.667369 -0.018,0.55049 -0.008,0.386538 0.15423,1.009714 0.18576,0.650399 0.27701,1.361085 0.57698,1.975331 0.45106,0.923613 0.0486,-0.246634 0.39106,0.889154 0.25337,0.73229 0.88241,1.395981 1.71397,1.40144 0.23316,0.0016 0.45632,-0.09705 0.68658,-0.133766 0.35608,-0.378285 1.45141,0.122762 1.69113,-0.241498 0.0942,-0.143158 0.0565,-0.338066 0.0847,-0.507098 0.41643,-1.346959 0.0754,-2.741552 -0.006,-4.108352 -0.0856,-1.433243 -0.0297,-1.62732 0.0644,-3.023518 -0.19695,-0.632016 0.0719,-1.27427 0.007,-1.906492 -0.031,-0.303917 -0.43996,-1.778122 -0.54334,-1.976713 -0.21228,-0.407794 -0.53882,-0.745059 -0.80823,-1.117589 -0.21702,-0.429102 -0.43405,-0.858203 -0.65107,-1.287304 -0.24671,-0.997432 -0.77126,-1.945309 -0.77257,-2.996883 -5.3e-4,-0.346874 0.11196,-0.686966 0.11927,-1.033764 0.015,-0.712102 -0.13502,-1.761328 -0.2186,-2.46344 -0.0707,-0.457213 -0.12157,-0.917919 -0.21199,-1.371639 -0.0965,-0.484426 -0.1977,-0.969907 -0.34836,-1.440321 -0.34777,-1.085858 -0.97527,-2.0126 -1.06307,-3.173775 0.52771,-0.158123 -0.0912,-0.312052 -0.009,-0.429339 0.0385,-0.05504 0.16324,0.01138 0.18742,0.07406 0.10341,0.268097 0.0977,0.566859 0.16734,0.845651 0.38116,1.526688 0.53238,1.834798 1.08103,3.415125 0.71316,1.512062 1.16773,3.191772 1.27037,4.866957 0.0268,0.43806 -0.0448,0.877914 -0.0259,1.31639 0.0193,0.447944 0.21101,1.681773 0.28027,2.153615 0.0463,0.371219 0.12872,0.739699 0.13896,1.113655 0.0763,2.78383 -0.29446,0.353957 0.11383,3.203763 0.35054,2.446748 0.15038,0.788466 0.73038,3.079689 0.10217,0.403598 0.15778,0.817573 0.23667,1.22636 0.43321,1.271048 0.2295,2.581489 0.63584,3.865464 0.138,0.436071 0.80325,1.692826 1.07539,2.074344 0.21262,0.298083 0.48164,0.551604 0.72247,0.827403 0.0715,0.339627 0.13188,0.681778 0.21446,1.018881 0.0549,0.224062 0.15998,0.435655 0.1976,0.663255 0.0435,0.263406 -0.27488,0.979852 0.011,1.177925 0.1593,0.110368 0.38202,0.06551 0.57302,0.09826 0.84697,-0.02246 1.61296,-0.239514 2.46571,-0.03708 0.0746,0.01773 1.78377,0.617855 1.99582,0.692103 0.1711,0.02508 0.34262,0.04745 0.51331,0.0752 0.0328,0.0053 -0.0829,0.02096 -0.0994,-0.0079 -0.0784,-0.137036 -0.0895,-0.304514 -0.1601,-0.445744 -0.0889,-0.178009 -0.21049,-0.337764 -0.31574,-0.506648 0,0 0.2748,-0.189537 0.2748,-0.189537 v 0 c 0.0255,0.04379 0.53538,0.86174 0.4947,0.992114 -0.17253,0.552852 -0.61808,0.339368 -0.95096,0.277376 -0.96754,-0.321794 -1.93291,-0.740508 -2.96628,-0.782098 -1.23486,-0.0497 0.0472,0.116493 -0.99522,0.218861 -0.18266,0.01794 -0.36524,-0.0367 -0.54785,-0.05504 -1.29482,-0.485737 -0.40859,-0.47613 -0.5768,-1.325379 -0.11034,-0.557078 -0.56882,-1.021176 -0.44449,-1.644701 -0.71188,-1.077753 -1.19924,-1.772158 -1.67219,-2.998422 -0.16741,-0.43406 -0.39659,-0.854194 -0.47288,-1.313119 -0.0741,-0.445521 0.0692,-0.904703 0.0294,-1.354582 -0.0349,-0.394155 -0.16786,-0.77338 -0.25179,-1.160068 -0.32386,-1.424006 -0.76751,-2.852653 -0.99094,-4.295921 -0.30545,-1.973069 -0.0741,-1.284967 -0.10047,-3.212645 -0.005,-0.381637 -0.0599,-0.760997 -0.0898,-1.141494 -0.17391,-1.103895 -0.42989,-2.229528 -0.45368,-3.350406 -0.0103,-0.487304 0.12509,-0.978236 0.0584,-1.461069 -0.0794,-0.575315 -1.02176,-3.098649 -1.16481,-3.497281 -0.23278,-0.62194 -0.4825,-1.2378 -0.69834,-1.865823 -0.17085,-0.497115 -0.32467,-1.000405 -0.4612,-1.508021 -0.0763,-0.28384 -0.24891,-0.578956 -0.17675,-0.863886 0.0597,-0.235913 0.30276,-0.407284 0.52424,-0.50814 0.16289,-0.07418 -0.12702,0.646877 -0.11632,0.524229 0.0345,0.279138 0.11765,0.998551 0.17812,1.167405 0.11267,0.314592 0.31785,0.588108 0.46454,0.888347 0.60241,1.232987 1.03904,2.497598 1.0374,3.891206 0.0142,0.174765 0.19051,2.289698 0.19058,2.486935 1.1e-4,0.337388 -0.0841,0.671049 -0.0869,1.008425 -0.009,1.074499 0.44161,1.974789 0.78371,2.97254 0.21074,0.430803 0.3981,0.87385 0.63222,1.292405 0.55762,0.996895 0.87628,1.131417 1.17125,2.19356 0.26278,0.946216 0.088,1.973088 0.0235,2.925697 0.0371,0.977294 0.0272,1.956308 0.0791,2.93293 0.0442,0.831559 0.2558,1.6535 0.24495,2.486162 -0.007,0.550519 -0.25128,1.080569 -0.22484,1.636316 -0.20237,0.290962 -0.36156,0.617315 -0.60711,0.872889 -0.34299,0.356997 -1.21817,0.03441 -1.68215,0.229976 -0.69617,0.222012 -1.21347,0.111765 -1.81733,-0.316574 -0.1788,-0.126831 -0.38671,-0.232301 -0.51303,-0.411467 -0.10711,-0.151929 -0.1032,-0.357174 -0.1548,-0.535762 -0.13817,-0.290732 -0.31234,-0.565492 -0.42587,-0.866699 -0.0578,-0.153238 -0.0711,-0.320505 -0.12516,-0.47508 -0.0592,-0.169077 -0.1608,-0.32194 -0.21359,-0.493112 -0.0443,-0.143542 -0.0292,-0.301384 -0.0755,-0.44427 -0.0584,-0.18011 -0.15742,-0.344421 -0.23614,-0.516631 -0.0523,-0.359981 -0.13679,-0.702452 -0.0878,-1.066937 0.0197,-0.146915 0.1036,-0.283147 0.10833,-0.431305 0.002,-0.07191 -0.0703,-0.127286 -0.0883,-0.196935 -0.0982,-0.379762 -0.0787,-0.784797 -0.21075,-1.157716 -0.0149,-0.340826 -0.0965,-1.380413 0.0106,-1.768237 0.26736,-0.968118 1.11468,-1.746094 1.84784,-2.364584 0.15926,-0.05791 0.31068,-0.145481 0.47777,-0.173728 0.15533,-0.02625 0.31508,0.02072 0.47244,0.0131 0.68429,-0.0332 1.37153,-0.08086 2.06119,-0.04522 0.17329,0.04582 0.57376,0.115917 0.72707,0.271092 0.50914,0.515335 -0.0169,2.537789 0.14853,3.161708 0,0 -0.24829,0.152154 -0.24829,0.152154 z"
       inkscape:connector-curvature="0" />
    <path
       style="opacity:0.41000001;fill:url(#linearGradient1440);fill-opacity:1;stroke:#ee0cd9;stroke-width:1;stroke-linejoin:round;stroke-miterlimit:4;stroke-dasharray:none;stroke-dashoffset:0;stroke-opacity:1"
       id="path915"
       d="m 172.76819,74.058843 c -0.31624,-0.469731 -1.0836,-1.135841 -0.64996,-1.848017 0.59028,-0.969449 3.16966,-1.466514 4.24707,-1.708846 1.19212,-0.35951 2.25716,-1.017656 3.35175,-1.591059 0.64211,-0.33637 1.79716,-0.862766 2.4256,-1.154988 0.30968,-0.168979 0.65383,-0.286231 0.92905,-0.506936 0.0989,-0.07934 0.0981,-0.233963 0.14281,-0.35261 0.4435,-1.175616 0.12662,-0.212352 0.32671,-1.578515 0.13519,-0.923086 0.13803,-0.805611 0.47889,-1.560063 0.10375,-0.08035 0.48723,-0.589981 0.31578,-0.823439 -0.0777,-0.105762 -0.22859,-0.132458 -0.32679,-0.219493 -0.13099,-0.116096 -0.23746,-0.257217 -0.35619,-0.385826 -0.14979,-0.130961 -0.29959,-0.261921 -0.44938,-0.392885 -1.29241,-0.729916 -2.6548,-1.498063 -4.16117,-1.62661 -0.69158,0.120364 -1.38015,0.216468 -2.06167,0.390059 -0.19897,0.05067 -0.41206,0.06421 -0.59603,0.155376 -0.23284,0.115388 -0.42249,0.302689 -0.63374,0.454033 -0.54855,0.79673 -0.97285,1.729328 -1.1531,2.684852 -0.064,0.872686 -0.001,0.469283 -0.16524,1.21372 -0.009,0.129699 -0.002,0.261615 -0.028,0.389091 -0.0406,0.201613 -0.13366,0.390697 -0.16965,0.593177 -0.14357,0.807742 -0.0124,0.604542 -2.6e-4,1.429068 0.0604,4.103071 -0.16452,-2.368283 0.008,2.07555 0.068,2.315062 -0.0488,-0.08769 0.23048,2.431286 0.0483,0.435842 0.0537,0.875479 0.0917,1.312333 0.0745,0.855067 0.0327,1.435918 0.57929,2.091674 0.13337,0.09984 0.26453,0.202705 0.4001,0.299519 0.74388,0.531183 1.15153,0.878512 1.65967,1.659845 0.78824,1.212043 0.0299,0.386662 0.9846,1.298091 0.55123,0.297807 1.12241,0.323538 1.73273,0.300974 0.15592,-0.0058 0.3116,-0.04221 0.46712,-0.02973 0.43799,0.03515 0.58029,0.126318 0.96211,0.285859 1.16088,0.02341 2.25607,0.499901 3.42606,0.48311 0.72034,-0.01035 0.67685,0.106154 0.56237,-0.287737 0.0199,-0.500626 -0.31301,-0.920795 -0.37325,-1.399984 -0.0728,-0.579218 -0.006,-1.588961 0.46846,-2.032659 0.19025,-0.178051 0.43453,-0.2877 0.6518,-0.431548 0.14483,-0.623049 0.67699,-1.033474 0.99909,-1.557573 0.26967,-0.438809 0.1922,-0.536213 0.58221,-0.966595 0,0 0.27895,-0.144444 0.27895,-0.144444 v 0 c -0.29129,0.322903 -0.39389,0.607645 -0.6079,0.976879 -0.40208,0.693716 -0.92299,1.32996 -1.47549,1.905791 -0.53232,0.238847 -0.45638,0.659784 -0.5037,1.146773 -0.0299,0.307552 -0.14008,0.612603 -0.11148,0.920279 0.0224,0.241123 0.17336,0.452228 0.26004,0.678344 0.0194,0.259638 0.0388,0.519277 0.0581,0.778912 -0.16328,0.207883 -0.26305,0.487879 -0.48986,0.623644 -0.15458,0.09253 -0.36044,7.94e-4 -0.54042,-0.0069 -1.15332,-0.0498 -2.28176,-0.313515 -3.41823,-0.499761 -0.3219,-0.08714 -0.63231,-0.234603 -0.96424,-0.266737 -0.83539,-0.08087 -1.43276,0.423836 -2.24094,-0.280413 -1.3356,-1.754082 0.54751,0.705673 -1.0121,-1.281295 -0.15947,-0.203163 -0.29215,-0.427987 -0.46574,-0.619228 -0.45804,-0.504611 -1.03023,-0.916684 -1.52973,-1.378167 -0.0982,-0.103561 -0.23638,-0.180369 -0.29456,-0.310682 -0.15314,-0.343048 -0.25706,-1.578716 -0.28641,-1.803842 -0.16115,-1.235969 -0.34464,-2.470073 -0.36717,-3.719618 -0.0244,-0.95491 0.0334,-1.906244 0.0124,-2.859572 -0.005,-0.213132 -0.0618,-0.425241 -0.0464,-0.637863 0.008,-0.103526 0.20551,-0.847007 0.24656,-1.004271 -0.0166,-0.940421 0.48874,-2.85079 1.08487,-3.593412 0.20988,-0.261453 0.48678,-0.461168 0.73017,-0.691753 0.22119,-0.155162 0.41955,-0.349506 0.66357,-0.465492 0.16699,-0.07936 0.36435,-0.06458 0.54396,-0.108437 0.24115,-0.05889 0.474,-0.151172 0.71748,-0.199606 0.4586,-0.09123 0.9448,-0.02506 1.38655,-0.217763 0.37549,0.05993 0.76352,0.06074 1.12827,0.168217 0.29174,0.08596 0.55732,0.243811 0.83769,0.361698 0.24979,0.105032 0.51678,0.173739 0.75271,0.307025 0.22274,0.125836 0.3896,0.336487 0.61155,0.463717 0.26032,0.14923 0.55009,0.239908 0.82514,0.359863 1.03069,0.597995 0.16805,-0.02151 0.82026,0.772644 0.12876,0.156792 0.43948,0.221972 0.43588,0.424828 -0.004,0.224965 -0.33316,0.368064 -0.31018,0.599511 -0.47689,0.834271 -0.42231,0.570733 -0.57449,1.599923 -0.004,0.02566 -0.1061,1.382662 -0.19761,1.531874 -0.40655,0.662902 -1.15459,0.984183 -1.78365,1.355026 -0.34225,0.155186 -1.94311,0.872408 -2.34827,1.086289 -0.34777,0.183579 -0.67905,0.396817 -1.01857,0.595228 -0.24902,0.110363 -0.50283,0.210503 -0.74707,0.331094 -0.26954,0.133088 -0.51417,0.317162 -0.79307,0.429353 -0.24371,0.09804 -0.50875,0.131112 -0.76313,0.196667 -0.38233,0.113787 -0.76109,0.240369 -1.147,0.341363 -0.85258,0.223121 -2.0731,0.199514 -2.64134,1.035669 -0.48231,0.709692 0.25595,1.370314 0.5716,1.870853 0,0 -0.18627,0.135329 -0.18627,0.135329 z"
       inkscape:connector-curvature="0" />
    <path
       style="opacity:0.41000001;fill:url(#linearGradient1442);fill-opacity:1;stroke:#ee0cd9;stroke-width:1;stroke-linejoin:round;stroke-miterlimit:4;stroke-dasharray:none;stroke-dashoffset:0;stroke-opacity:1"
       id="path917"
       d="m 38.938049,113.98204 c 0.905666,-0.40638 1.838121,-0.91765 2.842122,-1.0716 0.387424,-0.0594 0.785096,0.0138 1.175711,-0.0185 1.251373,-0.10359 1.105744,-0.21278 2.268288,-0.37226 0.303284,-0.0416 0.610151,-0.0506 0.915226,-0.0759 0.318868,-0.0618 0.635693,-0.13532 0.956606,-0.18547 1.003967,-0.15688 1.093631,-0.0562 2.10647,-0.37206 1.735058,-0.54116 3.401597,-1.28173 5.109514,-1.90326 1.522973,-0.55423 3.054771,-1.08391 4.582155,-1.62586 4.035668,-1.16688 7.929789,-2.74502 11.880415,-4.15478 0.99612,-0.35546 2.00931,-0.66146 3.00813,-1.00926 1.067959,-0.37187 2.112807,-0.8112 3.191828,-1.14963 1.103574,-0.34614 2.233581,-0.60154 3.350374,-0.90231 0.929576,-0.27312 1.856695,-0.55476 2.788734,-0.81936 1.167408,-0.331428 1.818889,-0.518525 2.959058,-0.70041 1.852835,-0.295574 1.661893,-0.181923 3.665477,-0.442513 0.776972,-0.101055 1.550119,-0.229627 2.325179,-0.34444 1.344052,-0.448247 2.79387,-0.360527 4.155826,-0.706173 0.773375,-0.196271 1.500151,-0.547301 2.265659,-0.772308 2.835569,-0.833464 5.740989,-1.422406 8.642909,-1.961306 0.83301,-0.164219 1.67048,-0.307237 2.49903,-0.492657 0.75703,-0.169415 1.51495,-0.342022 2.256,-0.571468 1.04085,-0.322273 4.30581,-1.618666 5.25022,-1.893075 2.26158,-0.657133 3.31389,-0.695714 5.61085,-0.977006 1.02937,-0.149466 3.79629,-0.537411 4.94069,-0.750663 0.74441,-0.138716 1.47293,-0.362167 2.22225,-0.471241 0.66683,-0.09707 1.34375,-0.103952 2.01631,-0.145735 0.40145,-0.02495 4.44229,-0.230743 4.66833,-0.242322 2.84206,-0.02445 5.66725,-0.347559 8.49795,-0.554839 1.69565,-0.124163 2.26675,-0.05985 3.85724,-0.33056 0.57346,-0.0976 1.13701,-0.246401 1.70551,-0.369601 2.66401,-0.403953 5.34095,-0.128617 8.01462,-0.07558 0.74426,0.01476 3.71363,0.05001 4.40286,0.05853 3.10476,0.13462 6.18922,0.535201 9.2954,0.293901 1.46591,-0.0085 2.9319,0.05478 4.39775,0.03079 0.36865,0.08156 1.36271,0.311992 1.74569,0.355635 0.419,0.04775 0.85635,-0.04181 1.26324,0.06897 1.2623,0.34366 -0.52558,0.09632 0.91546,0.249804 0,0 -0.33147,0.265451 -0.33147,0.265451 v 0 c -0.69283,-0.31896 -1.36698,-0.231809 -2.10158,-0.375769 -0.26641,-0.05221 -0.51615,-0.173464 -0.78261,-0.225412 -0.31939,-0.06227 -0.64618,-0.07743 -0.96928,-0.116139 -0.87431,-0.05242 -1.72345,-0.0065 -2.59693,-7.93e-4 -0.31631,0.0021 -0.63232,-0.02016 -0.94848,-0.03023 -0.17729,-0.01511 -0.35393,-0.04472 -0.53186,-0.04537 -0.10501,-2.65e-4 -0.20811,0.02822 -0.31218,0.04232 -3.09784,0.395943 -6.23123,-0.251339 -9.33251,-0.266203 -1.46586,-0.03134 -2.933,-0.0075 -4.3981,-0.06423 -0.66258,-0.02564 -1.32142,-0.119187 -1.98405,-0.143584 -0.70051,-0.0258 -1.40197,-0.0045 -2.10295,-0.0069 -2.6602,-0.009 -1.35391,-0.08727 -3.90296,0.215643 -0.56041,0.115149 -1.11663,0.252971 -1.68122,0.345448 -1.19908,0.196408 -2.738,0.293135 -3.916,0.379495 -2.80461,0.205605 -5.61141,0.39919 -8.42259,0.487629 -2.2545,0.11787 -4.54134,0.192262 -6.78309,0.480452 -0.64604,0.08305 -3.74117,0.648211 -4.32339,0.737341 -0.90122,0.137969 -1.80678,0.245954 -2.71017,0.368929 -2.50572,0.362146 -3.24333,0.387993 -5.71747,1.080966 -3.456,0.967978 -1.82543,0.747506 -5.14526,1.794875 -0.75006,0.236636 -1.51822,0.412576 -2.28352,0.593993 -0.854,0.202443 -1.71556,0.371562 -2.57334,0.557342 -2.87792,0.474493 -5.73041,1.027845 -8.52994,1.865921 -0.775044,0.232018 -1.513039,0.581281 -2.293848,0.793086 -0.757285,0.205419 -3.41313,0.601567 -4.175199,0.721495 -3.919598,0.590002 -7.900733,0.838448 -11.655435,2.237241 -1.144511,0.32668 -2.300693,0.61494 -3.43353,0.98004 -1.080532,0.34825 -2.130401,0.78566 -3.202617,1.15873 -0.993333,0.34562 -1.99938,0.65387 -2.993522,0.99715 -3.925062,1.35536 -7.786328,2.89632 -11.776877,4.05966 -2.67385,0.99512 -5.357693,1.96335 -8.028924,2.96549 -0.619845,0.23254 -1.217004,0.5277 -1.848628,0.72602 -0.329115,0.10334 -0.680386,0.11431 -1.020016,0.1747 -1.511358,0.26872 -0.618289,0.1461 -1.95517,0.30045 -2.240399,0.22578 0.49563,-0.0883 -2.030445,0.34293 -0.397885,0.0679 -0.801576,0.0958 -1.202364,0.14376 -0.381699,0.001 -0.76681,-0.0469 -1.145093,0.004 -1.038077,0.13984 -1.825188,0.59528 -2.780048,1.02147 0,0 0.173585,-0.16276 0.173585,-0.16276 z"
       inkscape:connector-curvature="0" />
    <path
       style="opacity:0.41000001;fill:url(#linearGradient1444);fill-opacity:1;stroke:#ee0cd9;stroke-width:1;stroke-linejoin:round;stroke-miterlimit:4;stroke-dasharray:none;stroke-dashoffset:0;stroke-opacity:1"
       id="path919"
       d="m 87.97055,105.76565 c -0.714603,0.62996 -1.33785,1.17105 -2.030571,1.8092 -0.174625,0.16087 -0.650262,0.58673 -0.791718,0.83478 -0.27839,0.48816 -0.233032,0.53399 -0.262126,1.02481 -0.01611,0.0707 -0.169831,0.71284 -0.166272,0.81651 0.01527,0.4447 0.784873,1.03713 1.083239,1.28362 0.776028,0.45725 1.509217,1.00403 2.218409,1.55906 0.473147,0.37029 0.986729,0.93707 1.595911,1.11285 0.353984,0.10214 0.734854,0.0542 1.102278,0.0813 0.311203,-0.0269 0.628976,-0.0117 0.933604,-0.0807 0.709676,-0.16092 2.032971,-0.71597 2.592705,-1.20366 0.07773,-0.0677 0.09607,-0.18248 0.146775,-0.27225 0.06775,-0.11996 0.139012,-0.2379 0.208518,-0.35685 0.362407,-0.45655 0.285363,-0.95965 0.278751,-1.50862 -0.01151,-0.95481 -0.02769,-1.69694 -0.28412,-2.61933 -0.09807,-0.12938 -0.160692,-0.29577 -0.294206,-0.38813 -0.61191,-0.42326 -1.476899,-0.033 -2.126482,-0.32867 -0.121336,-0.0552 -0.217112,-0.15477 -0.325668,-0.23215 -0.324557,-0.37569 -0.664483,-0.19463 -1.072764,-0.16208 -0.319413,0.0255 -0.640929,0.006 -0.961091,0.0188 0,0 0.209981,-0.18026 0.209981,-0.18026 v 0 c 0.0035,-5.3e-4 1.416434,-0.17864 1.54889,-0.15945 0.212725,0.0308 0.37125,0.25138 0.600101,0.23602 0.38617,0.20964 0.846209,0.37958 1.286989,0.43425 0.851607,0.10562 0.731988,-0.15007 1.356844,0.61629 0.07606,0.21795 0.181245,0.42783 0.228187,0.65385 0.179486,0.86416 0.150408,1.75641 0.124603,2.62911 -0.0044,0.15076 0.04815,0.30651 0.0098,0.45238 -0.03434,0.13065 -0.145618,0.22757 -0.218429,0.34136 -0.644649,0.96877 -1.538086,1.49258 -2.602997,1.91927 -0.321593,0.12886 -0.641445,0.27167 -0.979424,0.34779 -0.311621,0.0702 -0.636172,0.0585 -0.954257,0.0877 -0.349202,-0.0466 -0.709004,-0.0425 -1.047612,-0.13973 -1.558843,-0.4477 -2.405738,-1.96361 -3.797975,-2.69266 -0.853474,-0.76437 -1.329026,-0.86539 -0.988621,-2.09538 0.04124,-0.16748 0.09709,-0.33203 0.123722,-0.50245 0.02498,-0.15993 -0.04433,-0.34111 0.03051,-0.48463 0.09925,-0.19033 0.306509,-0.30059 0.458189,-0.45248 0.811144,-0.8122 1.671439,-1.57033 2.560812,-2.29705 0,0 0.205507,-0.10238 0.205507,-0.10238 z"
       inkscape:connector-curvature="0" />
    <path
       style="opacity:0.41000001;fill:url(#linearGradient1446);fill-opacity:1;stroke:#ee0cd9;stroke-width:1;stroke-linejoin:round;stroke-miterlimit:4;stroke-dasharray:none;stroke-dashoffset:0;stroke-opacity:1"
       id="path921"
       d="m 111.44552,100.97324 c -1.82703,-0.64916 -0.79784,-0.33795 -2.49042,-0.75468 -0.73279,-0.18043 -1.31169,-0.316535 -2.08057,-0.276641 -0.62952,0.209571 -1.16758,0.617391 -1.68989,0.969711 -0.0844,0.0687 -0.18486,0.12663 -0.25321,0.20623 -0.17424,0.20294 -0.4058,0.83543 -0.42192,1.08837 -0.006,0.0853 0.0158,0.17039 0.0237,0.25558 -0.10699,0.37599 -0.0478,0.009 0.006,0.23202 0.0104,0.0436 -0.0287,0.0953 -3.7e-4,0.13337 0.0723,0.0973 0.19311,0.16472 0.28534,0.25024 0.73217,0.67893 0.15294,0.21467 1.07556,0.88781 0.4023,0.32371 0.83435,0.69027 1.27755,0.98481 0.004,0.003 0.47515,0.32563 0.64417,0.30373 0.26504,-0.14658 0.12561,-0.10506 0.41034,-0.14087 0.41299,0.15406 0.72223,0.48289 1.18321,0.56642 0.18531,0.0336 0.38017,0.01 0.5685,0.0295 0.15811,0.0166 0.31217,0.0526 0.46826,0.0789 0.62471,0.0289 1.21483,0.0929 1.82051,-0.0677 0.85692,-0.41899 1.23093,-0.54797 0.90833,-1.39723 -0.27098,-0.28741 -0.48604,-0.64022 -0.81171,-0.89236 -0.12841,-0.0994 -0.29033,-0.16621 -0.42795,-0.25719 -0.11642,-0.0769 -0.22214,-0.16398 -0.33322,-0.24597 -0.0814,-0.10511 -0.16275,-0.21021 -0.24413,-0.31532 -0.0754,-0.1246 -0.13706,-0.25533 -0.22626,-0.37381 -0.0778,-0.10336 -0.2027,-0.1814 -0.2724,-0.28851 -0.0749,-0.11517 -0.0868,-0.25207 -0.15584,-0.36963 -0.14614,-0.24874 -0.24813,-0.29541 -0.48226,-0.47329 -0.25561,-0.12089 -0.25015,-0.0472 -0.45489,-0.25353 0,0 0.20399,-0.12183 0.20399,-0.12183 v 0 c 0.13502,0.1238 0.2578,0.17907 0.40155,0.28667 0.48125,0.34567 0.69425,0.63983 0.94876,1.11676 0.0681,0.12751 0.11521,0.26374 0.20409,0.38254 0.0786,0.10509 0.19541,0.188 0.29311,0.282 0.32794,0.28226 0.72423,0.52504 1.02739,0.82425 0.0581,0.0574 0.0805,0.13471 0.13742,0.19289 0.51578,0.52721 -0.12349,-0.28745 0.38738,0.40364 0.018,0.10255 0.0246,0.20685 0.0539,0.30766 0.0269,0.0923 0.10915,0.17434 0.11422,0.26912 0.0225,0.42139 -1.03529,0.83868 -1.40007,1.0186 -0.13177,0.0447 -0.25571,0.10965 -0.39533,0.13423 -0.0891,0.0157 -0.18149,-0.0165 -0.27263,-0.0167 -0.39766,-5.6e-4 -0.79229,0.0657 -1.1891,-0.0347 -0.1672,-0.0182 -0.33374,-0.041 -0.5016,-0.0547 -0.19209,-0.0157 -0.3901,0.003 -0.5777,-0.0333 -0.46377,-0.0912 -0.70545,-0.48555 -1.15847,-0.56957 -0.27441,0.003 -0.39942,0.1974 -0.66883,0.087 -0.15008,-0.0615 -0.24601,-0.18591 -0.36646,-0.28102 -0.91118,-0.71952 -0.16371,-0.17093 -1.30393,-0.96932 -0.35035,-0.26034 -0.79959,-0.56903 -1.09828,-0.87902 -0.0876,-0.0909 -0.13844,-0.20166 -0.21369,-0.29955 -0.024,-0.0312 -0.0643,-0.0538 -0.0835,-0.0871 -0.0473,-0.0818 -0.002,-0.1703 0.0175,-0.25027 -0.0753,-0.43747 0.0625,-0.43909 0.18452,-0.81464 0.10702,-0.32951 0.0772,-0.53009 0.46859,-0.75355 0.35315,-0.25239 0.72255,-0.46915 1.10127,-0.69523 0.28555,-0.17048 0.58146,-0.418966 0.94995,-0.469907 0.24374,-0.02002 0.53419,-0.05146 0.77099,-0.0226 0.19319,0.02355 0.37542,0.08785 0.56396,0.129341 1.1096,0.244166 2.21554,0.493306 3.23882,0.935376 0,0 -0.16339,0.10286 -0.16339,0.10286 z"
       inkscape:connector-curvature="0" />
    <path
       style="opacity:0.41000001;fill:url(#linearGradient1448);fill-opacity:1;stroke:#ee0cd9;stroke-width:1;stroke-linejoin:round;stroke-miterlimit:4;stroke-dasharray:none;stroke-dashoffset:0;stroke-opacity:1"
       id="path923"
       d="m 85.365181,120.54273 c 0.04794,0.5215 0.05508,1.0552 0.143828,1.56451 0.09308,0.53414 0.34642,1.55575 0.866243,1.36573 0.171471,-0.0627 0.316622,-0.28297 0.493046,-0.28965 0.180507,-0.007 0.343435,0.16765 0.515154,0.25147 0.609173,0.33771 0.941902,1.30734 1.493797,1.75771 0.561381,0.45812 1.292266,0.51107 1.910374,0.66923 1.188309,0.77483 2.541896,0.68413 3.734306,1.43652 0.19454,0.12276 0.35984,0.33116 0.53977,0.49674 0.70556,0.41553 1.37659,0.95106 2.15401,0.9913 0.12938,0.007 1.10173,-0.12914 1.18114,-0.13968 0.2157,-0.026 0.43092,-0.0639 0.64711,-0.0782 0.75882,-0.0503 0.70207,0.0811 1.480591,-0.19009 0.66982,-0.23331 1.32989,-0.63823 1.97281,-1.00066 0.49707,-0.19463 0.90471,-0.74817 1.40138,-0.93893 0.0777,-0.0298 0.1615,0.0247 0.2405,0.004 0.32855,-0.0851 0.637,-0.29623 0.95359,-0.45321 0.18868,-0.0817 0.3734,-0.18788 0.56602,-0.24523 0.13652,-0.0407 0.99203,-0.12501 1.10083,-0.1702 0.7849,-0.32597 0.31409,-0.36527 1.01221,-0.83474 0.18048,-0.12136 0.38101,-0.15929 0.57151,-0.23894 0.49486,-0.52648 1.11195,-0.49642 1.65213,-0.81102 0.26211,-0.15264 0.91179,-0.84557 1.11396,-1.00801 0.39386,-0.31644 0.8135,-0.55525 1.21278,-0.856 0.93029,-0.54374 0.20612,-0.0831 1.27296,-0.89823 0.19206,-0.14671 0.39575,-0.2594 0.58269,-0.42034 0.0258,-0.0222 0.029,-0.078 0.0424,-0.11779 0.0531,-0.1579 0.0944,-0.32565 0.15715,-0.47536 0.0504,-0.12014 0.12004,-0.21937 0.18006,-0.32905 0.65341,-0.52349 1.37513,-0.89746 1.95392,-1.61421 0.0627,-0.0776 0.0961,-0.19658 0.14648,-0.2922 0.59529,-1.13015 0.0794,-0.10974 0.60244,-1.15875 0.27848,-0.30162 0.73676,-1.36081 1.03071,-1.61993 0.78253,-0.6898 0.39087,-0.15272 1.01177,-0.54583 0.11162,-0.0706 0.20845,-0.18539 0.31267,-0.27808 0.24263,-0.45998 0.44143,-1.02664 0.71294,-1.45473 0.42508,-0.5635 0.24286,-0.29291 0.55719,-0.7955 0.47892,-0.60273 0.89849,-1.30482 1.3398,-1.97051 0,0 0.18327,-0.1405 0.18327,-0.1405 v 0 c -0.40631,0.66952 -0.83085,1.31138 -1.27566,1.92331 -0.26571,0.39602 -0.53753,0.77916 -0.78601,1.20042 -0.1764,0.29903 -0.31314,0.64896 -0.49695,0.93773 -0.14657,0.23027 -0.31546,0.42598 -0.47318,0.63897 -0.25273,0.19471 -0.34807,0.3067 -0.6489,0.35925 -0.0723,0.0126 -0.1515,-0.0905 -0.21667,-0.0417 -0.26591,0.19908 -0.81831,1.36644 -1.06319,1.63901 -0.47892,0.99606 -0.92688,1.74984 -1.64327,2.39506 -0.70228,0.6325 -0.48465,0.54474 -0.99949,0.62658 -0.29866,0.49394 -0.15002,0.2083 -0.42881,0.87641 -0.27513,0.4752 -0.55767,0.59168 -0.93805,0.8792 -0.92861,0.70189 -0.40678,0.34228 -1.27896,0.90617 -0.41587,0.31493 -0.84425,0.59259 -1.25558,0.92066 -0.0903,0.072 -0.98935,0.90753 -1.10305,0.97799 -0.53242,0.32988 -1.13831,0.34618 -1.64364,0.80042 -0.17604,0.0636 -0.36336,0.0779 -0.52811,0.19067 -0.87215,0.59691 -0.1516,0.47512 -1.00401,0.80821 -0.93981,0.36725 -0.30428,-0.0216 -1.1475,0.23721 -0.1931,0.0592 -0.37832,0.16621 -0.56748,0.24932 -0.32206,0.15687 -0.63634,0.36094 -0.96841,0.46011 -0.0786,0.0235 -0.16233,-0.0152 -0.24044,0.0121 -0.49244,0.17198 -0.90611,0.67531 -1.38221,0.91085 -0.87859,0.52716 -1.82642,1.11076 -2.780281,1.2023 -0.21527,0.0207 -0.43025,-0.0658 -0.64594,-0.0598 -0.22112,0.007 -0.44023,0.0645 -0.66035,0.0967 -0.58544,0.086 -1.20774,0.26886 -1.79417,0.0842 -0.56319,-0.17733 -1.03241,-0.68704 -1.58386,-0.90981 -0.34308,-0.29341 -0.93016,-0.82825 -1.29364,-0.9809 -0.34671,-0.1456 -0.71343,-0.14946 -1.066982,-0.25141 -0.630252,-0.18175 -1.283504,-0.37621 -1.881817,-0.72483 -0.64639,-0.113 -1.296868,-0.24401 -1.879838,-0.7214 -0.767619,-0.62859 -0.300191,-0.4526 -0.964824,-1.179 -0.181069,-0.1979 -0.388211,-0.33548 -0.582317,-0.50322 -0.184626,-0.0564 -0.365588,-0.15923 -0.553878,-0.16915 -0.174131,-0.009 -0.547612,0.25344 -0.731831,0.19271 -0.764852,-0.25213 -0.63794,-2.22155 -0.741245,-2.96569 0,0 0.206999,-0.19047 0.206999,-0.19047 z"
       inkscape:connector-curvature="0" />
  </g>
</svg>
